<svg width="1216" height="920" viewBox="0 0 1216 920" fill="none" xmlns="http://www.w3.org/2000/svg">
<g opacity="0.5">
<path opacity="0.5" d="M237.668 239.74C237.668 240.714 236.868 241.509 235.888 241.509C234.908 241.509 234.108 240.714 234.108 239.74C234.108 238.765 234.908 237.97 235.888 237.97C236.868 237.97 237.668 238.765 237.668 239.74Z" fill="white"/>
<path opacity="0.5" d="M251.198 241.509C252.181 241.509 252.978 240.717 252.978 239.74C252.978 238.762 252.181 237.97 251.198 237.97C250.215 237.97 249.418 238.762 249.418 239.74C249.418 240.717 250.215 241.509 251.198 241.509Z" fill="white"/>
<path opacity="0.5" d="M266.499 241.509C267.482 241.509 268.279 240.717 268.279 239.74C268.279 238.762 267.482 237.97 266.499 237.97C265.516 237.97 264.719 238.762 264.719 239.74C264.719 240.717 265.516 241.509 266.499 241.509Z" fill="white"/>
<path opacity="0.5" d="M283.588 239.74C283.588 240.714 282.788 241.509 281.808 241.509C280.828 241.509 280.028 240.714 280.028 239.74C280.028 238.765 280.828 237.97 281.808 237.97C282.788 237.97 283.588 238.765 283.588 239.74Z" fill="white"/>
<path opacity="0.5" d="M297.108 241.509C298.091 241.509 298.888 240.717 298.888 239.74C298.888 238.762 298.091 237.97 297.108 237.97C296.125 237.97 295.328 238.762 295.328 239.74C295.328 240.717 296.125 241.509 297.108 241.509Z" fill="white"/>
<path opacity="0.5" d="M312.419 241.509C313.402 241.509 314.199 240.717 314.199 239.74C314.199 238.762 313.402 237.97 312.419 237.97C311.436 237.97 310.639 238.762 310.639 239.74C310.639 240.717 311.436 241.509 312.419 241.509Z" fill="white"/>
<path opacity="0.5" d="M327.718 241.509C328.702 241.509 329.498 240.717 329.498 239.74C329.498 238.762 328.702 237.97 327.718 237.97C326.735 237.97 325.938 238.762 325.938 239.74C325.938 240.717 326.735 241.509 327.718 241.509Z" fill="white"/>
<path opacity="0.5" d="M343.028 241.509C344.011 241.509 344.808 240.717 344.808 239.74C344.808 238.762 344.011 237.97 343.028 237.97C342.045 237.97 341.248 238.762 341.248 239.74C341.248 240.717 342.045 241.509 343.028 241.509Z" fill="white"/>
<path opacity="0.5" d="M237.668 254.951C237.668 255.925 236.868 256.72 235.888 256.72C234.908 256.72 234.108 255.925 234.108 254.951C234.108 253.976 234.908 253.181 235.888 253.181C236.868 253.191 237.668 253.976 237.668 254.951Z" fill="white"/>
<path opacity="0.5" d="M251.198 256.72C252.181 256.72 252.978 255.928 252.978 254.951C252.978 253.973 252.181 253.181 251.198 253.181C250.215 253.181 249.418 253.973 249.418 254.951C249.418 255.928 250.215 256.72 251.198 256.72Z" fill="white"/>
<path opacity="0.5" d="M266.499 256.72C267.482 256.72 268.279 255.928 268.279 254.951C268.279 253.973 267.482 253.181 266.499 253.181C265.516 253.181 264.719 253.973 264.719 254.951C264.719 255.928 265.516 256.72 266.499 256.72Z" fill="white"/>
<path opacity="0.5" d="M283.588 254.951C283.588 255.925 282.788 256.72 281.808 256.72C280.828 256.72 280.028 255.925 280.028 254.951C280.028 253.976 280.828 253.181 281.808 253.181C282.788 253.191 283.588 253.976 283.588 254.951Z" fill="white"/>
<path opacity="0.5" d="M297.108 256.72C298.091 256.72 298.888 255.928 298.888 254.951C298.888 253.973 298.091 253.181 297.108 253.181C296.125 253.181 295.328 253.973 295.328 254.951C295.328 255.928 296.125 256.72 297.108 256.72Z" fill="white"/>
<path opacity="0.5" d="M312.419 256.72C313.402 256.72 314.199 255.928 314.199 254.951C314.199 253.973 313.402 253.181 312.419 253.181C311.436 253.181 310.639 253.973 310.639 254.951C310.639 255.928 311.436 256.72 312.419 256.72Z" fill="white"/>
<path opacity="0.5" d="M327.718 256.72C328.702 256.72 329.498 255.928 329.498 254.951C329.498 253.973 328.702 253.181 327.718 253.181C326.735 253.181 325.938 253.973 325.938 254.951C325.938 255.928 326.735 256.72 327.718 256.72Z" fill="white"/>
<path opacity="0.5" d="M343.028 256.72C344.011 256.72 344.808 255.928 344.808 254.951C344.808 253.973 344.011 253.181 343.028 253.181C342.045 253.181 341.248 253.973 341.248 254.951C341.248 255.928 342.045 256.72 343.028 256.72Z" fill="white"/>
<path opacity="0.5" d="M237.668 270.171C237.668 271.146 236.868 271.941 235.888 271.941C234.908 271.941 234.108 271.146 234.108 270.171C234.108 269.197 234.908 268.402 235.888 268.402C236.868 268.402 237.668 269.197 237.668 270.171Z" fill="white"/>
<path opacity="0.5" d="M251.198 271.941C252.181 271.941 252.978 271.149 252.978 270.171C252.978 269.194 252.181 268.402 251.198 268.402C250.215 268.402 249.418 269.194 249.418 270.171C249.418 271.149 250.215 271.941 251.198 271.941Z" fill="white"/>
<path opacity="0.5" d="M266.499 271.941C267.482 271.941 268.279 271.149 268.279 270.171C268.279 269.194 267.482 268.402 266.499 268.402C265.516 268.402 264.719 269.194 264.719 270.171C264.719 271.149 265.516 271.941 266.499 271.941Z" fill="white"/>
<path opacity="0.5" d="M283.588 270.171C283.588 271.146 282.788 271.941 281.808 271.941C280.828 271.941 280.028 271.146 280.028 270.171C280.028 269.197 280.828 268.402 281.808 268.402C282.788 268.402 283.588 269.197 283.588 270.171Z" fill="white"/>
<path opacity="0.5" d="M297.108 271.941C298.091 271.941 298.888 271.149 298.888 270.171C298.888 269.194 298.091 268.402 297.108 268.402C296.125 268.402 295.328 269.194 295.328 270.171C295.328 271.149 296.125 271.941 297.108 271.941Z" fill="white"/>
<path opacity="0.5" d="M312.419 271.941C313.402 271.941 314.199 271.149 314.199 270.171C314.199 269.194 313.402 268.402 312.419 268.402C311.436 268.402 310.639 269.194 310.639 270.171C310.639 271.149 311.436 271.941 312.419 271.941Z" fill="white"/>
<path opacity="0.5" d="M327.718 271.941C328.702 271.941 329.498 271.149 329.498 270.171C329.498 269.194 328.702 268.402 327.718 268.402C326.735 268.402 325.938 269.194 325.938 270.171C325.938 271.149 326.735 271.941 327.718 271.941Z" fill="white"/>
<path opacity="0.5" d="M343.028 271.941C344.011 271.941 344.808 271.149 344.808 270.171C344.808 269.194 344.011 268.402 343.028 268.402C342.045 268.402 341.248 269.194 341.248 270.171C341.248 271.149 342.045 271.941 343.028 271.941Z" fill="white"/>
<path opacity="0.5" d="M237.668 285.382C237.668 286.356 236.868 287.152 235.888 287.152C234.908 287.152 234.108 286.356 234.108 285.382C234.108 284.408 234.908 283.612 235.888 283.612C236.868 283.622 237.668 284.408 237.668 285.382Z" fill="white"/>
<path opacity="0.5" d="M251.198 287.152C252.181 287.152 252.978 286.359 252.978 285.382C252.978 284.405 252.181 283.612 251.198 283.612C250.215 283.612 249.418 284.405 249.418 285.382C249.418 286.359 250.215 287.152 251.198 287.152Z" fill="white"/>
<path opacity="0.5" d="M266.499 287.152C267.482 287.152 268.279 286.359 268.279 285.382C268.279 284.405 267.482 283.612 266.499 283.612C265.516 283.612 264.719 284.405 264.719 285.382C264.719 286.359 265.516 287.152 266.499 287.152Z" fill="white"/>
<path opacity="0.5" d="M283.588 285.382C283.588 286.356 282.788 287.152 281.808 287.152C280.828 287.152 280.028 286.356 280.028 285.382C280.028 284.408 280.828 283.612 281.808 283.612C282.788 283.622 283.588 284.408 283.588 285.382Z" fill="white"/>
<path opacity="0.5" d="M297.108 287.152C298.091 287.152 298.888 286.359 298.888 285.382C298.888 284.405 298.091 283.612 297.108 283.612C296.125 283.612 295.328 284.405 295.328 285.382C295.328 286.359 296.125 287.152 297.108 287.152Z" fill="white"/>
<path opacity="0.5" d="M312.419 287.152C313.402 287.152 314.199 286.359 314.199 285.382C314.199 284.405 313.402 283.612 312.419 283.612C311.436 283.612 310.639 284.405 310.639 285.382C310.639 286.359 311.436 287.152 312.419 287.152Z" fill="white"/>
<path opacity="0.5" d="M327.718 287.152C328.702 287.152 329.498 286.359 329.498 285.382C329.498 284.405 328.702 283.612 327.718 283.612C326.735 283.612 325.938 284.405 325.938 285.382C325.938 286.359 326.735 287.152 327.718 287.152Z" fill="white"/>
<path opacity="0.5" d="M343.028 287.152C344.011 287.152 344.808 286.359 344.808 285.382C344.808 284.405 344.011 283.612 343.028 283.612C342.045 283.612 341.248 284.405 341.248 285.382C341.248 286.359 342.045 287.152 343.028 287.152Z" fill="white"/>
<path opacity="0.5" d="M237.668 300.603C237.668 301.577 236.868 302.373 235.888 302.373C234.908 302.373 234.108 301.577 234.108 300.603C234.108 299.629 234.908 298.833 235.888 298.833C236.868 298.833 237.668 299.629 237.668 300.603Z" fill="white"/>
<path opacity="0.5" d="M251.198 302.373C252.181 302.373 252.978 301.58 252.978 300.603C252.978 299.626 252.181 298.833 251.198 298.833C250.215 298.833 249.418 299.626 249.418 300.603C249.418 301.58 250.215 302.373 251.198 302.373Z" fill="white"/>
<path opacity="0.5" d="M266.499 302.373C267.482 302.373 268.279 301.58 268.279 300.603C268.279 299.626 267.482 298.833 266.499 298.833C265.516 298.833 264.719 299.626 264.719 300.603C264.719 301.58 265.516 302.373 266.499 302.373Z" fill="white"/>
<path opacity="0.5" d="M283.588 300.603C283.588 301.577 282.788 302.373 281.808 302.373C280.828 302.373 280.028 301.577 280.028 300.603C280.028 299.629 280.828 298.833 281.808 298.833C282.788 298.833 283.588 299.629 283.588 300.603Z" fill="white"/>
<path opacity="0.5" d="M297.108 302.373C298.091 302.373 298.888 301.58 298.888 300.603C298.888 299.626 298.091 298.833 297.108 298.833C296.125 298.833 295.328 299.626 295.328 300.603C295.328 301.58 296.125 302.373 297.108 302.373Z" fill="white"/>
<path opacity="0.5" d="M312.419 302.373C313.402 302.373 314.199 301.58 314.199 300.603C314.199 299.626 313.402 298.833 312.419 298.833C311.436 298.833 310.639 299.626 310.639 300.603C310.639 301.58 311.436 302.373 312.419 302.373Z" fill="white"/>
<path opacity="0.5" d="M327.718 302.373C328.702 302.373 329.498 301.58 329.498 300.603C329.498 299.626 328.702 298.833 327.718 298.833C326.735 298.833 325.938 299.626 325.938 300.603C325.938 301.58 326.735 302.373 327.718 302.373Z" fill="white"/>
<path opacity="0.5" d="M343.028 302.373C344.011 302.373 344.808 301.58 344.808 300.603C344.808 299.626 344.011 298.833 343.028 298.833C342.045 298.833 341.248 299.626 341.248 300.603C341.248 301.58 342.045 302.373 343.028 302.373Z" fill="white"/>
<path opacity="0.5" d="M237.668 315.824C237.668 316.798 236.868 317.593 235.888 317.593C234.908 317.593 234.108 316.798 234.108 315.824C234.108 314.85 234.908 314.054 235.888 314.054C236.868 314.054 237.668 314.84 237.668 315.824Z" fill="white"/>
<path opacity="0.5" d="M251.198 317.593C252.181 317.593 252.978 316.801 252.978 315.824C252.978 314.846 252.181 314.054 251.198 314.054C250.215 314.054 249.418 314.846 249.418 315.824C249.418 316.801 250.215 317.593 251.198 317.593Z" fill="white"/>
<path opacity="0.5" d="M266.499 317.593C267.482 317.593 268.279 316.801 268.279 315.824C268.279 314.846 267.482 314.054 266.499 314.054C265.516 314.054 264.719 314.846 264.719 315.824C264.719 316.801 265.516 317.593 266.499 317.593Z" fill="white"/>
<path opacity="0.5" d="M283.588 315.824C283.588 316.798 282.788 317.593 281.808 317.593C280.828 317.593 280.028 316.798 280.028 315.824C280.028 314.85 280.828 314.054 281.808 314.054C282.788 314.054 283.588 314.84 283.588 315.824Z" fill="white"/>
<path opacity="0.5" d="M297.108 317.593C298.091 317.593 298.888 316.801 298.888 315.824C298.888 314.846 298.091 314.054 297.108 314.054C296.125 314.054 295.328 314.846 295.328 315.824C295.328 316.801 296.125 317.593 297.108 317.593Z" fill="white"/>
<path opacity="0.5" d="M312.419 317.593C313.402 317.593 314.199 316.801 314.199 315.824C314.199 314.846 313.402 314.054 312.419 314.054C311.436 314.054 310.639 314.846 310.639 315.824C310.639 316.801 311.436 317.593 312.419 317.593Z" fill="white"/>
<path opacity="0.5" d="M327.718 317.593C328.702 317.593 329.498 316.801 329.498 315.824C329.498 314.846 328.702 314.054 327.718 314.054C326.735 314.054 325.938 314.846 325.938 315.824C325.938 316.801 326.735 317.593 327.718 317.593Z" fill="white"/>
<path opacity="0.5" d="M343.028 317.593C344.011 317.593 344.808 316.801 344.808 315.824C344.808 314.846 344.011 314.054 343.028 314.054C342.045 314.054 341.248 314.846 341.248 315.824C341.248 316.801 342.045 317.593 343.028 317.593Z" fill="white"/>
</g>
<g opacity="0.5">
<path opacity="0.5" d="M845.558 506.039C846.541 506.039 847.338 505.247 847.338 504.27C847.338 503.292 846.541 502.5 845.558 502.5C844.575 502.5 843.778 503.292 843.778 504.27C843.778 505.247 844.575 506.039 845.558 506.039Z" fill="white"/>
<path opacity="0.5" d="M845.558 521.26C846.541 521.26 847.338 520.468 847.338 519.491C847.338 518.513 846.541 517.721 845.558 517.721C844.575 517.721 843.778 518.513 843.778 519.491C843.778 520.468 844.575 521.26 845.558 521.26Z" fill="white"/>
<path opacity="0.5" d="M845.558 536.471C846.541 536.471 847.338 535.679 847.338 534.701C847.338 533.724 846.541 532.932 845.558 532.932C844.575 532.932 843.778 533.724 843.778 534.701C843.778 535.679 844.575 536.471 845.558 536.471Z" fill="white"/>
<path opacity="0.5" d="M845.558 551.692C846.541 551.692 847.338 550.899 847.338 549.922C847.338 548.945 846.541 548.152 845.558 548.152C844.575 548.152 843.778 548.945 843.778 549.922C843.778 550.899 844.575 551.692 845.558 551.692Z" fill="white"/>
<path opacity="0.5" d="M845.558 566.903C846.541 566.903 847.338 566.11 847.338 565.133C847.338 564.156 846.541 563.363 845.558 563.363C844.575 563.363 843.778 564.156 843.778 565.133C843.778 566.11 844.575 566.903 845.558 566.903Z" fill="white"/>
<path opacity="0.5" d="M845.558 582.123C846.541 582.123 847.338 581.331 847.338 580.354C847.338 579.376 846.541 578.584 845.558 578.584C844.575 578.584 843.778 579.376 843.778 580.354C843.778 581.331 844.575 582.123 845.558 582.123Z" fill="white"/>
<path opacity="0.5" d="M845.558 597.334C846.541 597.334 847.338 596.542 847.338 595.565C847.338 594.587 846.541 593.795 845.558 593.795C844.575 593.795 843.778 594.587 843.778 595.565C843.778 596.542 844.575 597.334 845.558 597.334Z" fill="white"/>
<path opacity="0.5" d="M845.558 612.545C844.578 612.545 843.778 611.75 843.778 610.776C843.778 609.801 844.578 609.006 845.558 609.006C846.538 609.006 847.338 609.801 847.338 610.776C847.338 611.76 846.538 612.545 845.558 612.545Z" fill="white"/>
<path opacity="0.5" d="M830.258 506.039C829.278 506.039 828.479 505.244 828.479 504.27C828.479 503.295 829.278 502.5 830.258 502.5C831.238 502.5 832.039 503.295 832.039 504.27C832.029 505.244 831.238 506.039 830.258 506.039Z" fill="white"/>
<path opacity="0.5" d="M830.258 521.25C829.278 521.25 828.479 520.455 828.479 519.481C828.479 518.506 829.278 517.711 830.258 517.711C831.238 517.711 832.039 518.506 832.039 519.481C832.029 520.465 831.238 521.25 830.258 521.25Z" fill="white"/>
<path opacity="0.5" d="M830.258 536.471C829.278 536.471 828.479 535.676 828.479 534.701C828.479 533.727 829.278 532.932 830.258 532.932C831.238 532.932 832.039 533.727 832.039 534.701C832.029 535.676 831.238 536.471 830.258 536.471Z" fill="white"/>
<path opacity="0.5" d="M830.258 551.682C829.278 551.682 828.479 550.886 828.479 549.912C828.479 548.938 829.278 548.143 830.258 548.143C831.238 548.143 832.039 548.938 832.039 549.912C832.029 550.896 831.238 551.682 830.258 551.682Z" fill="white"/>
<path opacity="0.5" d="M830.258 566.903C829.278 566.903 828.479 566.107 828.479 565.133C828.479 564.159 829.278 563.363 830.258 563.363C831.238 563.363 832.039 564.159 832.039 565.133C832.029 566.107 831.238 566.903 830.258 566.903Z" fill="white"/>
<path opacity="0.5" d="M830.258 582.113C829.278 582.113 828.479 581.318 828.479 580.344C828.479 579.37 829.278 578.574 830.258 578.574C831.238 578.574 832.039 579.37 832.039 580.344C832.039 581.318 831.238 582.113 830.258 582.113Z" fill="white"/>
<path opacity="0.5" d="M830.258 597.334C829.278 597.334 828.479 596.539 828.479 595.565C828.479 594.591 829.278 593.795 830.258 593.795C831.238 593.795 832.039 594.591 832.039 595.565C832.039 596.539 831.238 597.334 830.258 597.334Z" fill="white"/>
<path opacity="0.5" d="M830.258 612.545C829.278 612.545 828.479 611.75 828.479 610.776C828.479 609.801 829.278 609.006 830.258 609.006C831.238 609.006 832.039 609.801 832.039 610.776C832.029 611.76 831.238 612.545 830.258 612.545Z" fill="white"/>
<path opacity="0.5" d="M814.948 506.039C815.931 506.039 816.728 505.247 816.728 504.27C816.728 503.292 815.931 502.5 814.948 502.5C813.965 502.5 813.168 503.292 813.168 504.27C813.168 505.247 813.965 506.039 814.948 506.039Z" fill="white"/>
<path opacity="0.5" d="M814.948 521.26C815.931 521.26 816.728 520.468 816.728 519.491C816.728 518.513 815.931 517.721 814.948 517.721C813.965 517.721 813.168 518.513 813.168 519.491C813.168 520.468 813.965 521.26 814.948 521.26Z" fill="white"/>
<path opacity="0.5" d="M814.948 536.471C815.931 536.471 816.728 535.679 816.728 534.701C816.728 533.724 815.931 532.932 814.948 532.932C813.965 532.932 813.168 533.724 813.168 534.701C813.168 535.679 813.965 536.471 814.948 536.471Z" fill="white"/>
<path opacity="0.5" d="M814.948 551.692C815.931 551.692 816.728 550.899 816.728 549.922C816.728 548.945 815.931 548.152 814.948 548.152C813.965 548.152 813.168 548.945 813.168 549.922C813.168 550.899 813.965 551.692 814.948 551.692Z" fill="white"/>
<path opacity="0.5" d="M814.948 566.903C815.931 566.903 816.728 566.11 816.728 565.133C816.728 564.156 815.931 563.363 814.948 563.363C813.965 563.363 813.168 564.156 813.168 565.133C813.168 566.11 813.965 566.903 814.948 566.903Z" fill="white"/>
<path opacity="0.5" d="M814.948 582.123C815.931 582.123 816.728 581.331 816.728 580.354C816.728 579.376 815.931 578.584 814.948 578.584C813.965 578.584 813.168 579.376 813.168 580.354C813.168 581.331 813.965 582.123 814.948 582.123Z" fill="white"/>
<path opacity="0.5" d="M814.948 597.334C815.931 597.334 816.728 596.542 816.728 595.565C816.728 594.587 815.931 593.795 814.948 593.795C813.965 593.795 813.168 594.587 813.168 595.565C813.168 596.542 813.965 597.334 814.948 597.334Z" fill="white"/>
<path opacity="0.5" d="M814.948 612.545C813.968 612.545 813.168 611.75 813.168 610.776C813.168 609.801 813.968 609.006 814.948 609.006C815.928 609.006 816.728 609.801 816.728 610.776C816.728 611.76 815.928 612.545 814.948 612.545Z" fill="white"/>
<path opacity="0.5" d="M799.638 506.039C800.621 506.039 801.418 505.247 801.418 504.27C801.418 503.292 800.621 502.5 799.638 502.5C798.655 502.5 797.858 503.292 797.858 504.27C797.858 505.247 798.655 506.039 799.638 506.039Z" fill="white"/>
<path opacity="0.5" d="M799.638 521.26C800.621 521.26 801.418 520.468 801.418 519.491C801.418 518.513 800.621 517.721 799.638 517.721C798.655 517.721 797.858 518.513 797.858 519.491C797.858 520.468 798.655 521.26 799.638 521.26Z" fill="white"/>
<path opacity="0.5" d="M799.638 536.471C800.621 536.471 801.418 535.679 801.418 534.701C801.418 533.724 800.621 532.932 799.638 532.932C798.655 532.932 797.858 533.724 797.858 534.701C797.858 535.679 798.655 536.471 799.638 536.471Z" fill="white"/>
<path opacity="0.5" d="M799.638 551.692C800.621 551.692 801.418 550.899 801.418 549.922C801.418 548.945 800.621 548.152 799.638 548.152C798.655 548.152 797.858 548.945 797.858 549.922C797.858 550.899 798.655 551.692 799.638 551.692Z" fill="white"/>
<path opacity="0.5" d="M799.638 566.903C800.621 566.903 801.418 566.11 801.418 565.133C801.418 564.156 800.621 563.363 799.638 563.363C798.655 563.363 797.858 564.156 797.858 565.133C797.858 566.11 798.655 566.903 799.638 566.903Z" fill="white"/>
<path opacity="0.5" d="M799.638 582.123C800.621 582.123 801.418 581.331 801.418 580.354C801.418 579.376 800.621 578.584 799.638 578.584C798.655 578.584 797.858 579.376 797.858 580.354C797.858 581.331 798.655 582.123 799.638 582.123Z" fill="white"/>
<path opacity="0.5" d="M799.638 597.334C800.621 597.334 801.418 596.542 801.418 595.565C801.418 594.587 800.621 593.795 799.638 593.795C798.655 593.795 797.858 594.587 797.858 595.565C797.858 596.542 798.655 597.334 799.638 597.334Z" fill="white"/>
<path opacity="0.5" d="M799.638 612.545C798.658 612.545 797.858 611.75 797.858 610.776C797.858 609.801 798.658 609.006 799.638 609.006C800.618 609.006 801.418 609.801 801.418 610.776C801.418 611.76 800.628 612.545 799.638 612.545Z" fill="white"/>
<path opacity="0.5" d="M784.338 506.039C785.321 506.039 786.118 505.247 786.118 504.27C786.118 503.292 785.321 502.5 784.338 502.5C783.355 502.5 782.558 503.292 782.558 504.27C782.558 505.247 783.355 506.039 784.338 506.039Z" fill="white"/>
<path opacity="0.5" d="M784.338 521.26C785.321 521.26 786.118 520.468 786.118 519.491C786.118 518.513 785.321 517.721 784.338 517.721C783.355 517.721 782.558 518.513 782.558 519.491C782.558 520.468 783.355 521.26 784.338 521.26Z" fill="white"/>
<path opacity="0.5" d="M784.338 536.471C785.321 536.471 786.118 535.679 786.118 534.701C786.118 533.724 785.321 532.932 784.338 532.932C783.355 532.932 782.558 533.724 782.558 534.701C782.558 535.679 783.355 536.471 784.338 536.471Z" fill="white"/>
<path opacity="0.5" d="M784.338 551.692C785.321 551.692 786.118 550.899 786.118 549.922C786.118 548.945 785.321 548.152 784.338 548.152C783.355 548.152 782.558 548.945 782.558 549.922C782.558 550.899 783.355 551.692 784.338 551.692Z" fill="white"/>
<path opacity="0.5" d="M784.338 566.903C785.321 566.903 786.118 566.11 786.118 565.133C786.118 564.156 785.321 563.363 784.338 563.363C783.355 563.363 782.558 564.156 782.558 565.133C782.558 566.11 783.355 566.903 784.338 566.903Z" fill="white"/>
<path opacity="0.5" d="M784.338 582.123C785.321 582.123 786.118 581.331 786.118 580.354C786.118 579.376 785.321 578.584 784.338 578.584C783.355 578.584 782.558 579.376 782.558 580.354C782.558 581.331 783.355 582.123 784.338 582.123Z" fill="white"/>
<path opacity="0.5" d="M784.338 597.334C785.321 597.334 786.118 596.542 786.118 595.565C786.118 594.587 785.321 593.795 784.338 593.795C783.355 593.795 782.558 594.587 782.558 595.565C782.558 596.542 783.355 597.334 784.338 597.334Z" fill="white"/>
<path opacity="0.5" d="M784.338 612.545C783.358 612.545 782.558 611.75 782.558 610.776C782.558 609.801 783.358 609.006 784.338 609.006C785.318 609.006 786.118 609.801 786.118 610.776C786.118 611.76 785.318 612.545 784.338 612.545Z" fill="white"/>
<path opacity="0.5" d="M769.028 506.039C770.011 506.039 770.808 505.247 770.808 504.27C770.808 503.292 770.011 502.5 769.028 502.5C768.045 502.5 767.248 503.292 767.248 504.27C767.248 505.247 768.045 506.039 769.028 506.039Z" fill="white"/>
<path opacity="0.5" d="M769.028 521.26C770.011 521.26 770.808 520.468 770.808 519.491C770.808 518.513 770.011 517.721 769.028 517.721C768.045 517.721 767.248 518.513 767.248 519.491C767.248 520.468 768.045 521.26 769.028 521.26Z" fill="white"/>
<path opacity="0.5" d="M769.028 536.471C770.011 536.471 770.808 535.679 770.808 534.701C770.808 533.724 770.011 532.932 769.028 532.932C768.045 532.932 767.248 533.724 767.248 534.701C767.248 535.679 768.045 536.471 769.028 536.471Z" fill="white"/>
<path opacity="0.5" d="M769.028 551.692C770.011 551.692 770.808 550.899 770.808 549.922C770.808 548.945 770.011 548.152 769.028 548.152C768.045 548.152 767.248 548.945 767.248 549.922C767.248 550.899 768.045 551.692 769.028 551.692Z" fill="white"/>
<path opacity="0.5" d="M769.028 566.903C770.011 566.903 770.808 566.11 770.808 565.133C770.808 564.156 770.011 563.363 769.028 563.363C768.045 563.363 767.248 564.156 767.248 565.133C767.248 566.11 768.045 566.903 769.028 566.903Z" fill="white"/>
<path opacity="0.5" d="M769.028 582.123C770.011 582.123 770.808 581.331 770.808 580.354C770.808 579.376 770.011 578.584 769.028 578.584C768.045 578.584 767.248 579.376 767.248 580.354C767.248 581.331 768.045 582.123 769.028 582.123Z" fill="white"/>
<path opacity="0.5" d="M769.028 597.334C770.011 597.334 770.808 596.542 770.808 595.565C770.808 594.587 770.011 593.795 769.028 593.795C768.045 593.795 767.248 594.587 767.248 595.565C767.248 596.542 768.045 597.334 769.028 597.334Z" fill="white"/>
<path opacity="0.5" d="M769.028 612.545C768.048 612.545 767.248 611.75 767.248 610.776C767.248 609.801 768.048 609.006 769.028 609.006C770.008 609.006 770.808 609.801 770.808 610.776C770.808 611.76 770.008 612.545 769.028 612.545Z" fill="white"/>
</g>
<g opacity="0.5">
<path opacity="0.5" d="M650.168 276.444C650.168 277.419 649.368 278.214 648.388 278.214C647.408 278.214 646.608 277.419 646.608 276.444C646.608 275.47 647.408 274.675 648.388 274.675C649.368 274.675 650.168 275.47 650.168 276.444Z" fill="white"/>
<path opacity="0.5" d="M665.478 276.444C665.478 277.419 664.678 278.214 663.698 278.214C662.718 278.214 661.918 277.419 661.918 276.444C661.918 275.47 662.718 274.675 663.698 274.675C664.678 274.685 665.478 275.47 665.478 276.444Z" fill="white"/>
<path opacity="0.5" d="M680.779 276.444C680.779 277.419 679.979 278.214 678.999 278.214C678.019 278.214 677.219 277.419 677.219 276.444C677.219 275.47 678.019 274.675 678.999 274.675C679.979 274.675 680.779 275.47 680.779 276.444Z" fill="white"/>
<path opacity="0.5" d="M650.168 291.665C650.168 292.64 649.368 293.435 648.388 293.435C647.408 293.435 646.608 292.64 646.608 291.665C646.608 290.691 647.408 289.896 648.388 289.896C649.368 289.896 650.168 290.691 650.168 291.665Z" fill="white"/>
<path opacity="0.5" d="M665.478 291.665C665.478 292.64 664.678 293.435 663.698 293.435C662.718 293.435 661.918 292.64 661.918 291.665C661.918 290.691 662.718 289.896 663.698 289.896C664.678 289.896 665.478 290.691 665.478 291.665Z" fill="white"/>
<path opacity="0.5" d="M680.779 291.665C680.779 292.64 679.979 293.435 678.999 293.435C678.019 293.435 677.219 292.64 677.219 291.665C677.219 290.691 678.019 289.896 678.999 289.896C679.979 289.896 680.779 290.691 680.779 291.665Z" fill="white"/>
<path opacity="0.5" d="M650.168 306.876C650.168 307.85 649.368 308.646 648.388 308.646C647.408 308.646 646.608 307.85 646.608 306.876C646.608 305.902 647.408 305.106 648.388 305.106C649.368 305.106 650.168 305.902 650.168 306.876Z" fill="white"/>
<path opacity="0.5" d="M665.478 306.876C665.478 307.85 664.678 308.646 663.698 308.646C662.718 308.646 661.918 307.85 661.918 306.876C661.918 305.902 662.718 305.106 663.698 305.106C664.678 305.116 665.478 305.902 665.478 306.876Z" fill="white"/>
<path opacity="0.5" d="M680.779 306.876C680.779 307.85 679.979 308.646 678.999 308.646C678.019 308.646 677.219 307.85 677.219 306.876C677.219 305.902 678.019 305.106 678.999 305.106C679.979 305.106 680.779 305.902 680.779 306.876Z" fill="white"/>
</g>
<g opacity="0.5">
<path opacity="0.5" d="M507.268 411.642C507.268 412.616 506.468 413.412 505.488 413.412C504.508 413.412 503.708 412.616 503.708 411.642C503.708 410.668 504.508 409.873 505.488 409.873C506.478 409.873 507.268 410.658 507.268 411.642Z" fill="white"/>
<path opacity="0.5" d="M520.798 413.412C521.781 413.412 522.578 412.62 522.578 411.642C522.578 410.665 521.781 409.873 520.798 409.873C519.815 409.873 519.018 410.665 519.018 411.642C519.018 412.62 519.815 413.412 520.798 413.412Z" fill="white"/>
<path opacity="0.5" d="M536.098 413.412C537.081 413.412 537.878 412.62 537.878 411.642C537.878 410.665 537.081 409.873 536.098 409.873C535.115 409.873 534.318 410.665 534.318 411.642C534.318 412.62 535.115 413.412 536.098 413.412Z" fill="white"/>
<path opacity="0.5" d="M507.268 426.853C507.268 427.827 506.468 428.623 505.488 428.623C504.508 428.623 503.708 427.827 503.708 426.853C503.708 425.879 504.508 425.083 505.488 425.083C506.478 425.083 507.268 425.879 507.268 426.853Z" fill="white"/>
<path opacity="0.5" d="M520.798 428.623C521.781 428.623 522.578 427.83 522.578 426.853C522.578 425.876 521.781 425.083 520.798 425.083C519.815 425.083 519.018 425.876 519.018 426.853C519.018 427.83 519.815 428.623 520.798 428.623Z" fill="white"/>
<path opacity="0.5" d="M536.098 428.623C537.081 428.623 537.878 427.83 537.878 426.853C537.878 425.876 537.081 425.083 536.098 425.083C535.115 425.083 534.318 425.876 534.318 426.853C534.318 427.83 535.115 428.623 536.098 428.623Z" fill="white"/>
<path opacity="0.5" d="M507.268 442.074C507.268 443.048 506.468 443.844 505.488 443.844C504.508 443.844 503.708 443.048 503.708 442.074C503.708 441.1 504.508 440.304 505.488 440.304C506.478 440.304 507.268 441.1 507.268 442.074Z" fill="white"/>
<path opacity="0.5" d="M522.578 442.074C522.578 443.048 521.778 443.844 520.798 443.844C519.818 443.844 519.018 443.048 519.018 442.074C519.018 441.1 519.818 440.304 520.798 440.304C521.778 440.304 522.578 441.1 522.578 442.074Z" fill="white"/>
<path opacity="0.5" d="M537.878 442.074C537.878 443.048 537.078 443.844 536.098 443.844C535.118 443.844 534.318 443.048 534.318 442.074C534.318 441.1 535.118 440.304 536.098 440.304C537.088 440.304 537.878 441.1 537.878 442.074Z" fill="white"/>
</g>
<g opacity="0.5">
<path opacity="0.5" d="M793.769 217.808L729.289 281.912" stroke="#4527A0" stroke-width="2.1221" stroke-miterlimit="10"/>
<path opacity="0.5" d="M789.579 213.643L725.099 277.747" stroke="#4527A0" stroke-width="2.1221" stroke-miterlimit="10"/>
<path opacity="0.5" d="M785.389 209.477L720.909 273.581" stroke="#4527A0" stroke-width="2.1221" stroke-miterlimit="10"/>
<path opacity="0.5" d="M781.199 205.311L716.719 269.416" stroke="#4527A0" stroke-width="2.1221" stroke-miterlimit="10"/>
<path opacity="0.5" d="M777.009 201.146L712.529 265.25" stroke="#4527A0" stroke-width="2.1221" stroke-miterlimit="10"/>
<path opacity="0.5" d="M772.819 196.98L708.339 261.084" stroke="#4527A0" stroke-width="2.1221" stroke-miterlimit="10"/>
<path opacity="0.5" d="M768.629 192.814L704.149 256.919" stroke="#4527A0" stroke-width="2.1221" stroke-miterlimit="10"/>
<path opacity="0.5" d="M764.439 188.649L699.959 252.753" stroke="#4527A0" stroke-width="2.1221" stroke-miterlimit="10"/>
<path opacity="0.5" d="M760.25 184.483L695.77 248.588" stroke="#4527A0" stroke-width="2.1221" stroke-miterlimit="10"/>
<path opacity="0.5" d="M756.059 180.318L691.579 244.422" stroke="#4527A0" stroke-width="2.1221" stroke-miterlimit="10"/>
<path opacity="0.5" d="M751.869 176.152L687.389 240.256" stroke="#4527A0" stroke-width="2.1221" stroke-miterlimit="10"/>
<path opacity="0.5" d="M747.679 171.996L683.209 236.091" stroke="#4527A0" stroke-width="2.1221" stroke-miterlimit="10"/>
<path opacity="0.5" d="M743.5 167.831L679.02 231.935" stroke="#4527A0" stroke-width="2.1221" stroke-miterlimit="10"/>
<path opacity="0.5" d="M739.309 163.665L674.829 227.77" stroke="#4527A0" stroke-width="2.1221" stroke-miterlimit="10"/>
<path opacity="0.5" d="M735.119 159.5L670.639 223.604" stroke="#4527A0" stroke-width="2.1221" stroke-miterlimit="10"/>
<path opacity="0.5" d="M730.929 155.334L666.449 219.438" stroke="#4527A0" stroke-width="2.1221" stroke-miterlimit="10"/>
<path opacity="0.5" d="M726.739 151.168L662.259 215.273" stroke="#4527A0" stroke-width="2.1221" stroke-miterlimit="10"/>
<path opacity="0.5" d="M722.549 147.003L658.069 211.107" stroke="#4527A0" stroke-width="2.1221" stroke-miterlimit="10"/>
<path opacity="0.5" d="M718.359 142.837L653.879 206.942" stroke="#4527A0" stroke-width="2.1221" stroke-miterlimit="10"/>
<path opacity="0.5" d="M714.169 138.672L649.689 202.776" stroke="#4527A0" stroke-width="2.1221" stroke-miterlimit="10"/>
<path opacity="0.5" d="M709.979 134.506L645.499 198.61" stroke="#4527A0" stroke-width="2.1221" stroke-miterlimit="10"/>
</g>
<g opacity="0.5">
<path opacity="0.5" d="M667.289 736.728L602.819 800.832" stroke="white" stroke-width="2.1221" stroke-miterlimit="10"/>
<path opacity="0.5" d="M663.109 732.562L598.629 796.666" stroke="white" stroke-width="2.1221" stroke-miterlimit="10"/>
<path opacity="0.5" d="M658.919 728.406L594.439 792.501" stroke="white" stroke-width="2.1221" stroke-miterlimit="10"/>
<path opacity="0.5" d="M654.729 724.24L590.249 788.345" stroke="white" stroke-width="2.1221" stroke-miterlimit="10"/>
<path opacity="0.5" d="M650.54 720.075L586.06 784.179" stroke="white" stroke-width="2.1221" stroke-miterlimit="10"/>
<path opacity="0.5" d="M646.349 715.909L581.869 780.014" stroke="white" stroke-width="2.1221" stroke-miterlimit="10"/>
<path opacity="0.5" d="M642.16 711.744L577.68 775.848" stroke="white" stroke-width="2.1221" stroke-miterlimit="10"/>
<path opacity="0.5" d="M637.969 707.578L573.489 771.682" stroke="white" stroke-width="2.1221" stroke-miterlimit="10"/>
<path opacity="0.5" d="M633.779 703.413L569.299 767.517" stroke="white" stroke-width="2.1221" stroke-miterlimit="10"/>
<path opacity="0.5" d="M629.589 699.247L565.109 763.351" stroke="white" stroke-width="2.1221" stroke-miterlimit="10"/>
<path opacity="0.5" d="M625.399 695.082L560.919 759.186" stroke="white" stroke-width="2.1221" stroke-miterlimit="10"/>
<path opacity="0.5" d="M621.209 690.916L556.729 755.02" stroke="white" stroke-width="2.1221" stroke-miterlimit="10"/>
<path opacity="0.5" d="M617.019 686.75L552.539 750.855" stroke="white" stroke-width="2.1221" stroke-miterlimit="10"/>
<path opacity="0.5" d="M612.83 682.585L548.35 746.689" stroke="white" stroke-width="2.1221" stroke-miterlimit="10"/>
<path opacity="0.5" d="M608.639 678.419L544.159 742.523" stroke="white" stroke-width="2.1221" stroke-miterlimit="10"/>
<path opacity="0.5" d="M604.45 674.253L539.97 738.358" stroke="white" stroke-width="2.1221" stroke-miterlimit="10"/>
<path opacity="0.5" d="M600.259 670.088L535.779 734.192" stroke="white" stroke-width="2.1221" stroke-miterlimit="10"/>
<path opacity="0.5" d="M596.07 665.922L531.6 730.027" stroke="white" stroke-width="2.1221" stroke-miterlimit="10"/>
<path opacity="0.5" d="M591.889 661.767L527.409 725.861" stroke="white" stroke-width="2.1221" stroke-miterlimit="10"/>
<path opacity="0.5" d="M587.7 657.601L523.22 721.696" stroke="white" stroke-width="2.1221" stroke-miterlimit="10"/>
<path opacity="0.5" d="M583.509 653.436L519.029 717.54" stroke="white" stroke-width="2.1221" stroke-miterlimit="10"/>
</g>
<g opacity="0.8">
<path opacity="0.8" d="M601.62 297.665C656.668 242.938 656.668 154.208 601.62 99.4805C546.572 44.7534 457.322 44.7535 402.274 99.4806C347.227 154.208 347.227 242.938 402.274 297.665C457.322 352.392 546.572 352.392 601.62 297.665Z" stroke="#E64A19" stroke-width="0.5" stroke-miterlimit="10"/>
<path opacity="0.8" d="M596.6 292.674C648.875 240.703 648.875 156.442 596.6 104.472C544.325 52.5012 459.57 52.5012 407.295 104.472C355.02 156.442 355.02 240.703 407.295 292.674C459.57 344.644 544.325 344.644 596.6 292.674Z" stroke="#E64A19" stroke-width="0.6562" stroke-miterlimit="10"/>
<path opacity="0.8" d="M501.948 324.583C571.95 324.583 628.698 268.165 628.698 198.571C628.698 128.977 571.95 72.5593 501.948 72.5593C431.946 72.5593 375.198 128.977 375.198 198.571C375.198 268.165 431.946 324.583 501.948 324.583Z" stroke="#E64A19" stroke-width="0.8125" stroke-miterlimit="10"/>
<path opacity="0.8" d="M501.949 317.524C568.03 317.524 621.599 264.267 621.599 198.571C621.599 132.875 568.03 79.6177 501.949 79.6177C435.868 79.6177 382.299 132.875 382.299 198.571C382.299 264.267 435.868 317.524 501.949 317.524Z" stroke="#E64A19" stroke-width="0.9688" stroke-miterlimit="10"/>
<path opacity="0.8" d="M581.532 277.693C625.485 233.996 625.485 163.149 581.532 119.452C537.578 75.7552 466.316 75.7552 422.363 119.452C378.41 163.149 378.41 233.996 422.363 277.693C466.316 321.39 537.578 321.39 581.532 277.693Z" stroke="#E64A19" stroke-width="1.125" stroke-miterlimit="10"/>
<path opacity="0.8" d="M576.511 272.702C617.692 231.762 617.692 165.384 576.511 124.443C535.331 83.5029 468.564 83.5029 427.384 124.443C386.204 165.384 386.204 231.762 427.384 272.702C468.564 313.643 535.331 313.643 576.511 272.702Z" stroke="#E64A19" stroke-width="1.2812" stroke-miterlimit="10"/>
<path opacity="0.8" d="M571.49 267.711C609.898 229.527 609.898 167.619 571.49 129.435C533.083 91.2506 470.811 91.2506 432.404 129.435C393.996 167.619 393.996 229.527 432.404 267.711C470.811 305.895 533.082 305.895 571.49 267.711Z" stroke="#E64A19" stroke-width="1.4375" stroke-miterlimit="10"/>
<path opacity="0.8" d="M566.47 262.72C602.105 227.292 602.105 169.853 566.47 134.426C530.835 98.9983 473.059 98.9983 437.424 134.426C401.789 169.853 401.789 227.292 437.424 262.72C473.059 298.147 530.835 298.147 566.47 262.72Z" stroke="#E64A19" stroke-width="1.5938" stroke-miterlimit="10"/>
<path opacity="0.8" d="M585.04 211.919C592.444 166.306 561.252 123.363 515.372 116.003C469.492 108.643 426.298 139.652 418.894 185.265C411.491 230.878 442.682 273.821 488.562 281.181C534.442 288.541 577.637 257.532 585.04 211.919Z" stroke="#E64A19" stroke-width="1.75" stroke-miterlimit="10"/>
<path opacity="0.8" d="M501.948 275.172C544.502 275.172 578.998 240.877 578.998 198.571C578.998 156.265 544.502 121.97 501.948 121.97C459.395 121.97 424.898 156.265 424.898 198.571C424.898 240.877 459.395 275.172 501.948 275.172Z" stroke="#E64A19" stroke-width="1.9062" stroke-miterlimit="10"/>
<path opacity="0.8" d="M551.408 247.746C578.725 220.589 578.725 176.557 551.408 149.399C524.091 122.241 479.802 122.241 452.485 149.399C425.168 176.557 425.168 220.588 452.485 247.746C479.802 274.904 524.091 274.904 551.408 247.746Z" stroke="#E64A19" stroke-width="2.0625" stroke-miterlimit="10"/>
<path opacity="0.8" d="M546.382 242.748C570.922 218.351 570.922 178.795 546.382 154.397C521.841 130 482.054 130 457.513 154.397C432.973 178.795 432.973 218.351 457.513 242.748C482.054 267.145 521.841 267.145 546.382 242.748Z" stroke="#E64A19" stroke-width="2.2188" stroke-miterlimit="10"/>
<path opacity="0.8" d="M541.361 237.757C563.129 216.116 563.129 181.029 541.361 159.389C519.594 137.748 484.301 137.748 462.534 159.389C440.766 181.029 440.766 216.116 462.534 237.757C484.301 259.398 519.594 259.398 541.361 237.757Z" stroke="#E64A19" stroke-width="2.375" stroke-miterlimit="10"/>
<path opacity="0.8" d="M536.34 232.766C555.335 213.881 555.335 183.264 536.34 164.38C517.345 145.495 486.548 145.496 467.553 164.38C448.559 183.264 448.559 213.881 467.554 232.766C486.548 251.65 517.345 251.65 536.34 232.766Z" stroke="#E64A19" stroke-width="2.5312" stroke-miterlimit="10"/>
<path opacity="0.8" d="M543.189 203.406C545.877 180.755 529.587 160.226 506.804 157.553C484.02 154.88 463.371 171.075 460.682 193.726C457.993 216.377 474.283 236.906 497.067 239.579C519.85 242.252 540.5 226.057 543.189 203.406Z" stroke="#E64A19" stroke-width="2.6875" stroke-miterlimit="10"/>
<path opacity="0.8" d="M501.949 232.81C520.969 232.81 536.389 217.481 536.389 198.571C536.389 179.661 520.969 164.331 501.949 164.331C482.928 164.331 467.509 179.661 467.509 198.571C467.509 217.481 482.928 232.81 501.949 232.81Z" stroke="#E64A19" stroke-width="2.8438" stroke-miterlimit="10"/>
<path opacity="0.8" d="M529.223 200.756C530.422 185.793 519.192 172.696 504.141 171.504C489.09 170.312 475.917 181.476 474.718 196.44C473.519 211.403 484.748 224.5 499.799 225.692C514.851 226.884 528.024 215.719 529.223 200.756Z" stroke="#E64A19" stroke-width="3" stroke-miterlimit="10"/>
</g>
<g opacity="0.79">
<path opacity="0.79" d="M723.811 516.257C759.828 480.449 759.828 422.393 723.811 386.585C687.793 350.777 629.397 350.777 593.379 386.585C557.361 422.393 557.361 480.449 593.379 516.257C629.397 552.064 687.793 552.064 723.811 516.257Z" stroke="#6A1B9A" stroke-width="0.5" stroke-miterlimit="10"/>
<path opacity="0.79" d="M719.215 511.687C752.694 478.403 752.694 424.438 719.215 391.154C685.735 357.87 631.454 357.87 597.975 391.154C564.496 424.438 564.496 478.403 597.975 511.687C631.454 544.972 685.735 544.971 719.215 511.687Z" stroke="#6A1B9A" stroke-width="0.7273" stroke-miterlimit="10"/>
<path opacity="0.79" d="M658.599 530.188C702.357 530.188 737.829 494.922 737.829 451.419C737.829 407.917 702.357 372.651 658.599 372.651C614.842 372.651 579.369 407.917 579.369 451.419C579.369 494.922 614.842 530.188 658.599 530.188Z" stroke="#6A1B9A" stroke-width="0.9545" stroke-miterlimit="10"/>
<path opacity="0.79" d="M658.598 523.736C698.772 523.736 731.338 491.359 731.338 451.42C731.338 411.48 698.772 379.103 658.598 379.103C618.425 379.103 585.858 411.48 585.858 451.42C585.858 491.359 618.425 523.736 658.598 523.736Z" stroke="#6A1B9A" stroke-width="1.1818" stroke-miterlimit="10"/>
<path opacity="0.79" d="M658.598 517.273C695.182 517.273 724.838 487.79 724.838 451.419C724.838 415.049 695.182 385.565 658.598 385.565C622.015 385.565 592.358 415.049 592.358 451.419C592.358 487.79 622.015 517.273 658.598 517.273Z" stroke="#6A1B9A" stroke-width="1.4091" stroke-miterlimit="10"/>
<path opacity="0.79" d="M658.598 510.811C691.592 510.811 718.338 484.221 718.338 451.419C718.338 418.618 691.592 392.027 658.598 392.027C625.605 392.027 598.858 418.618 598.858 451.419C598.858 484.221 625.605 510.811 658.598 510.811Z" stroke="#6A1B9A" stroke-width="1.6364" stroke-miterlimit="10"/>
<path opacity="0.79" d="M658.598 504.349C688.002 504.349 711.838 480.652 711.838 451.419C711.838 422.187 688.002 398.49 658.598 398.49C629.195 398.49 605.358 422.187 605.358 451.419C605.358 480.652 629.195 504.349 658.598 504.349Z" stroke="#6A1B9A" stroke-width="1.8636" stroke-miterlimit="10"/>
<path opacity="0.79" d="M658.598 497.887C684.412 497.887 705.338 477.083 705.338 451.419C705.338 425.756 684.412 404.952 658.598 404.952C632.785 404.952 611.858 425.756 611.858 451.419C611.858 477.083 632.785 497.887 658.598 497.887Z" stroke="#6A1B9A" stroke-width="2.0909" stroke-miterlimit="10"/>
<path opacity="0.79" d="M658.598 491.425C680.822 491.425 698.838 473.514 698.838 451.419C698.838 429.325 680.822 411.414 658.598 411.414C636.374 411.414 618.358 429.325 618.358 451.419C618.358 473.514 636.374 491.425 658.598 491.425Z" stroke="#6A1B9A" stroke-width="2.3182" stroke-miterlimit="10"/>
<path opacity="0.79" d="M658.598 484.963C677.232 484.963 692.338 469.945 692.338 451.419C692.338 432.894 677.232 417.876 658.598 417.876C639.964 417.876 624.858 432.894 624.858 451.419C624.858 469.945 639.964 484.963 658.598 484.963Z" stroke="#6A1B9A" stroke-width="2.5454" stroke-miterlimit="10"/>
<path opacity="0.79" d="M658.598 478.501C673.643 478.501 685.838 466.376 685.838 451.419C685.838 436.463 673.643 424.338 658.598 424.338C643.554 424.338 631.358 436.463 631.358 451.419C631.358 466.376 643.554 478.501 658.598 478.501Z" stroke="#6A1B9A" stroke-width="2.7727" stroke-miterlimit="10"/>
<path opacity="0.79" d="M658.598 472.039C670.053 472.039 679.338 462.807 679.338 451.419C679.338 440.032 670.053 430.8 658.598 430.8C647.144 430.8 637.858 440.032 637.858 451.419C637.858 462.807 647.144 472.039 658.598 472.039Z" stroke="#6A1B9A" stroke-width="3" stroke-miterlimit="10"/>
</g>
<g opacity="0.89">
<g opacity="0.89">
<path opacity="0.89" d="M389.439 491.256C434.119 491.256 470.339 455.247 470.339 410.827C470.339 366.408 434.119 330.398 389.439 330.398C344.759 330.398 308.539 366.408 308.539 410.827C308.539 455.247 344.759 491.256 389.439 491.256Z" stroke="#00838F" stroke-width="0.8127" stroke-linecap="round" stroke-linejoin="round"/>
</g>
<g opacity="0.89">
<path opacity="0.89" d="M389.439 485.39C430.861 485.39 464.439 452.007 464.439 410.827C464.439 369.647 430.861 336.264 389.439 336.264C348.018 336.264 314.439 369.647 314.439 410.827C314.439 452.007 348.018 485.39 389.439 485.39Z" stroke="#00838F" stroke-width="0.9493" stroke-linecap="round" stroke-linejoin="round"/>
</g>
<g opacity="0.89">
<path opacity="0.89" d="M389.439 479.525C427.602 479.525 458.539 448.768 458.539 410.827C458.539 372.887 427.602 342.13 389.439 342.13C351.276 342.13 320.339 372.887 320.339 410.827C320.339 448.768 351.276 479.525 389.439 479.525Z" stroke="#00838F" stroke-width="1.0859" stroke-linecap="round" stroke-linejoin="round"/>
</g>
<g opacity="0.89">
<path opacity="0.89" d="M389.439 473.659C424.344 473.659 452.639 445.528 452.639 410.827C452.639 376.126 424.344 347.995 389.439 347.995C354.535 347.995 326.239 376.126 326.239 410.827C326.239 445.528 354.535 473.659 389.439 473.659Z" stroke="#00838F" stroke-width="1.2225" stroke-linecap="round" stroke-linejoin="round"/>
</g>
<g opacity="0.89">
<path opacity="0.89" d="M389.439 467.793C421.085 467.793 446.739 442.289 446.739 410.827C446.739 379.365 421.085 353.861 389.439 353.861C357.793 353.861 332.139 379.365 332.139 410.827C332.139 442.289 357.793 467.793 389.439 467.793Z" stroke="#00838F" stroke-width="1.3591" stroke-linecap="round" stroke-linejoin="round"/>
</g>
<g opacity="0.89">
<path opacity="0.89" d="M389.439 461.928C417.826 461.928 440.839 439.049 440.839 410.827C440.839 382.605 417.826 359.727 389.439 359.727C361.052 359.727 338.039 382.605 338.039 410.827C338.039 439.049 361.052 461.928 389.439 461.928Z" stroke="#00838F" stroke-width="1.4956" stroke-linecap="round" stroke-linejoin="round"/>
</g>
<g opacity="0.89">
<path opacity="0.89" d="M389.439 456.062C414.568 456.062 434.939 435.81 434.939 410.827C434.939 385.844 414.568 365.592 389.439 365.592C364.31 365.592 343.939 385.844 343.939 410.827C343.939 435.81 364.31 456.062 389.439 456.062Z" stroke="#00838F" stroke-width="1.6322" stroke-linecap="round" stroke-linejoin="round"/>
</g>
<g opacity="0.89">
<path opacity="0.89" d="M389.439 450.196C411.309 450.196 429.039 432.57 429.039 410.827C429.039 389.084 411.309 371.458 389.439 371.458C367.568 371.458 349.839 389.084 349.839 410.827C349.839 432.57 367.568 450.196 389.439 450.196Z" stroke="#00838F" stroke-width="1.7688" stroke-linecap="round" stroke-linejoin="round"/>
</g>
<g opacity="0.89">
<path opacity="0.89" d="M389.44 444.341C408.057 444.341 423.15 429.336 423.15 410.827C423.15 392.318 408.057 377.313 389.44 377.313C370.822 377.313 355.729 392.318 355.729 410.827C355.729 429.336 370.822 444.341 389.44 444.341Z" stroke="#00838F" stroke-width="1.9054" stroke-linecap="round" stroke-linejoin="round"/>
</g>
<g opacity="0.89">
<path opacity="0.89" d="M389.439 438.475C404.798 438.475 417.249 426.097 417.249 410.827C417.249 395.558 404.798 383.179 389.439 383.179C374.08 383.179 361.629 395.558 361.629 410.827C361.629 426.097 374.08 438.475 389.439 438.475Z" stroke="#00838F" stroke-width="2.042" stroke-linecap="round" stroke-linejoin="round"/>
</g>
<g opacity="0.89">
<path opacity="0.89" d="M389.439 432.609C401.54 432.609 411.349 422.857 411.349 410.827C411.349 398.797 401.54 389.045 389.439 389.045C377.339 389.045 367.529 398.797 367.529 410.827C367.529 422.857 377.339 432.609 389.439 432.609Z" stroke="#00838F" stroke-width="2.1786" stroke-linecap="round" stroke-linejoin="round"/>
</g>
<g opacity="0.89">
<path opacity="0.89" d="M389.439 426.744C398.281 426.744 405.449 419.617 405.449 410.827C405.449 402.036 398.281 394.91 389.439 394.91C380.597 394.91 373.429 402.036 373.429 410.827C373.429 419.617 380.597 426.744 389.439 426.744Z" stroke="#00838F" stroke-width="2.3152" stroke-linecap="round" stroke-linejoin="round"/>
</g>
</g>
<g opacity="0.81">
<g opacity="0.81">
<path opacity="0.81" d="M1064.97 323.199C1123.52 264.997 1123.52 170.633 1064.97 112.431C1006.43 54.2294 911.514 54.2294 852.971 112.431C794.428 170.633 794.428 264.997 852.971 323.199C911.514 381.401 1006.43 381.401 1064.97 323.199Z" stroke="#1565C0" stroke-width="1.0531" stroke-linecap="round" stroke-linejoin="round"/>
</g>
<g opacity="0.81">
<path opacity="0.81" d="M958.979 361.148C1038.61 361.148 1103.16 296.973 1103.16 217.808C1103.16 138.644 1038.61 74.468 958.979 74.468C879.35 74.468 814.799 138.644 814.799 217.808C814.799 296.973 879.35 361.148 958.979 361.148Z" stroke="#1565C0" stroke-width="1.1458" stroke-linecap="round" stroke-linejoin="round"/>
</g>
<g opacity="0.81">
<path opacity="0.81" d="M1056.88 315.15C1110.95 261.393 1110.95 174.237 1056.88 120.48C1002.81 66.7239 915.139 66.7239 861.067 120.48C806.996 174.237 806.996 261.393 861.067 315.15C915.139 368.906 1002.81 368.906 1056.88 315.15Z" stroke="#1565C0" stroke-width="1.2385" stroke-linecap="round" stroke-linejoin="round"/>
</g>
<g opacity="0.81">
<path opacity="0.81" d="M958.978 349.765C1032.28 349.765 1091.71 290.686 1091.71 217.808C1091.71 144.93 1032.28 85.8513 958.978 85.8513C885.673 85.8513 826.248 144.93 826.248 217.808C826.248 290.686 885.673 349.765 958.978 349.765Z" stroke="#1565C0" stroke-width="1.3312" stroke-linecap="round" stroke-linejoin="round"/>
</g>
<g opacity="0.81">
<path opacity="0.81" d="M958.979 344.078C1029.12 344.078 1085.99 287.545 1085.99 217.808C1085.99 148.071 1029.12 91.5378 958.979 91.5378C888.833 91.5378 831.969 148.071 831.969 217.808C831.969 287.545 888.833 344.078 958.979 344.078Z" stroke="#1565C0" stroke-width="1.4239" stroke-linecap="round" stroke-linejoin="round"/>
</g>
<g opacity="0.81">
<path opacity="0.81" d="M958.978 338.382C1025.96 338.382 1080.26 284.399 1080.26 217.808C1080.26 151.217 1025.96 97.2346 958.978 97.2346C891.997 97.2346 837.698 151.217 837.698 217.808C837.698 284.399 891.997 338.382 958.978 338.382Z" stroke="#1565C0" stroke-width="1.5166" stroke-linecap="round" stroke-linejoin="round"/>
</g>
<g opacity="0.81">
<path opacity="0.81" d="M958.979 332.685C1022.8 332.685 1074.53 281.253 1074.53 217.808C1074.53 154.364 1022.8 102.931 958.979 102.931C895.162 102.931 843.429 154.364 843.429 217.808C843.429 281.253 895.162 332.685 958.979 332.685Z" stroke="#1565C0" stroke-width="1.6093" stroke-linecap="round" stroke-linejoin="round"/>
</g>
<g opacity="0.81">
<path opacity="0.81" d="M958.978 326.998C1019.64 326.998 1068.81 278.112 1068.81 217.808C1068.81 157.504 1019.64 108.618 958.978 108.618C898.321 108.618 849.148 157.504 849.148 217.808C849.148 278.112 898.321 326.998 958.978 326.998Z" stroke="#1565C0" stroke-width="1.702" stroke-linecap="round" stroke-linejoin="round"/>
</g>
<g opacity="0.81">
<path opacity="0.81" d="M958.978 321.302C1016.47 321.302 1063.08 274.966 1063.08 217.808C1063.08 160.65 1016.47 114.314 958.978 114.314C901.485 114.314 854.878 160.65 854.878 217.808C854.878 274.966 901.485 321.302 958.978 321.302Z" stroke="#1565C0" stroke-width="1.7948" stroke-linecap="round" stroke-linejoin="round"/>
</g>
<g opacity="0.81">
<path opacity="0.81" d="M958.979 315.615C1013.31 315.615 1057.36 271.825 1057.36 217.808C1057.36 163.791 1013.31 120.001 958.979 120.001C904.645 120.001 860.599 163.791 860.599 217.808C860.599 271.825 904.645 315.615 958.979 315.615Z" stroke="#1565C0" stroke-width="1.8875" stroke-linecap="round" stroke-linejoin="round"/>
</g>
<g opacity="0.81">
<path opacity="0.81" d="M958.978 309.918C1010.15 309.918 1051.63 268.679 1051.63 217.808C1051.63 166.937 1010.15 125.698 958.978 125.698C907.809 125.698 866.328 166.937 866.328 217.808C866.328 268.679 907.809 309.918 958.978 309.918Z" stroke="#1565C0" stroke-width="1.9802" stroke-linecap="round" stroke-linejoin="round"/>
</g>
<g opacity="0.81">
<path opacity="0.81" d="M958.979 304.222C1006.98 304.222 1045.9 265.533 1045.9 217.808C1045.9 170.083 1006.98 131.395 958.979 131.395C910.974 131.395 872.059 170.083 872.059 217.808C872.059 265.533 910.974 304.222 958.979 304.222Z" stroke="#1565C0" stroke-width="2.0729" stroke-linecap="round" stroke-linejoin="round"/>
</g>
<g opacity="0.81">
<path opacity="0.81" d="M961.896 298.537C1006.71 296.949 1041.75 259.542 1040.16 214.984C1038.56 170.427 1000.93 135.592 956.114 137.18C911.296 138.767 876.257 176.174 877.854 220.732C879.45 265.29 917.077 300.124 961.896 298.537Z" stroke="#1565C0" stroke-width="2.1656" stroke-linecap="round" stroke-linejoin="round"/>
</g>
<g opacity="0.81">
<path opacity="0.81" d="M958.978 292.838C1000.66 292.838 1034.45 259.246 1034.45 217.808C1034.45 176.37 1000.66 142.778 958.978 142.778C917.297 142.778 883.508 176.37 883.508 217.808C883.508 259.246 917.297 292.838 958.978 292.838Z" stroke="#1565C0" stroke-width="2.2583" stroke-linecap="round" stroke-linejoin="round"/>
</g>
<g opacity="0.81">
<path opacity="0.81" d="M961.488 287.16C999.987 285.797 1030.08 253.664 1028.71 215.389C1027.34 177.115 995.02 147.192 956.522 148.556C918.023 149.919 887.925 182.052 889.297 220.327C890.668 258.601 922.989 288.523 961.488 287.16Z" stroke="#1565C0" stroke-width="2.351" stroke-linecap="round" stroke-linejoin="round"/>
</g>
<g opacity="0.81">
<path opacity="0.81" d="M958.978 281.455C994.335 281.455 1023 252.96 1023 217.808C1023 182.657 994.335 154.161 958.978 154.161C923.621 154.161 894.958 182.657 894.958 217.808C894.958 252.96 923.621 281.455 958.978 281.455Z" stroke="#1565C0" stroke-width="2.4437" stroke-linecap="round" stroke-linejoin="round"/>
</g>
<g opacity="0.81">
<path opacity="0.81" d="M961.08 275.773C993.253 274.634 1018.41 247.78 1017.26 215.794C1016.11 183.809 989.103 158.802 956.93 159.942C924.757 161.081 899.604 187.935 900.75 219.921C901.896 251.907 928.907 276.913 961.08 275.773Z" stroke="#1565C0" stroke-width="2.5364" stroke-linecap="round" stroke-linejoin="round"/>
</g>
<g opacity="0.81">
<path opacity="0.81" d="M958.978 270.072C988.012 270.072 1011.55 246.673 1011.55 217.808C1011.55 188.944 988.012 165.544 958.978 165.544C929.945 165.544 906.408 188.944 906.408 217.808C906.408 246.673 929.945 270.072 958.978 270.072Z" stroke="#1565C0" stroke-width="2.6292" stroke-linecap="round" stroke-linejoin="round"/>
</g>
<g opacity="0.81">
<path opacity="0.81" d="M960.672 264.397C986.526 263.482 1006.74 241.903 1005.82 216.2C1004.9 190.497 983.191 170.403 957.337 171.319C931.484 172.234 911.272 193.813 912.193 219.516C913.114 245.219 934.819 265.313 960.672 264.397Z" stroke="#1565C0" stroke-width="2.7219" stroke-linecap="round" stroke-linejoin="round"/>
</g>
<g opacity="0.81">
<path opacity="0.81" d="M958.978 258.689C981.688 258.689 1000.1 240.386 1000.1 217.808C1000.1 195.231 981.688 176.928 958.978 176.928C936.268 176.928 917.858 195.231 917.858 217.808C917.858 240.386 936.268 258.689 958.978 258.689Z" stroke="#1565C0" stroke-width="2.8146" stroke-linecap="round" stroke-linejoin="round"/>
</g>
<g opacity="0.81">
<path opacity="0.81" d="M960.265 253.021C979.798 252.329 995.069 236.025 994.373 216.606C993.678 197.186 977.278 182.004 957.745 182.695C938.211 183.387 922.94 199.691 923.636 219.111C924.332 238.531 940.731 253.713 960.265 253.021Z" stroke="#1565C0" stroke-width="2.9073" stroke-linecap="round" stroke-linejoin="round"/>
</g>
<g opacity="0.81">
<path opacity="0.81" d="M958.978 247.295C975.359 247.295 988.638 234.093 988.638 217.808C988.638 201.523 975.359 188.321 958.978 188.321C942.598 188.321 929.318 201.523 929.318 217.808C929.318 234.093 942.598 247.295 958.978 247.295Z" stroke="#1565C0" stroke-width="3" stroke-linecap="round" stroke-linejoin="round"/>
</g>
</g>
<g opacity="0.77">
<g opacity="0.77">
<path opacity="0.77" d="M482.789 460.595L343.289 599.283" stroke="#FF4081" stroke-width="2" stroke-miterlimit="10"/>
<path opacity="0.77" d="M490.809 460.595L351.309 599.283" stroke="#FF4081" stroke-width="2" stroke-miterlimit="10"/>
<path opacity="0.77" d="M498.819 460.595L359.319 599.283" stroke="#FF4081" stroke-width="2" stroke-miterlimit="10"/>
<path opacity="0.77" d="M506.839 460.595L367.339 599.283" stroke="#FF4081" stroke-width="2" stroke-miterlimit="10"/>
<path opacity="0.77" d="M514.859 460.595L375.359 599.283" stroke="#FF4081" stroke-width="2" stroke-miterlimit="10"/>
<path opacity="0.77" d="M522.879 460.595L383.379 599.283" stroke="#FF4081" stroke-width="2" stroke-miterlimit="10"/>
<path opacity="0.77" d="M530.889 460.595L391.389 599.283" stroke="#FF4081" stroke-width="2" stroke-miterlimit="10"/>
<path opacity="0.77" d="M538.909 460.595L399.409 599.283" stroke="#FF4081" stroke-width="2" stroke-miterlimit="10"/>
<path opacity="0.77" d="M546.929 460.595L407.429 599.283" stroke="#FF4081" stroke-width="2" stroke-miterlimit="10"/>
<path opacity="0.77" d="M554.949 460.595L415.449 599.283" stroke="#FF4081" stroke-width="2" stroke-miterlimit="10"/>
<path opacity="0.77" d="M562.959 460.595L423.459 599.283" stroke="#FF4081" stroke-width="2" stroke-miterlimit="10"/>
<path opacity="0.77" d="M570.98 460.595L431.479 599.283" stroke="#FF4081" stroke-width="2" stroke-miterlimit="10"/>
<path opacity="0.77" d="M578.999 460.595L439.499 599.283" stroke="#FF4081" stroke-width="2" stroke-miterlimit="10"/>
<path opacity="0.77" d="M587.009 460.595L447.509 599.283" stroke="#FF4081" stroke-width="2" stroke-miterlimit="10"/>
<path opacity="0.77" d="M595.029 460.595L455.529 599.283" stroke="#FF4081" stroke-width="2" stroke-miterlimit="10"/>
<path opacity="0.77" d="M603.049 460.595L463.549 599.283" stroke="#FF4081" stroke-width="2" stroke-miterlimit="10"/>
<path opacity="0.77" d="M611.069 460.595L471.569 599.283" stroke="#FF4081" stroke-width="2" stroke-miterlimit="10"/>
<path opacity="0.77" d="M619.079 460.595L479.579 599.283" stroke="#FF4081" stroke-width="2" stroke-miterlimit="10"/>
<path opacity="0.77" d="M627.099 460.595L487.599 599.283" stroke="#FF4081" stroke-width="2" stroke-miterlimit="10"/>
<path opacity="0.77" d="M635.119 460.595L495.619 599.283" stroke="#FF4081" stroke-width="2" stroke-miterlimit="10"/>
<path opacity="0.77" d="M643.129 460.595L503.629 599.283" stroke="#FF4081" stroke-width="2" stroke-miterlimit="10"/>
<path opacity="0.77" d="M651.149 460.595L511.649 599.283" stroke="#FF4081" stroke-width="2" stroke-miterlimit="10"/>
<path opacity="0.77" d="M659.169 460.595L519.669 599.283" stroke="#FF4081" stroke-width="2" stroke-miterlimit="10"/>
<path opacity="0.77" d="M667.189 460.595L527.689 599.283" stroke="#FF4081" stroke-width="2" stroke-miterlimit="10"/>
<path opacity="0.77" d="M675.199 460.595L535.699 599.283" stroke="#FF4081" stroke-width="2" stroke-miterlimit="10"/>
<path opacity="0.77" d="M683.219 460.595L543.719 599.283" stroke="#FF4081" stroke-width="2" stroke-miterlimit="10"/>
<path opacity="0.77" d="M691.239 460.595L551.739 599.283" stroke="#FF4081" stroke-width="2" stroke-miterlimit="10"/>
<path opacity="0.77" d="M699.259 460.595L559.759 599.283" stroke="#FF4081" stroke-width="2" stroke-miterlimit="10"/>
<path opacity="0.77" d="M707.27 460.595L567.77 599.283" stroke="#FF4081" stroke-width="2" stroke-miterlimit="10"/>
<path opacity="0.77" d="M715.289 460.595L575.789 599.283" stroke="#FF4081" stroke-width="2" stroke-miterlimit="10"/>
</g>
</g>
<g opacity="0.81">
<g opacity="0.81">
<path opacity="0.81" d="M867.728 557.557L536.658 886.699" stroke="#00838F" stroke-width="2" stroke-miterlimit="10"/>
<path opacity="0.81" d="M875.648 557.557L544.578 886.699" stroke="#00838F" stroke-width="2" stroke-miterlimit="10"/>
<path opacity="0.81" d="M883.578 557.557L552.498 886.699" stroke="#00838F" stroke-width="2" stroke-miterlimit="10"/>
<path opacity="0.81" d="M891.498 557.557L560.428 886.699" stroke="#00838F" stroke-width="2" stroke-miterlimit="10"/>
<path opacity="0.81" d="M899.419 557.557L568.349 886.699" stroke="#00838F" stroke-width="2" stroke-miterlimit="10"/>
<path opacity="0.81" d="M907.349 557.557L576.269 886.699" stroke="#00838F" stroke-width="2" stroke-miterlimit="10"/>
<path opacity="0.81" d="M915.268 557.557L584.198 886.699" stroke="#00838F" stroke-width="2" stroke-miterlimit="10"/>
<path opacity="0.81" d="M923.188 557.557L592.118 886.699" stroke="#00838F" stroke-width="2" stroke-miterlimit="10"/>
<path opacity="0.81" d="M931.118 557.557L600.048 886.699" stroke="#00838F" stroke-width="2" stroke-miterlimit="10"/>
<path opacity="0.81" d="M939.038 557.557L607.968 886.699" stroke="#00838F" stroke-width="2" stroke-miterlimit="10"/>
<path opacity="0.81" d="M946.969 557.557L615.889 886.699" stroke="#00838F" stroke-width="2" stroke-miterlimit="10"/>
<path opacity="0.81" d="M954.888 557.557L623.818 886.699" stroke="#00838F" stroke-width="2" stroke-miterlimit="10"/>
<path opacity="0.81" d="M962.808 557.557L631.738 886.699" stroke="#00838F" stroke-width="2" stroke-miterlimit="10"/>
<path opacity="0.81" d="M970.738 557.557L639.658 886.699" stroke="#00838F" stroke-width="2" stroke-miterlimit="10"/>
<path opacity="0.81" d="M978.658 557.557L647.588 886.699" stroke="#00838F" stroke-width="2" stroke-miterlimit="10"/>
<path opacity="0.81" d="M986.578 557.557L655.508 886.699" stroke="#00838F" stroke-width="2" stroke-miterlimit="10"/>
<path opacity="0.81" d="M994.508 557.557L663.428 886.699" stroke="#00838F" stroke-width="2" stroke-miterlimit="10"/>
<path opacity="0.81" d="M1002.43 557.557L671.358 886.699" stroke="#00838F" stroke-width="2" stroke-miterlimit="10"/>
<path opacity="0.81" d="M1010.35 557.557L679.278 886.699" stroke="#00838F" stroke-width="2" stroke-miterlimit="10"/>
<path opacity="0.81" d="M1018.28 557.557L687.208 886.699" stroke="#00838F" stroke-width="2" stroke-miterlimit="10"/>
<path opacity="0.81" d="M1026.2 557.557L695.128 886.699" stroke="#00838F" stroke-width="2" stroke-miterlimit="10"/>
<path opacity="0.81" d="M1034.13 557.557L703.048 886.699" stroke="#00838F" stroke-width="2" stroke-miterlimit="10"/>
<path opacity="0.81" d="M1042.05 557.557L710.979 886.699" stroke="#00838F" stroke-width="2" stroke-miterlimit="10"/>
<path opacity="0.81" d="M1049.97 557.557L718.898 886.699" stroke="#00838F" stroke-width="2" stroke-miterlimit="10"/>
<path opacity="0.81" d="M1057.9 557.557L726.818 886.699" stroke="#00838F" stroke-width="2" stroke-miterlimit="10"/>
<path opacity="0.81" d="M1065.82 557.557L734.748 886.699" stroke="#00838F" stroke-width="2" stroke-miterlimit="10"/>
<path opacity="0.81" d="M1073.74 557.557L742.668 886.699" stroke="#00838F" stroke-width="2" stroke-miterlimit="10"/>
<path opacity="0.81" d="M1081.67 557.557L750.588 886.699" stroke="#00838F" stroke-width="2" stroke-miterlimit="10"/>
<path opacity="0.81" d="M1089.59 557.557L758.519 886.699" stroke="#00838F" stroke-width="2" stroke-miterlimit="10"/>
<path opacity="0.81" d="M1097.51 557.557L766.438 886.699" stroke="#00838F" stroke-width="2" stroke-miterlimit="10"/>
<path opacity="0.81" d="M1105.44 557.557L774.368 886.699" stroke="#00838F" stroke-width="2" stroke-miterlimit="10"/>
<path opacity="0.81" d="M1113.36 557.557L782.288 886.699" stroke="#00838F" stroke-width="2" stroke-miterlimit="10"/>
<path opacity="0.81" d="M1121.29 557.557L790.208 886.699" stroke="#00838F" stroke-width="2" stroke-miterlimit="10"/>
<path opacity="0.81" d="M1129.21 557.557L798.139 886.699" stroke="#00838F" stroke-width="2" stroke-miterlimit="10"/>
<path opacity="0.81" d="M1137.13 557.557L806.059 886.699" stroke="#00838F" stroke-width="2" stroke-miterlimit="10"/>
<path opacity="0.81" d="M1145.06 557.557L813.979 886.699" stroke="#00838F" stroke-width="2" stroke-miterlimit="10"/>
<path opacity="0.81" d="M1152.98 557.557L821.908 886.699" stroke="#00838F" stroke-width="2" stroke-miterlimit="10"/>
<path opacity="0.81" d="M1160.9 557.557L829.828 886.699" stroke="#00838F" stroke-width="2" stroke-miterlimit="10"/>
<path opacity="0.81" d="M1168.83 557.557L837.748 886.699" stroke="#00838F" stroke-width="2" stroke-miterlimit="10"/>
<path opacity="0.81" d="M1176.75 557.557L845.678 886.699" stroke="#00838F" stroke-width="2" stroke-miterlimit="10"/>
<path opacity="0.81" d="M1184.67 557.557L853.599 886.699" stroke="#00838F" stroke-width="2" stroke-miterlimit="10"/>
<path opacity="0.81" d="M1192.6 557.557L861.528 886.699" stroke="#00838F" stroke-width="2" stroke-miterlimit="10"/>
<path opacity="0.81" d="M1200.52 557.557L869.448 886.699" stroke="#00838F" stroke-width="2" stroke-miterlimit="10"/>
<path opacity="0.81" d="M1208.45 557.557L877.368 886.699" stroke="#00838F" stroke-width="2" stroke-miterlimit="10"/>
<path opacity="0.81" d="M1216.37 557.557L885.298 886.699" stroke="#00838F" stroke-width="2" stroke-miterlimit="10"/>
</g>
</g>
<g opacity="0.72">
<path opacity="0.5" d="M192.976 387.05L36 543.112L192.976 699.173L349.952 543.112L192.976 387.05Z" stroke="#7986CB" stroke-width="50" stroke-miterlimit="10"/>
<path opacity="0.5" d="M958.97 230.991L801.994 387.053L958.97 543.115L1115.95 387.053L958.97 230.991Z" stroke="#FF4081" stroke-width="50" stroke-miterlimit="10"/>
<path opacity="0.5" d="M583.97 601.614L426.994 757.676L583.97 913.738L740.947 757.676L583.97 601.614Z" stroke="#E64A19" stroke-width="30" stroke-miterlimit="10"/>
</g>
<path opacity="0.5" d="M288.679 557.369C303.589 572.192 303.589 596.231 288.679 611.064L122.519 776.256C107.609 791.079 83.4287 791.079 68.5087 776.256C53.5987 761.433 53.5987 737.394 68.5087 722.561L234.669 557.369C249.589 542.545 273.769 542.545 288.679 557.369Z" fill="#F48FB1"/>
<path opacity="0.5" d="M462.898 542.257C479.108 558.373 479.108 584.49 462.898 600.605L291.608 770.887C275.398 787.003 249.128 787.003 232.918 770.887C216.708 754.772 216.708 728.655 232.918 712.539L404.198 542.257C420.408 526.142 446.688 526.142 462.898 542.257Z" fill="#00838F"/>
<path opacity="0.5" d="M456.669 654.36C464.389 662.035 464.389 674.472 456.669 682.137L379.029 759.325C371.309 767 358.799 767 351.089 759.325C343.369 751.65 343.369 739.213 351.089 731.548L428.729 654.36C436.449 646.695 448.959 646.695 456.669 654.36Z" fill="#1565C0"/>
<path opacity="0.5" d="M557.42 710.972C567.74 721.242 567.74 737.885 557.42 748.145L403.13 901.536C392.8 911.806 376.06 911.806 365.74 901.536C355.42 891.266 355.42 874.623 365.74 864.364L520.03 710.972C530.35 700.703 547.09 700.703 557.42 710.972Z" fill="#FF4081"/>
<path opacity="0.5" d="M792.989 448.665C776.779 432.55 776.779 406.433 792.989 390.317L964.269 220.035C980.479 203.919 1006.75 203.919 1022.96 220.035C1039.17 236.15 1039.17 262.267 1022.96 278.383L851.679 448.665C835.469 464.771 809.199 464.771 792.989 448.665Z" fill="#00BFA5"/>
<path opacity="0.5" d="M789.818 307.045C782.098 299.37 782.098 286.933 789.818 279.268L867.458 202.08C875.178 194.405 887.688 194.405 895.398 202.08C903.118 209.755 903.118 222.192 895.398 229.857L817.758 307.045C810.048 314.71 797.538 314.71 789.818 307.045Z" fill="#1565C0"/>
<path opacity="0.5" d="M916.228 449.511C908.508 441.836 908.508 429.398 916.228 421.733L993.868 344.546C1001.59 336.871 1014.1 336.871 1021.81 344.546C1029.53 352.221 1029.53 364.658 1021.81 372.323L944.168 449.511C936.448 457.186 923.938 457.186 916.228 449.511Z" fill="#E64A19"/>
<g opacity="0.49">
<path opacity="0.49" d="M576.36 74.1164C578.614 74.1164 580.44 72.3003 580.44 70.0601C580.44 67.8199 578.614 66.0039 576.36 66.0039C574.107 66.0039 572.28 67.8199 572.28 70.0601C572.28 72.3003 574.107 74.1164 576.36 74.1164Z" stroke="white" stroke-width="2" stroke-miterlimit="10" stroke-linecap="round" stroke-linejoin="round"/>
<path opacity="0.49" d="M855.5 345.486C855.5 347.723 853.67 349.543 851.42 349.543C849.17 349.543 847.34 347.723 847.34 345.486C847.34 343.249 849.17 341.43 851.42 341.43C853.67 341.43 855.5 343.249 855.5 345.486Z" stroke="white" stroke-width="2" stroke-miterlimit="10" stroke-linecap="round" stroke-linejoin="round"/>
<path opacity="0.49" d="M727.92 145.09C727.92 147.327 726.09 149.147 723.84 149.147C721.59 149.147 719.76 147.327 719.76 145.09C719.76 142.854 721.59 141.034 723.84 141.034C726.1 141.034 727.92 142.844 727.92 145.09Z" stroke="white" stroke-width="2" stroke-miterlimit="10" stroke-linecap="round" stroke-linejoin="round"/>
<path opacity="0.49" d="M441.16 277.246C441.16 279.483 439.33 281.302 437.08 281.302C434.83 281.302 433 279.483 433 277.246C433 275.009 434.83 273.19 437.08 273.19C439.34 273.19 441.16 275.009 441.16 277.246Z" stroke="white" stroke-width="2" stroke-miterlimit="10" stroke-linecap="round" stroke-linejoin="round"/>
<path opacity="0.49" d="M482.46 158.383C482.46 160.62 480.63 162.439 478.38 162.439C476.13 162.439 474.3 160.62 474.3 158.383C474.3 156.146 476.13 154.326 478.38 154.326C480.63 154.326 482.46 156.146 482.46 158.383Z" stroke="white" stroke-width="2" stroke-miterlimit="10" stroke-linecap="round" stroke-linejoin="round"/>
<g opacity="0.49">
<path opacity="0.49" d="M804.079 104.807V111.905" stroke="white" stroke-width="2" stroke-miterlimit="10" stroke-linecap="round" stroke-linejoin="round"/>
<path opacity="0.49" d="M807.65 108.356H800.52" stroke="white" stroke-width="2" stroke-miterlimit="10" stroke-linecap="round" stroke-linejoin="round"/>
</g>
<g opacity="0.49">
<path opacity="0.49" d="M1104.12 341.947V349.035" stroke="white" stroke-width="2" stroke-miterlimit="10" stroke-linecap="round" stroke-linejoin="round"/>
<path opacity="0.49" d="M1107.69 345.486H1100.56" stroke="white" stroke-width="2" stroke-miterlimit="10" stroke-linecap="round" stroke-linejoin="round"/>
</g>
<g opacity="0.49">
<path opacity="0.49" d="M600.829 277.723V284.812" stroke="white" stroke-width="2" stroke-miterlimit="10" stroke-linecap="round" stroke-linejoin="round"/>
<path opacity="0.49" d="M604.4 281.263H597.27" stroke="white" stroke-width="2" stroke-miterlimit="10" stroke-linecap="round" stroke-linejoin="round"/>
</g>
<g opacity="0.49">
<g opacity="0.49">
<path opacity="0.49" d="M965.471 426.73V433.819" stroke="white" stroke-width="2" stroke-miterlimit="10" stroke-linecap="round" stroke-linejoin="round"/>
<path opacity="0.49" d="M969.03 430.27H961.9" stroke="white" stroke-width="2" stroke-miterlimit="10" stroke-linecap="round" stroke-linejoin="round"/>
</g>
<g opacity="0.49">
<path opacity="0.49" d="M943.91 426.73V433.819" stroke="white" stroke-width="2" stroke-miterlimit="10" stroke-linecap="round" stroke-linejoin="round"/>
<path opacity="0.49" d="M947.47 430.27H940.34" stroke="white" stroke-width="2" stroke-miterlimit="10" stroke-linecap="round" stroke-linejoin="round"/>
</g>
<g opacity="0.49">
<path opacity="0.49" d="M922.351 426.73V433.819" stroke="white" stroke-width="2" stroke-miterlimit="10" stroke-linecap="round" stroke-linejoin="round"/>
<path opacity="0.49" d="M925.91 430.27H918.78" stroke="white" stroke-width="2" stroke-miterlimit="10" stroke-linecap="round" stroke-linejoin="round"/>
</g>
</g>
<g opacity="0.49">
<g opacity="0.49">
<path opacity="0.49" d="M482.461 109.589V116.677" stroke="white" stroke-width="2" stroke-miterlimit="10" stroke-linecap="round" stroke-linejoin="round"/>
<path opacity="0.49" d="M486.021 113.138H478.891" stroke="white" stroke-width="2" stroke-miterlimit="10" stroke-linecap="round" stroke-linejoin="round"/>
</g>
<g opacity="0.49">
<path opacity="0.49" d="M460.9 109.589V116.677" stroke="white" stroke-width="2" stroke-miterlimit="10" stroke-linecap="round" stroke-linejoin="round"/>
<path opacity="0.49" d="M464.47 113.138H457.33" stroke="white" stroke-width="2" stroke-miterlimit="10" stroke-linecap="round" stroke-linejoin="round"/>
</g>
<g opacity="0.49">
<path opacity="0.49" d="M439.34 109.589V116.677" stroke="white" stroke-width="2" stroke-miterlimit="10" stroke-linecap="round" stroke-linejoin="round"/>
<path opacity="0.49" d="M442.91 113.138H435.78" stroke="white" stroke-width="2" stroke-miterlimit="10" stroke-linecap="round" stroke-linejoin="round"/>
</g>
</g>
<path opacity="0.49" d="M685.62 257.223L691.17 247.669H680.07L685.62 257.223Z" stroke="white" stroke-width="2" stroke-miterlimit="10" stroke-linecap="round" stroke-linejoin="round"/>
<path opacity="0.49" d="M951.04 111.905L945.49 121.459H956.59L951.04 111.905Z" stroke="white" stroke-width="2" stroke-miterlimit="10" stroke-linecap="round" stroke-linejoin="round"/>
<path opacity="0.49" d="M677 401.965C679.42 399.56 683.66 403.775 686.08 401.369C688.5 398.963 684.26 394.748 686.68 392.342C689.1 389.936 693.34 394.151 695.76 391.745C698.18 389.339 693.94 385.124 696.35 382.718C698.77 380.312 703.01 384.528 705.43 382.122C707.85 379.716 703.61 375.501 706.03 373.085C708.45 370.679 712.69 374.894 715.12 372.488" stroke="white" stroke-width="2" stroke-miterlimit="10" stroke-linecap="round" stroke-linejoin="round"/>
<path opacity="0.49" d="M887.79 382.31C890.21 379.905 894.45 384.12 896.87 381.714C899.29 379.308 895.05 375.093 897.47 372.687C899.89 370.281 904.13 374.496 906.55 372.09C908.97 369.684 904.73 365.469 907.14 363.063C909.56 360.657 913.8 364.873 916.22 362.467C918.64 360.061 914.4 355.845 916.82 353.43C919.24 351.024 923.48 355.239 925.91 352.833" stroke="white" stroke-width="2" stroke-miterlimit="10" stroke-linecap="round" stroke-linejoin="round"/>
<path opacity="0.49" d="M899.72 109.41C902.14 107.004 906.38 111.219 908.8 108.813C911.22 106.407 906.98 102.192 909.4 99.7859C911.82 97.38 916.06 101.595 918.48 99.1894C920.9 96.7835 916.66 92.5682 919.07 90.1623C921.49 87.7564 925.73 91.9717 928.15 89.5658C930.57 87.1599 926.33 82.9446 928.75 80.5288C931.17 78.1229 935.41 82.3382 937.84 79.9322" stroke="white" stroke-width="2" stroke-miterlimit="10" stroke-linecap="round" stroke-linejoin="round"/>
</g>
</svg>
