<svg width="42" height="42" viewBox="0 0 42 42" fill="none" xmlns="http://www.w3.org/2000/svg">
<circle cx="21" cy="21" r="20.75" fill="#B02929" stroke="#B02929" stroke-width="0.5"/>
<path d="M10.1782 26.14C9.18884 26.14 8.29284 25.9253 7.49017 25.496C6.69684 25.0573 6.07151 24.4553 5.61417 23.69C5.16617 22.9247 4.94217 22.0613 4.94217 21.1C4.94217 20.1387 5.17084 19.2753 5.62817 18.51C6.08551 17.7447 6.71084 17.1473 7.50417 16.718C8.30684 16.2793 9.20284 16.06 10.1922 16.06C10.9948 16.06 11.7275 16.2 12.3902 16.48C13.0528 16.76 13.6128 17.166 14.0702 17.698L12.8942 18.804C12.1848 18.0387 11.3122 17.656 10.2762 17.656C9.60417 17.656 9.00217 17.8053 8.47017 18.104C7.93817 18.3933 7.52284 18.7993 7.22417 19.322C6.92551 19.8447 6.77617 20.4373 6.77617 21.1C6.77617 21.7627 6.92551 22.3553 7.22417 22.878C7.52284 23.4007 7.93817 23.8113 8.47017 24.11C9.00217 24.3993 9.60417 24.544 10.2762 24.544C11.3122 24.544 12.1848 24.1567 12.8942 23.382L14.0702 24.502C13.6128 25.034 13.0482 25.44 12.3762 25.72C11.7135 26 10.9808 26.14 10.1782 26.14ZM24.816 26L24.802 19.504L21.582 24.88H20.77L17.55 19.588V26H15.814V16.2H17.312L21.204 22.696L25.026 16.2H26.524L26.538 26H24.816ZM32.2231 26.14C31.4671 26.14 30.7345 26.0327 30.0251 25.818C29.3251 25.6033 28.7698 25.3187 28.3591 24.964L28.9891 23.55C29.3905 23.8673 29.8805 24.1287 30.4591 24.334C31.0471 24.53 31.6351 24.628 32.2231 24.628C32.9511 24.628 33.4925 24.5113 33.8471 24.278C34.2111 24.0447 34.3931 23.7367 34.3931 23.354C34.3931 23.074 34.2905 22.8453 34.0851 22.668C33.8891 22.4813 33.6371 22.3367 33.3291 22.234C33.0211 22.1313 32.6011 22.0147 32.0691 21.884C31.3225 21.7067 30.7158 21.5293 30.2491 21.352C29.7918 21.1747 29.3951 20.8993 29.0591 20.526C28.7325 20.1433 28.5691 19.63 28.5691 18.986C28.5691 18.4447 28.7138 17.9547 29.0031 17.516C29.3018 17.068 29.7451 16.7133 30.3331 16.452C30.9305 16.1907 31.6585 16.06 32.5171 16.06C33.1145 16.06 33.7025 16.1347 34.2811 16.284C34.8598 16.4333 35.3591 16.648 35.7791 16.928L35.2051 18.342C34.7758 18.09 34.3278 17.8987 33.8611 17.768C33.3945 17.6373 32.9418 17.572 32.5031 17.572C31.7845 17.572 31.2478 17.6933 30.8931 17.936C30.5478 18.1787 30.3751 18.5007 30.3751 18.902C30.3751 19.182 30.4731 19.4107 30.6691 19.588C30.8745 19.7653 31.1311 19.9053 31.4391 20.008C31.7471 20.1107 32.1671 20.2273 32.6991 20.358C33.4271 20.526 34.0245 20.7033 34.4911 20.89C34.9578 21.0673 35.3545 21.3427 35.6811 21.716C36.0171 22.0893 36.1851 22.5933 36.1851 23.228C36.1851 23.7693 36.0358 24.2593 35.7371 24.698C35.4478 25.1367 35.0045 25.4867 34.4071 25.748C33.8098 26.0093 33.0818 26.14 32.2231 26.14Z" fill="white"/>
</svg>
