<svg width="271" height="64" viewBox="0 0 271 64" fill="none" xmlns="http://www.w3.org/2000/svg">
<mask id="path-1-inside-1" fill="white">
<path fill-rule="evenodd" clip-rule="evenodd" d="M20 4H0V24H1.66665V5.66661H20V4Z"/>
</mask>
<path fill-rule="evenodd" clip-rule="evenodd" d="M20 4H0V24H1.66665V5.66661H20V4Z" fill="black"/>
<path d="M0 4V2H-2V4H0ZM20 4H22V2H20V4ZM0 24H-2V26H0V24ZM1.66665 24V26H3.66665V24H1.66665ZM1.66665 5.66661V3.66661H-0.333347V5.66661H1.66665ZM20 5.66661V7.66661H22V5.66661H20ZM0 6H20V2H0V6ZM2 24V4H-2V24H2ZM1.66665 22H0V26H1.66665V22ZM3.66665 24V5.66661H-0.333347V24H3.66665ZM1.66665 7.66661H20V3.66661H1.66665V7.66661ZM18 4V5.66661H22V4H18Z" fill="black" mask="url(#path-1-inside-1)"/>
<mask id="path-3-inside-2" fill="white">
<path fill-rule="evenodd" clip-rule="evenodd" d="M60 24L60 4L40 4L40 24L60 24ZM58.3334 23.9999L58.3334 5.66661L40.0001 5.66661L40.0001 23.9999L58.3334 23.9999Z"/>
</mask>
<path fill-rule="evenodd" clip-rule="evenodd" d="M60 24L60 4L40 4L40 24L60 24ZM58.3334 23.9999L58.3334 5.66661L40.0001 5.66661L40.0001 23.9999L58.3334 23.9999Z" fill="black"/>
<path d="M60 4L62 4V2L60 2V4ZM60 24V26H62V24H60ZM40 4V2L38 2V4L40 4ZM40 24H38V26H40V24ZM58.3334 5.66661H60.3334V3.66661L58.3334 3.66661V5.66661ZM58.3334 23.9999V25.9999H60.3334V23.9999H58.3334ZM40.0001 5.66661V3.66661L38.0001 3.66661V5.66661L40.0001 5.66661ZM40.0001 23.9999H38.0001V25.9999H40.0001V23.9999ZM58 4L58 24H62L62 4L58 4ZM40 6L60 6V2L40 2V6ZM42 24L42 4L38 4L38 24H42ZM60 22L40 22V26L60 26V22ZM56.3334 5.66661L56.3334 23.9999H60.3334L60.3334 5.66661L56.3334 5.66661ZM40.0001 7.66661L58.3334 7.66661V3.66661L40.0001 3.66661V7.66661ZM42.0001 23.9999L42.0001 5.66661L38.0001 5.66661L38.0001 23.9999H42.0001ZM58.3334 21.9999L40.0001 21.9999V25.9999L58.3334 25.9999V21.9999Z" fill="black" mask="url(#path-3-inside-2)"/>
<mask id="path-5-inside-3" fill="white">
<path fill-rule="evenodd" clip-rule="evenodd" d="M40 64H60V44H58.3334V62.3334H40V64Z"/>
</mask>
<path fill-rule="evenodd" clip-rule="evenodd" d="M40 64H60V44H58.3334V62.3334H40V64Z" fill="black"/>
<path d="M60 64V66H62V64H60ZM40 64H38V66H40V64ZM60 44H62V42H60V44ZM58.3334 44V42H56.3334V44H58.3334ZM58.3334 62.3334V64.3334H60.3334V62.3334H58.3334ZM40 62.3334V60.3334H38V62.3334H40ZM60 62H40V66H60V62ZM58 44V64H62V44H58ZM58.3334 46H60V42H58.3334V46ZM56.3334 44V62.3334H60.3334V44H56.3334ZM58.3334 60.3334H40V64.3334H58.3334V60.3334ZM42 64V62.3334H38V64H42Z" fill="black" mask="url(#path-5-inside-3)"/>
<mask id="path-7-inside-4" fill="white">
<path fill-rule="evenodd" clip-rule="evenodd" d="M0 44L0 64H20V44H0ZM1.66665 44.0001L1.66665 62.3334H20V44.0001H1.66665Z"/>
</mask>
<path fill-rule="evenodd" clip-rule="evenodd" d="M0 44L0 64H20V44H0ZM1.66665 44.0001L1.66665 62.3334H20V44.0001H1.66665Z" fill="black"/>
<path d="M0 64H-2V66H0L0 64ZM0 44L0 42H-2V44H0ZM20 64V66H22V64H20ZM20 44H22V42H20V44ZM1.66665 62.3334H-0.333347L-0.333347 64.3334H1.66665V62.3334ZM1.66665 44.0001V42.0001H-0.333347L-0.333347 44.0001H1.66665ZM20 62.3334V64.3334H22V62.3334H20ZM20 44.0001H22V42.0001H20V44.0001ZM2 64L2 44H-2L-2 64H2ZM20 62H0L0 66H20V62ZM18 44V64H22V44H18ZM0 46H20V42H0L0 46ZM3.66665 62.3334L3.66665 44.0001H-0.333347L-0.333347 62.3334H3.66665ZM20 60.3334H1.66665L1.66665 64.3334H20V60.3334ZM18 44.0001V62.3334H22V44.0001H18ZM1.66665 46.0001H20V42.0001H1.66665L1.66665 46.0001Z" fill="black" mask="url(#path-7-inside-4)"/>
<path d="M11.9722 15.4722H15.2499V18.7499H11.9722V15.4722Z" fill="black"/>
<path d="M11.9722 23.6665H15.2499V26.9443H11.9722V23.6665Z" fill="black"/>
<path d="M11.9722 31.8613H15.2499V35.1391H11.9722V31.8613Z" fill="black"/>
<path d="M20.1665 15.4722H23.4443V18.7499H20.1665V15.4722Z" fill="black"/>
<path d="M20.1665 23.6665H23.4443V26.9443H20.1665V23.6665Z" fill="black"/>
<path d="M20.1665 31.8613H23.4443V35.1391H20.1665V31.8613Z" fill="black"/>
<path d="M28.3611 15.4722H31.6389V18.7499H28.3611V15.4722Z" fill="black"/>
<path d="M28.3611 23.6665H31.6389V26.9443H28.3611V23.6665Z" fill="black"/>
<path d="M28.3611 31.8613H31.6389V35.1391H28.3611V31.8613Z" fill="black"/>
<rect x="11.9722" y="40.0557" width="3.27778" height="3.27778" fill="black"/>
<rect x="11.9722" y="48.25" width="3.27778" height="3.27778" fill="black"/>
<rect width="3.27778" height="3.27778" transform="matrix(1 0 0 -1 20.1665 43.3335)" fill="black"/>
<rect x="20.1665" y="48.25" width="3.27778" height="3.27778" fill="black"/>
<rect x="28.3611" y="40.0557" width="3.27778" height="3.27778" fill="black"/>
<rect x="28.3611" y="48.25" width="3.27778" height="3.27778" fill="black"/>
<rect x="36.5557" y="15.4722" width="3.27778" height="3.27778" fill="black"/>
<rect x="44.75" y="15.4722" width="3.27778" height="3.27778" fill="black"/>
<rect x="36.5557" y="23.6665" width="3.27778" height="3.27778" fill="black"/>
<rect x="44.75" y="23.6665" width="3.27778" height="3.27778" fill="black"/>
<rect x="36.5557" y="31.8613" width="3.27778" height="3.27778" fill="black"/>
<rect x="44.75" y="31.8613" width="3.27778" height="3.27778" fill="black"/>
<rect x="36.5557" y="40.0557" width="3.27778" height="3.27778" fill="black"/>
<rect x="36.5557" y="48.25" width="3.27778" height="3.27778" fill="black"/>
<rect x="44.75" y="40.0557" width="3.27778" height="3.27778" fill="black"/>
<path d="M44.75 48.25H48.0278V51.5278H44.75V48.25Z" fill="black"/>
<path d="M74.056 8H76.808C81.8 8 85.64 9.32266 88.328 11.968C91.0587 14.6133 92.424 18.3893 92.424 23.296C92.424 26.112 91.7413 28.6933 90.376 31.04C89.0533 33.3867 87.24 35.2427 84.936 36.608C82.632 37.9307 80.0933 38.592 77.32 38.592H76.872L93.384 56H90.632L76.104 40.768V56H74.056V8ZM77.256 36.736C79.688 36.736 81.9067 36.1387 83.912 34.944C85.9173 33.7493 87.496 32.1493 88.648 30.144C89.8 28.096 90.376 25.8347 90.376 23.36C90.376 19.0507 89.2027 15.7227 86.856 13.376C84.552 11.0293 81.2453 9.856 76.936 9.856H76.104V36.736H77.256ZM114.894 57.28C112.12 57.28 109.646 56.704 107.47 55.552C105.294 54.3573 103.587 52.672 102.35 50.496C101.112 48.32 100.494 45.7813 100.494 42.88V8H102.606V42.816C102.606 45.376 103.139 47.616 104.206 49.536C105.272 51.4133 106.723 52.864 108.558 53.888C110.435 54.912 112.526 55.424 114.83 55.424C117.134 55.424 119.203 54.9333 121.038 53.952C122.915 52.928 124.366 51.4773 125.39 49.6C126.456 47.68 126.99 45.4187 126.99 42.816V8H129.102V42.752C129.102 45.696 128.504 48.2773 127.31 50.496C126.115 52.672 124.43 54.3573 122.254 55.552C120.12 56.704 117.667 57.28 114.894 57.28ZM139.244 8H141.292C144.662 8 147.137 8.78933 148.716 10.368C150.294 11.904 151.083 14.1867 151.083 17.216C151.083 18.9653 150.572 20.6507 149.548 22.272C148.524 23.8507 147.286 24.9173 145.836 25.472C149.505 26.0693 152.342 27.6053 154.348 30.08C156.353 32.5547 157.356 35.7973 157.356 39.808C157.356 43.008 156.652 45.8453 155.244 48.32C153.836 50.752 151.894 52.6507 149.42 54.016C146.988 55.3387 144.278 56 141.292 56H139.244V8ZM141.804 24.896C143.852 24.896 145.58 24.1493 146.988 22.656C148.396 21.1627 149.1 19.328 149.1 17.152C149.1 14.72 148.502 12.8853 147.308 11.648C146.156 10.4107 144.321 9.792 141.804 9.792H141.292V24.896H141.804ZM141.804 54.208C144.321 54.208 146.604 53.6107 148.652 52.416C150.7 51.1787 152.321 49.472 153.516 47.296C154.71 45.12 155.308 42.6667 155.308 39.936C155.308 35.5413 154.134 32.2347 151.788 30.016C149.484 27.7547 146.156 26.624 141.804 26.624H141.292V54.208H141.804ZM165.376 8H167.488V56H165.376V8ZM192.331 57.28C189.558 57.28 187.083 56.704 184.907 55.552C182.731 54.3573 181.024 52.672 179.787 50.496C178.55 48.32 177.931 45.7813 177.931 42.88V8H180.043V42.816C180.043 45.376 180.576 47.616 181.643 49.536C182.71 51.4133 184.16 52.864 185.995 53.888C187.872 54.912 189.963 55.424 192.267 55.424C194.571 55.424 196.64 54.9333 198.475 53.952C200.352 52.928 201.803 51.4773 202.827 49.6C203.894 47.68 204.427 45.4187 204.427 42.816V8H206.539V42.752C206.539 45.696 205.942 48.2773 204.747 50.496C203.552 52.672 201.867 54.3573 199.691 55.552C197.558 56.704 195.104 57.28 192.331 57.28ZM265.897 8V56H263.785V11.072L241.129 56.896L218.601 10.496V56H216.489V8H219.497L241.129 52.544L262.953 8H265.897Z" fill="black"/>
</svg>
