<svg width="42" height="42" viewBox="0 0 42 42" fill="none" xmlns="http://www.w3.org/2000/svg">
<path d="M42 21C42 25.1534 40.7684 29.2135 38.4609 32.667C36.1534 36.1204 32.8736 38.812 29.0363 40.4015C25.1991 41.9909 20.9767 42.4068 16.9031 41.5965C12.8295 40.7862 9.08766 38.7861 6.15076 35.8492C3.21386 32.9123 1.21381 29.1705 0.403519 25.0969C-0.406771 21.0233 0.00909858 16.8009 1.59854 12.9636C3.18798 9.1264 5.8796 5.84664 9.33303 3.53913C12.7865 1.23163 16.8466 7.80075e-07 21 7.80075e-07C23.758 -0.000751018 26.4891 0.541913 29.0372 1.597C31.5854 2.65208 33.9007 4.1989 35.8509 6.14908C37.8011 8.09926 39.3479 10.4146 40.403 12.9628C41.4581 15.5109 42.0008 18.242 42 21Z" fill="#D20F11"/>
<path d="M11.839 10.8433V18.0473C12.301 17.4401 12.8961 16.9468 13.5786 16.6056C14.2611 16.2644 15.0127 16.0842 15.7757 16.079C16.5059 16.0677 17.2294 16.2202 17.8929 16.5253C18.4625 16.771 18.9549 17.1665 19.3177 17.6697C19.6385 18.1311 19.8624 18.6528 19.9757 19.2032C20.116 20.0636 20.1754 20.9353 20.1531 21.8067V29.5086H16.7199V22.5678C16.7673 21.6898 16.7039 20.8092 16.5311 19.9471C16.4068 19.585 16.1651 19.2748 15.8444 19.0659C15.4774 18.8332 15.0484 18.7175 14.6142 18.734C14.0803 18.7266 13.5557 18.8736 13.1035 19.1574C12.6498 19.4599 12.3128 19.9079 12.1479 20.4277C11.9052 21.238 11.8008 22.0833 11.839 22.9283V29.5086H8.43433V10.8433H11.8676H11.839Z" fill="white"/>
<path d="M25.2572 10.8433V18.0473C25.7192 17.4401 26.3144 16.9468 26.9968 16.6056C27.6793 16.2644 28.431 16.0842 29.194 16.079C29.926 16.068 30.6513 16.2204 31.3169 16.5253C31.8844 16.7719 32.3747 17.1673 32.736 17.6697C33.0568 18.1311 33.2806 18.6528 33.394 19.2032C33.5342 20.0636 33.5936 20.9353 33.5714 21.8067V29.5086H30.1668V22.5678C30.2134 21.6895 30.1481 20.8088 29.9722 19.9471C29.848 19.585 29.6063 19.2748 29.2856 19.0659C28.9187 18.8329 28.4896 18.7171 28.0553 18.734C27.5215 18.7266 26.9969 18.8736 26.5447 19.1574C26.0846 19.4584 25.7398 19.9061 25.5662 20.4277C25.3276 21.2388 25.2232 22.0835 25.2572 22.9283V29.5086H21.824V10.8433H25.2572Z" fill="white"/>
</svg>
