<svg width="182" height="59" viewBox="0 0 182 59" fill="none" xmlns="http://www.w3.org/2000/svg">
<path d="M25.84 0.887207L27.6649 1.94078V4.04792L25.84 5.10149L24.0152 4.04792V1.94078L25.84 0.887207Z" fill="url(#paint0_radial)"/>
<path d="M25.8403 1.33081L27.2809 2.16258V3.82611L25.8403 4.65787L24.3996 3.82611V2.16258L25.8403 1.33081Z" fill="url(#paint1_linear)"/>
<path d="M1.55273 16.8572L25.5446 3.00546L1.88544 17.4334L1.55273 16.8572Z" fill="url(#paint2_linear)"/>
<path d="M2.10714 14.8611L3.93198 15.9147V18.0218L2.10714 19.0754L0.282303 18.0218V15.9147L2.10714 14.8611Z" fill="url(#paint3_linear)"/>
<path d="M2.10713 15.3047L3.5478 16.1365V17.8L2.10713 18.6318L0.666474 17.8V16.1365L2.10713 15.3047Z" fill="url(#paint4_linear)"/>
<path d="M48.5751 44.3608V43.0422L30.3872 32.6052L48.5751 44.3608Z" fill="url(#paint5_linear)"/>
<path d="M48.2424 41.6992L50.0672 42.7528V44.8599L48.2424 45.9135L46.4176 44.8599V42.7528L48.2424 41.6992Z" fill="url(#paint6_linear)"/>
<path d="M48.2426 42.1428L49.6833 42.9746V44.6381L48.2426 45.4699L46.802 44.6381V42.9746L48.2426 42.1428Z" fill="url(#paint7_linear)"/>
<path d="M1.99634 43.6953L2.10724 22.1803L2.43995 43.6953H1.99634Z" fill="url(#paint8_linear)"/>
<path d="M2.24561 44.0132L32.1122 42.184L2.21802 43.4867L2.24561 44.0132Z" fill="url(#paint9_linear)"/>
<path d="M2.55074 41.2556L4.37558 42.3092V44.4163L2.55074 45.4699L0.725907 44.4163V42.3092L2.55074 41.2556Z" fill="url(#paint10_linear)"/>
<path d="M2.43984 41.9209L3.78445 42.6972V44.2498L2.43984 45.0262L1.09522 44.2498V42.6972L2.43984 41.9209Z" fill="url(#paint11_linear)"/>
<path d="M17.7441 17.3006L32.4941 7.09766L33.0486 7.54126L17.7441 17.3006Z" fill="url(#paint12_linear)"/>
<path d="M49.5732 18.6316H48.7969L49.5732 35.4887V18.6316Z" fill="url(#paint13_linear)"/>
<path d="M37.2629 9.87013L13.5299 39.3701L37.8174 10.2028L37.2629 9.87013Z" fill="url(#paint14_linear)"/>
<path d="M49.0187 16.4135L25.8401 3.10519L49.0187 17.3007L49.0187 16.4135Z" fill="url(#paint15_linear)"/>
<path d="M49.1291 15.0828L50.9539 16.1363V18.2435L49.1291 19.297L47.3043 18.2435V16.1363L49.1291 15.0828Z" fill="url(#paint16_linear)"/>
<path d="M49.1294 15.5261L50.57 16.3579V18.0214L49.1294 18.8532L47.6887 18.0214V16.3579L49.1294 15.5261Z" fill="url(#paint17_linear)"/>
<path d="M2.21794 32.0507L25.0741 15.7481L2.32888 33.0488L2.21794 32.0507Z" fill="url(#paint18_linear)"/>
<path d="M2.32882 30.8308L4.15366 31.8844V33.9915L2.32882 35.0451L0.503983 33.9915V31.8844L2.32882 30.8308Z" fill="url(#paint19_linear)"/>
<path d="M2.32881 31.2744L3.76947 32.1062V33.7697L2.32881 34.6015L0.888154 33.7697V32.1062L2.32881 31.2744Z" fill="url(#paint20_linear)"/>
<path d="M16.8574 9.01611L48.348 25.7599L17.1698 8.42859L16.8574 9.01611Z" fill="url(#paint21_linear)"/>
<path d="M16.7463 5.98877L18.5711 7.04234V9.14948L16.7463 10.203L14.9215 9.14948V7.04234L16.7463 5.98877Z" fill="url(#paint22_linear)"/>
<path d="M16.7465 6.43237L18.1872 7.26414V8.92767L16.7465 9.75944L15.3059 8.92767V7.26414L16.7465 6.43237Z" fill="url(#paint23_linear)"/>
<path d="M37.2632 49.1296L44.0282 13.9736L43.0301 13.53L37.2632 49.1296Z" fill="url(#paint24_linear)"/>
<path d="M43.363 11.5337L45.1878 12.5873V14.6944L43.363 15.748L41.5382 14.6944V12.5873L43.363 11.5337Z" fill="url(#paint25_linear)"/>
<path d="M43.3628 11.7556L44.8034 12.5874V14.2509L43.3628 15.0827L41.9221 14.2509V12.5874L43.3628 11.7556Z" fill="url(#paint26_linear)"/>
<path d="M24.1768 7.98486L33.9361 52.2348L34.7125 51.7912L24.1768 7.98486Z" fill="url(#paint27_linear)"/>
<path d="M24.0655 7.09766L7.76289 46.8006L6.98657 46.357L24.0655 7.09766Z" fill="url(#paint28_linear)"/>
<path d="M26.0786 56.9587L48.6946 44.0105L25.7292 56.3284L26.0786 56.9587Z" fill="url(#paint29_linear)"/>
<path d="M21.8476 55.0074L12.5732 10.1549L23.2893 55.8946L21.8476 55.0074Z" fill="url(#paint30_linear)"/>
<path d="M25.2305 56.9587L2.61443 44.0105L25.5799 56.3284L25.2305 56.9587Z" fill="url(#paint31_linear)"/>
<path d="M25.6183 53.2332L28.0194 54.6194V57.392L25.6183 58.7783L23.2172 57.392V54.6194L25.6183 53.2332Z" fill="url(#paint32_linear)"/>
<path d="M25.6184 53.8984L27.4432 54.952V57.0591L25.6184 58.1127L23.7935 57.0591V54.952L25.6184 53.8984Z" fill="url(#paint33_linear)"/>
<path d="M24.8423 30.1655L25.6186 55.4512L26.3949 30.1655H24.8423Z" fill="url(#paint34_linear)"/>
<path d="M25.3081 28.6724L2.81639 17.0926L24.5554 30.0303L25.3081 28.6724Z" fill="url(#paint35_linear)"/>
<path d="M26.5059 30.1792L49.019 16.7462L25.7295 28.8346L26.5059 30.1792Z" fill="url(#paint36_linear)"/>
<path d="M25.6183 25.7295L28.7877 27.5594V31.2191L25.6183 33.049L22.4488 31.2191V27.5594L25.6183 25.7295Z" fill="url(#paint37_linear)"/>
<path d="M25.1745 26.3948L27.7677 27.892V30.8863L25.1745 32.3835L22.5813 30.8863V27.892L25.1745 26.3948Z" fill="url(#paint38_linear)"/>
<path d="M76.4941 31.6465H71.9941V42H68.7598V16.4062H75.9316C78.4395 16.4062 80.3379 17.0625 81.627 18.375C82.916 19.6758 83.5605 21.5859 83.5605 24.1055C83.5605 25.6875 83.209 27.0703 82.5059 28.2539C81.8145 29.4258 80.8301 30.3105 79.5527 30.9082L84.5098 41.7891V42H81.0469L76.4941 31.6465ZM71.9941 28.8867H75.8965C77.2441 28.8867 78.3164 28.4531 79.1133 27.5859C79.9219 26.7188 80.3262 25.5586 80.3262 24.1055C80.3262 20.8242 78.8379 19.1836 75.8613 19.1836H71.9941V28.8867ZM103.143 16.4062V34.5996C103.119 37.0254 102.416 38.9238 101.033 40.2949C99.6504 41.666 97.7227 42.3516 95.25 42.3516C92.7188 42.3516 90.7852 41.6836 89.4492 40.3477C88.1133 39 87.4336 37.084 87.4102 34.5996V16.4062H90.6094V34.4766C90.6094 36.1992 90.9727 37.4883 91.6992 38.3438C92.4375 39.1875 93.6211 39.6094 95.25 39.6094C96.8906 39.6094 98.0742 39.1875 98.8008 38.3438C99.5391 37.4883 99.9082 36.1992 99.9082 34.4766V16.4062H103.143ZM108.1 42V16.4062H115.395C117.727 16.4062 119.479 16.9746 120.65 18.1113C121.834 19.248 122.426 20.9531 122.426 23.2266C122.426 24.4219 122.127 25.4766 121.529 26.3906C120.932 27.3047 120.123 28.0137 119.104 28.5176C120.275 28.8691 121.201 29.5898 121.881 30.6797C122.572 31.7695 122.918 33.082 122.918 34.6172C122.918 36.9141 122.285 38.7188 121.02 40.0312C119.766 41.3438 117.973 42 115.641 42H108.1ZM111.316 30.0293V39.2402H115.711C116.93 39.2402 117.896 38.8418 118.611 38.0449C119.326 37.2363 119.684 36.1055 119.684 34.6523C119.684 31.5703 118.383 30.0293 115.781 30.0293H111.316ZM111.316 27.3223H115.447C116.561 27.3223 117.457 26.9473 118.137 26.1973C118.828 25.4473 119.174 24.4512 119.174 23.209C119.174 21.8027 118.863 20.7832 118.242 20.1504C117.621 19.5059 116.672 19.1836 115.395 19.1836H111.316V27.3223ZM131.109 42H127.893V16.4062H131.109V42ZM152.01 16.4062V34.5996C151.986 37.0254 151.283 38.9238 149.9 40.2949C148.518 41.666 146.59 42.3516 144.117 42.3516C141.586 42.3516 139.652 41.6836 138.316 40.3477C136.98 39 136.301 37.084 136.277 34.5996V16.4062H139.477V34.4766C139.477 36.1992 139.84 37.4883 140.566 38.3438C141.305 39.1875 142.488 39.6094 144.117 39.6094C145.758 39.6094 146.941 39.1875 147.668 38.3438C148.406 37.4883 148.775 36.1992 148.775 34.4766V16.4062H152.01ZM161.115 16.4062L167.795 37.2891L174.475 16.4062H178.623V42H175.406V32.0332L175.705 22.0488L169.008 42H166.547L159.885 22.1191L160.184 32.0332V42H156.967V16.4062H161.115Z" fill="#434345"/>
<defs>
<radialGradient id="paint0_radial" cx="0" cy="0" r="1" gradientUnits="userSpaceOnUse" gradientTransform="translate(26.3946 4.65788) rotate(-118.887) scale(3.67319)">
<stop stop-color="#621C9D"/>
<stop offset="1" stop-color="#DC3CFB"/>
</radialGradient>
<linearGradient id="paint1_linear" x1="24.8422" y1="1.33081" x2="26.0621" y2="4.76878" gradientUnits="userSpaceOnUse">
<stop stop-color="#621C9D"/>
<stop offset="1" stop-color="#DC3CFB"/>
</linearGradient>
<linearGradient id="paint2_linear" x1="13.5487" y1="9.93132" x2="13.8629" y2="10.4249" gradientUnits="userSpaceOnUse">
<stop offset="0.15625" stop-color="#00FF80"/>
<stop offset="0.276042" stop-color="#00695C"/>
</linearGradient>
<linearGradient id="paint3_linear" x1="2.10714" y1="14.8611" x2="2.10714" y2="19.0754" gradientUnits="userSpaceOnUse">
<stop stop-color="#00FF80"/>
<stop offset="1" stop-color="#004D40"/>
</linearGradient>
<linearGradient id="paint4_linear" x1="3.54886" y1="18.1881" x2="0.998114" y2="15.6374" gradientUnits="userSpaceOnUse">
<stop stop-color="#00FF80"/>
<stop offset="1" stop-color="#00695C"/>
</linearGradient>
<linearGradient id="paint5_linear" x1="45.9135" y1="38.8157" x2="44.3609" y2="41.4774" gradientUnits="userSpaceOnUse">
<stop offset="0.795924" stop-color="#004D40"/>
<stop offset="0.88734" stop-color="#00E676"/>
</linearGradient>
<linearGradient id="paint6_linear" x1="48.2424" y1="41.6992" x2="48.2424" y2="45.9135" gradientUnits="userSpaceOnUse">
<stop stop-color="#004D40"/>
<stop offset="1" stop-color="#00E676"/>
</linearGradient>
<linearGradient id="paint7_linear" x1="49.4626" y1="45.2481" x2="46.9118" y2="42.6973" gradientUnits="userSpaceOnUse">
<stop stop-color="#004D40"/>
<stop offset="1" stop-color="#00E676"/>
</linearGradient>
<linearGradient id="paint8_linear" x1="1.99634" y1="38.1502" x2="2.32904" y2="38.1502" gradientUnits="userSpaceOnUse">
<stop offset="0.380208" stop-color="#880E4F"/>
<stop offset="0.557292" stop-color="#F50057"/>
</linearGradient>
<linearGradient id="paint9_linear" x1="5.54505" y1="45.026" x2="5.43415" y2="43.1407" gradientUnits="userSpaceOnUse">
<stop offset="0.718369" stop-color="#880E4F"/>
<stop offset="0.776042" stop-color="#F50057"/>
</linearGradient>
<linearGradient id="paint10_linear" x1="4.65788" y1="43.8064" x2="1.33461" y2="44.6569" gradientUnits="userSpaceOnUse">
<stop stop-color="#880E4F"/>
<stop offset="1" stop-color="#F50057"/>
</linearGradient>
<linearGradient id="paint11_linear" x1="0.897455" y1="42.0385" x2="3.81339" y2="42.7794" gradientUnits="userSpaceOnUse">
<stop stop-color="#880E4F"/>
<stop offset="1" stop-color="#E91E63"/>
</linearGradient>
<linearGradient id="paint12_linear" x1="30.7197" y1="7.31948" x2="31.8379" y2="8.97688" gradientUnits="userSpaceOnUse">
<stop offset="0.489583" stop-color="#880E4F"/>
<stop offset="0.677083" stop-color="#F50057"/>
</linearGradient>
<linearGradient id="paint13_linear" x1="48.7969" y1="21.0726" x2="50.1147" y2="21.0309" gradientUnits="userSpaceOnUse">
<stop offset="0.333333" stop-color="#880E4F"/>
<stop offset="0.385417" stop-color="#E91E63"/>
</linearGradient>
<linearGradient id="paint14_linear" x1="37.706" y1="11.5337" x2="36.1533" y2="10.9791" gradientUnits="userSpaceOnUse">
<stop offset="0.302083" stop-color="#880E4F"/>
<stop offset="0.395833" stop-color="#F50057"/>
</linearGradient>
<linearGradient id="paint15_linear" x1="46.9116" y1="16.3025" x2="47.4664" y2="15.1937" gradientUnits="userSpaceOnUse">
<stop offset="0.500713" stop-color="#880E4F"/>
<stop offset="0.623056" stop-color="#E91E63"/>
</linearGradient>
<linearGradient id="paint16_linear" x1="47.0184" y1="19.3256" x2="50.8864" y2="19.3256" gradientUnits="userSpaceOnUse">
<stop stop-color="#880E4F"/>
<stop offset="1" stop-color="#E91E63"/>
</linearGradient>
<linearGradient id="paint17_linear" x1="50.273" y1="18.2294" x2="47.9412" y2="16.0944" gradientUnits="userSpaceOnUse">
<stop stop-color="#880E4F"/>
<stop offset="1" stop-color="#E91E63"/>
</linearGradient>
<linearGradient id="paint18_linear" x1="5.98861" y1="29.0563" x2="6.65402" y2="29.9435" gradientUnits="userSpaceOnUse">
<stop offset="0.40625" stop-color="#004D40"/>
<stop offset="0.635417" stop-color="#00E676"/>
</linearGradient>
<linearGradient id="paint19_linear" x1="4.21415" y1="31.9398" x2="2.32882" y2="35.0451" gradientUnits="userSpaceOnUse">
<stop stop-color="#004D40"/>
<stop offset="1" stop-color="#00E676"/>
</linearGradient>
<linearGradient id="paint20_linear" x1="-0.000129339" y1="32.3834" x2="4.43595" y2="33.6034" gradientUnits="userSpaceOnUse">
<stop stop-color="#004D40"/>
<stop offset="1" stop-color="#00E676"/>
</linearGradient>
<linearGradient id="paint21_linear" x1="28.1694" y1="15.1936" x2="29.1676" y2="13.3083" gradientUnits="userSpaceOnUse">
<stop offset="0.177083" stop-color="#6A1B9A"/>
<stop offset="0.247134" stop-color="#D500F9"/>
</linearGradient>
<linearGradient id="paint22_linear" x1="16.7463" y1="5.98877" x2="16.7463" y2="10.203" gradientUnits="userSpaceOnUse">
<stop stop-color="#D500F9"/>
<stop offset="1" stop-color="#6A1B9A"/>
</linearGradient>
<linearGradient id="paint23_linear" x1="17.8556" y1="9.53763" x2="15.4157" y2="6.43237" gradientUnits="userSpaceOnUse">
<stop stop-color="#D500F9"/>
<stop offset="1" stop-color="#6A1B9A"/>
</linearGradient>
<linearGradient id="paint24_linear" x1="41.9301" y1="18.4085" x2="43.6131" y2="18.6696" gradientUnits="userSpaceOnUse">
<stop offset="0.297126" stop-color="#1A237E"/>
<stop offset="0.467941" stop-color="#2196F3"/>
</linearGradient>
<linearGradient id="paint25_linear" x1="41.2523" y1="15.7765" x2="45.1203" y2="15.7765" gradientUnits="userSpaceOnUse">
<stop stop-color="#1A237E"/>
<stop offset="1" stop-color="#2196F3"/>
</linearGradient>
<linearGradient id="paint26_linear" x1="45.0265" y1="12.1991" x2="41.7604" y2="15.1504" gradientUnits="userSpaceOnUse">
<stop stop-color="#1A237E"/>
<stop offset="1" stop-color="#2196F3"/>
</linearGradient>
<linearGradient id="paint27_linear" x1="33.8252" y1="48.575" x2="33.1207" y2="48.7299" gradientUnits="userSpaceOnUse">
<stop offset="0.3125" stop-color="#2196F3"/>
<stop offset="0.536458" stop-color="#283593"/>
</linearGradient>
<linearGradient id="paint28_linear" x1="7.09747" y1="44.9153" x2="8.87191" y2="45.5807" gradientUnits="userSpaceOnUse">
<stop offset="0.478212" stop-color="#2196F3"/>
<stop offset="0.598763" stop-color="#283593"/>
</linearGradient>
<linearGradient id="paint29_linear" x1="31.3852" y1="53.8983" x2="31.0525" y2="53.3438" gradientUnits="userSpaceOnUse">
<stop offset="0.421875" stop-color="#2196F3"/>
<stop offset="0.583333" stop-color="#283593"/>
</linearGradient>
<linearGradient id="paint30_linear" x1="21.8476" y1="48.4641" x2="20.295" y2="48.7968" gradientUnits="userSpaceOnUse">
<stop offset="0.421875" stop-color="#283593"/>
<stop offset="0.489583" stop-color="#2196F3"/>
</linearGradient>
<linearGradient id="paint31_linear" x1="19.8514" y1="53.2329" x2="19.5187" y2="53.8983" gradientUnits="userSpaceOnUse">
<stop offset="0.313717" stop-color="#2196F3"/>
<stop offset="0.584663" stop-color="#283593"/>
</linearGradient>
<linearGradient id="paint32_linear" x1="27.8363" y1="56.3384" x2="23.7329" y2="57.5583" gradientUnits="userSpaceOnUse">
<stop stop-color="#2196F3"/>
<stop offset="1" stop-color="#283593"/>
</linearGradient>
<linearGradient id="paint33_linear" x1="24.6203" y1="54.342" x2="27.171" y2="57.3364" gradientUnits="userSpaceOnUse">
<stop stop-color="#2196F3"/>
<stop offset="1" stop-color="#283593"/>
</linearGradient>
<linearGradient id="paint34_linear" x1="26.3949" y1="32.8272" x2="24.6205" y2="32.8354" gradientUnits="userSpaceOnUse">
<stop offset="0.46875" stop-color="#E040FB"/>
<stop offset="0.546875" stop-color="#6A1B9A"/>
</linearGradient>
<linearGradient id="paint35_linear" x1="20.6279" y1="29.0565" x2="24.8071" y2="21.4957" gradientUnits="userSpaceOnUse">
<stop offset="0.203125" stop-color="#6A1B9A"/>
<stop offset="0.234375" stop-color="#E040FB"/>
</linearGradient>
<linearGradient id="paint36_linear" x1="39.0378" y1="23.4004" x2="38.2615" y2="21.9586" gradientUnits="userSpaceOnUse">
<stop offset="0.520833" stop-color="#E040FB"/>
<stop offset="0.671875" stop-color="#6A1B9A"/>
</linearGradient>
<linearGradient id="paint37_linear" x1="22.9566" y1="27.393" x2="28.5017" y2="31.6073" gradientUnits="userSpaceOnUse">
<stop stop-color="#CD2AFC"/>
<stop offset="1" stop-color="#6D1B9D"/>
</linearGradient>
<linearGradient id="paint38_linear" x1="22.9968" y1="27.7558" x2="27.5337" y2="31.2039" gradientUnits="userSpaceOnUse">
<stop offset="0.0572917" stop-color="#6D1B9D"/>
<stop offset="1" stop-color="#CD2AFC"/>
</linearGradient>
</defs>
</svg>
