<svg width="282" height="282" viewBox="0 0 282 282" fill="none" xmlns="http://www.w3.org/2000/svg">
<path fill-rule="evenodd" clip-rule="evenodd" d="M94 0H0V94H7.83322V7.83335H94V0Z" fill="black"/>
<path fill-rule="evenodd" clip-rule="evenodd" d="M282 94L282 0L188 0L188 94L188 94L188 7.83335L274.167 7.83335V94L282 94Z" fill="black"/>
<path fill-rule="evenodd" clip-rule="evenodd" d="M188 282H282V188H188V282ZM188 274.167H274.167V188H188V274.167Z" fill="black"/>
<path fill-rule="evenodd" clip-rule="evenodd" d="M0 188L0 282H94V188H0ZM7.83322 188L7.83322 274.167H93.9999V188H7.83322Z" fill="black"/>
<path d="M54.8344 54.8333H70.501V70.5H54.8344V54.8333Z" fill="black"/>
<path d="M54.8337 94H70.5004V109.667H54.8337V94Z" fill="black"/>
<path d="M54.8337 133.167H70.5004V148.833H54.8337V133.167Z" fill="black"/>
<path d="M94.0002 54.8333H109.667V70.5H94.0002V54.8333Z" fill="black"/>
<path d="M94.0002 94H109.667V109.667H94.0002V94Z" fill="black"/>
<path d="M94.0002 133.167H109.667V148.833H94.0002V133.167Z" fill="black"/>
<path d="M133.167 54.8333H148.834V70.5H133.167V54.8333Z" fill="black"/>
<path d="M133.167 94H148.834V109.667H133.167V94Z" fill="black"/>
<path d="M133.167 133.167H148.834V148.833H133.167V133.167Z" fill="black"/>
<rect x="54.8337" y="172.333" width="15.6667" height="15.6667" fill="black"/>
<rect x="54.8337" y="211.5" width="15.6667" height="15.6667" fill="black"/>
<rect width="15.6667" height="15.6667" transform="matrix(1 0 0 -1 94.0002 188)" fill="black"/>
<rect x="94.0002" y="211.5" width="15.6667" height="15.6667" fill="black"/>
<rect x="133.167" y="172.333" width="15.6667" height="15.6667" fill="black"/>
<rect x="133.167" y="211.5" width="15.6667" height="15.6667" fill="black"/>
<rect x="172.333" y="54.8333" width="15.6667" height="15.6667" fill="black"/>
<rect x="211.5" y="54.8333" width="15.6667" height="15.6667" fill="black"/>
<rect x="172.333" y="94" width="15.6667" height="15.6667" fill="black"/>
<rect x="211.5" y="94" width="15.6667" height="15.6667" fill="black"/>
<rect x="172.333" y="133.167" width="15.6667" height="15.6667" fill="black"/>
<rect x="211.5" y="133.167" width="15.6667" height="15.6667" fill="black"/>
<rect x="172.333" y="172.333" width="15.6667" height="15.6667" fill="black"/>
<rect x="172.333" y="211.5" width="15.6667" height="15.6667" fill="black"/>
<rect x="211.5" y="172.333" width="15.6667" height="15.6667" fill="black"/>
<path d="M211.5 211.5H227.167V227.167H211.5V211.5Z" fill="black"/>
</svg>
