<svg width="42" height="42" viewBox="0 0 42 42" fill="none" xmlns="http://www.w3.org/2000/svg">
<circle cx="21" cy="21" r="21" fill="#4C75A3"/>
<path d="M20.1889 28.9329H21.9222C21.9222 28.9329 22.4457 28.8771 22.7133 28.5986C22.9593 28.3426 22.9515 27.8622 22.9515 27.8622C22.9515 27.8622 22.9176 25.6129 23.9969 25.2817C25.0613 24.9552 26.4277 27.4556 27.876 28.4171C28.9712 29.1444 29.8034 28.9852 29.8034 28.9852L33.6763 28.9329C33.6763 28.9329 35.7021 28.812 34.7415 27.2716C34.6628 27.1458 34.1818 26.1321 31.8618 24.0495C29.4332 21.8697 29.7588 22.2224 32.684 18.4518C34.4654 16.1556 35.1775 14.7538 34.955 14.1535C34.743 13.5815 33.4326 13.7326 33.4326 13.7326L29.0722 13.7587C29.0722 13.7587 28.7487 13.7161 28.5091 13.8547C28.2747 13.9904 28.1243 14.3072 28.1243 14.3072C28.1243 14.3072 27.4339 16.084 26.5138 17.5952C24.5722 20.7837 23.7957 20.9525 23.4782 20.7542C22.7398 20.2927 22.9243 18.9006 22.9243 17.9114C22.9243 14.8212 23.409 13.5328 21.9806 13.1993C21.5066 13.0887 21.1575 13.0155 19.9452 13.0035C18.3893 12.9883 17.0727 13.0081 16.327 13.3614C15.8309 13.5964 15.4482 14.1198 15.6814 14.15C15.9697 14.1871 16.6222 14.3203 16.9682 14.7756C17.4152 15.3636 17.3995 16.6839 17.3995 16.6839C17.3995 16.6839 17.6563 20.3215 16.7999 20.7732C16.2122 21.0831 15.4058 20.4504 13.6747 17.5576C12.7879 16.0758 12.1181 14.4377 12.1181 14.4377C12.1181 14.4377 11.9892 14.1317 11.7588 13.9678C11.4794 13.7693 11.089 13.7064 11.089 13.7064L6.94523 13.7326C6.94523 13.7326 6.32329 13.7494 6.09477 14.0109C5.89146 14.2438 6.07853 14.7249 6.07853 14.7249C6.07853 14.7249 9.32241 22.0648 12.9958 25.7637C16.3644 29.1555 20.1889 28.9329 20.1889 28.9329Z" fill="white"/>
</svg>
