<svg width="236" height="238" viewBox="0 0 236 238" fill="none" xmlns="http://www.w3.org/2000/svg">
<path d="M183.402 216.13L183.402 203.295L142.794 181.678M107.568 162.764L72.3413 181.453L72.3413 143.624L107.568 124.935M107.568 162.764L107.568 124.935M107.568 162.764L142.794 181.678M107.568 124.935L142.794 106.02M107.568 124.935L72.4636 106.246M72.586 143.849L37.3596 124.935M37.3596 124.935L72.4636 106.246M37.3596 124.935L37.3596 113.113L37.3596 101.292M107.568 87.5563L142.794 106.02M107.568 87.5563L107.568 49.2769M107.568 87.5563L72.4636 106.246M142.794 106.02L178.02 124.935M142.794 106.02L142.794 68.1914M142.794 106.02L178.02 87.5563L178.02 49.2769M142.794 106.02L142.794 124.485M142.794 143.624L178.02 162.764M142.794 143.624L142.794 160.512M142.794 143.624L142.794 134.223M178.02 162.764L213.247 143.849L213.247 135.968M178.02 162.764L178.02 124.935M213.247 106.02L178.02 124.935M213.247 106.02L235.508 93.8611M213.247 106.02L213.247 125.385M213.247 106.02L213.247 93.8611M107.568 49.2769L142.794 68.1914M107.568 49.2769L142.794 30.3624M142.794 68.1914L178.02 49.2769M178.02 49.2769L142.794 30.3624M178.02 49.2769L213.247 68.4166M178.02 49.2769L201.015 36.8924M37.3596 59.86L72.586 41.3958L72.3413 20.9051M37.3596 59.86L1.39939 41.3958L1.39939 20.9051M37.3596 59.86L37.3596 69.0921M142.794 30.3624L166.034 17.9779M142.794 30.3624L122.735 19.5541M213.247 68.4166L235.508 55.8069M213.247 68.4166L213.247 83.7283M142.794 181.678L142.794 198.116M142.794 181.678L142.794 171.095M37.3596 79.45L37.3596 90.7087" stroke="black" stroke-width="2"/>
<path d="M151.824 9.42122C151.824 13.7669 147.971 17.4281 143.039 17.4281C138.107 17.4281 134.254 13.7669 134.254 9.42122C134.254 5.07553 138.107 1.41431 143.039 1.41431C147.971 1.41431 151.824 5.07553 151.824 9.42122Z" stroke="black" stroke-width="2"/>
<path d="M51.5272 16.1767C51.5272 23.507 45.045 29.5877 36.871 29.5877C28.697 29.5877 22.2148 23.507 22.2148 16.1767C22.2148 8.84636 28.697 2.76562 36.871 2.76562C45.045 2.76562 51.5272 8.84636 51.5272 16.1767Z" stroke="black" stroke-width="2"/>
<path d="M192.922 226.263C192.922 231.23 188.521 235.395 182.914 235.395C177.306 235.395 172.905 231.23 172.905 226.263C172.905 221.295 177.306 217.13 182.914 217.13C188.521 217.13 192.922 221.295 192.922 226.263Z" stroke="black" stroke-width="2"/>
<path d="M148.399 203.745C148.399 206.474 145.97 208.825 142.794 208.825C139.619 208.825 137.189 206.474 137.189 203.745C137.189 201.016 139.619 198.666 142.794 198.666C145.97 198.666 148.399 201.016 148.399 203.745Z" stroke="black" stroke-width="2"/>
<path d="M148.399 165.916C148.399 168.645 145.97 170.996 142.794 170.996C139.619 170.996 137.189 168.645 137.189 165.916C137.189 163.187 139.619 160.837 142.794 160.837C145.97 160.837 148.399 163.187 148.399 165.916Z" stroke="black" stroke-width="2"/>
<path d="M148.154 129.439C148.154 132.168 145.724 134.518 142.549 134.518C139.374 134.518 136.944 132.168 136.944 129.439C136.944 126.71 139.374 124.359 142.549 124.359C145.724 124.359 148.154 126.71 148.154 129.439Z" stroke="black" stroke-width="2"/>
<path d="M218.851 130.789C218.851 133.518 216.422 135.869 213.247 135.869C210.071 135.869 207.642 133.518 207.642 130.789C207.642 128.06 210.071 125.71 213.247 125.71C216.422 125.71 218.851 128.06 218.851 130.789Z" stroke="black" stroke-width="2"/>
<path d="M218.851 88.9073C218.851 91.6363 216.422 93.987 213.247 93.987C210.071 93.987 207.642 91.6363 207.642 88.9073C207.642 86.1783 210.071 83.8276 213.247 83.8276C216.422 83.8276 218.851 86.1783 218.851 88.9073Z" stroke="black" stroke-width="2"/>
<path d="M42.7196 74.4967C42.7196 77.2257 40.2899 79.5763 37.1147 79.5763C33.9396 79.5763 31.5098 77.2257 31.5098 74.4967C31.5098 71.7676 33.9396 69.417 37.1147 69.417C40.2899 69.417 42.7196 71.7676 42.7196 74.4967Z" stroke="black" stroke-width="2"/>
<path d="M42.7196 95.212C42.7196 97.941 40.2899 100.292 37.1147 100.292C33.9396 100.292 31.5098 97.941 31.5098 95.212C31.5098 92.483 33.9396 90.1323 37.1147 90.1323C40.2899 90.1323 42.7196 92.483 42.7196 95.212Z" stroke="black" stroke-width="2"/>
<path d="M147.421 219.958C147.421 222.19 145.429 224.137 142.794 224.137C140.16 224.137 138.168 222.19 138.168 219.958C138.168 217.726 140.16 215.779 142.794 215.779C145.429 215.779 147.421 217.726 147.421 219.958Z" stroke="black" stroke-width="2"/>
<path d="M145.464 233.919C145.464 235.404 144.129 236.746 142.305 236.746C140.481 236.746 139.146 235.404 139.146 233.919C139.146 232.433 140.481 231.091 142.305 231.091C144.129 231.091 145.464 232.433 145.464 233.919Z" stroke="black" stroke-width="2"/>
</svg>
