<svg width="222" height="243" viewBox="0 0 222 243" fill="none" xmlns="http://www.w3.org/2000/svg">
<path d="M172.034 220.23L172.034 207.126L133.874 185.057M100.77 165.747L67.6666 184.827L67.6666 146.207L100.77 127.126M100.77 165.747L100.77 127.126M100.77 165.747L133.874 185.057M100.77 127.126L133.873 107.816M100.77 127.126L67.7815 108.046M67.8965 146.437L34.7931 127.126M34.7931 127.126L67.7815 108.046M34.7931 127.126L34.7931 115.057L34.7931 102.988M100.77 88.9654L133.873 107.816M100.77 88.9654L100.77 49.885M100.77 88.9654L67.7815 108.046M133.873 107.816L166.977 127.126M133.873 107.816L133.874 69.1953M133.873 107.816L166.977 88.9654L166.977 49.885M133.873 107.816L133.874 126.667M133.874 146.207L166.977 165.747M133.874 146.207L133.874 163.448M133.874 146.207L133.874 136.609M166.977 165.747L200.08 146.437L200.08 138.391M166.977 165.747L166.977 127.126M200.08 107.816L166.977 127.126M200.08 107.816L221 95.4022M200.08 107.816L200.08 127.586M200.08 107.816L200.08 95.4022M100.77 49.885L133.874 69.1953M100.77 49.885L133.874 30.5746M133.874 69.1953L166.977 49.885M166.977 49.885L133.874 30.5746M166.977 49.885L200.08 69.4252M166.977 49.885L188.586 37.2413M34.7931 60.6896L67.8965 41.839L67.6666 20.9194M34.7931 60.6896L0.999977 41.839L0.999977 20.9194M34.7931 60.6896L34.7931 70.1148M133.874 30.5746L155.713 17.9309M133.874 30.5746L115.023 19.5401M200.08 69.4252L221 56.5516M200.08 69.4252L200.08 85.0574M133.874 185.057L133.874 201.839M133.874 185.057L133.874 174.253M34.7931 80.6895L34.7931 92.1838" stroke="white" stroke-width="2"/>
<circle cx="134.104" cy="9.1954" r="8.1954" stroke="white" stroke-width="2"/>
<circle cx="34.3337" cy="16.092" r="13.7126" stroke="white" stroke-width="2"/>
<circle cx="171.575" cy="230.575" r="9.34482" stroke="white" stroke-width="2"/>
<circle cx="133.873" cy="207.586" r="5.20689" stroke="white" stroke-width="2"/>
<circle cx="133.873" cy="168.965" r="5.20689" stroke="white" stroke-width="2"/>
<circle cx="133.643" cy="131.724" r="5.20689" stroke="white" stroke-width="2"/>
<circle cx="200.08" cy="133.103" r="5.20689" stroke="white" stroke-width="2"/>
<circle cx="200.08" cy="90.3448" r="5.20689" stroke="white" stroke-width="2"/>
<circle cx="34.5629" cy="75.6323" r="5.20689" stroke="white" stroke-width="2"/>
<circle cx="34.5629" cy="96.7815" r="5.20689" stroke="white" stroke-width="2"/>
<circle cx="133.874" cy="224.138" r="4.28736" stroke="white" stroke-width="2"/>
<circle cx="133.414" cy="238.391" r="2.90805" stroke="white" stroke-width="2"/>
</svg>
