<svg width="561" height="614" viewBox="0 0 561 614" fill="none" xmlns="http://www.w3.org/2000/svg">
<path d="M435.028 557.582L435.028 524.406L338.412 468.532M254.6 419.642L170.788 467.95L170.788 370.169L254.6 321.861M254.6 419.642L254.6 321.861M254.6 419.642L338.412 468.532M254.6 321.861L338.412 272.971M254.6 321.861L171.079 273.553M171.37 370.751L87.5579 321.861M87.5579 321.861L171.079 273.553M87.5579 321.861L87.5579 291.305L87.5579 260.748M254.6 225.245L338.412 272.971M254.6 225.245L254.6 126.3M254.6 225.245L171.079 273.553M338.412 272.971L422.223 321.861M338.412 272.971L338.412 175.19M338.412 272.971L422.223 225.245L422.223 126.3M338.412 272.971L338.412 320.697M338.412 370.169L422.223 419.642M338.412 370.169L338.412 413.821M338.412 370.169L338.412 345.87M422.223 419.642L506.035 370.751L506.035 350.38M422.223 419.642L422.223 321.861M506.035 272.971L422.223 321.861M506.035 272.971L559 241.541M506.035 272.971L506.035 323.025M506.035 272.971L506.035 241.541M254.6 126.3L338.412 175.19M254.6 126.3L338.412 77.4097M338.412 175.19L422.223 126.3M422.223 126.3L338.412 77.4097M422.223 126.3L506.035 175.772M422.223 126.3L476.934 94.2885M87.5579 153.655L171.37 105.929L170.788 52.9646M87.5579 153.655L1.99994 105.929L1.99994 52.9646M87.5579 153.655L87.5579 177.518M338.412 77.4097L393.704 45.3982M338.412 77.4097L290.685 49.4724M506.035 175.772L559 143.179M506.035 175.772L506.035 215.35M338.412 468.532L338.412 511.02M338.412 468.532L338.412 441.177M87.5579 204.292L87.5579 233.393" stroke="#6A1B9A" stroke-width="4"/>
<circle cx="338.994" cy="23.2811" r="21.2811" stroke="#00E676" stroke-width="4"/>
<circle cx="86.3939" cy="40.7419" r="35.2497" stroke="#2196F3" stroke-width="4"/>
<circle cx="433.864" cy="583.773" r="24.1912" stroke="#F50057" stroke-width="4"/>
<circle cx="338.412" cy="525.57" r="13.7147" stroke="#E040FB" stroke-width="4"/>
<circle cx="338.412" cy="427.79" r="13.7147" stroke="#F50057" stroke-width="4"/>
<circle cx="337.83" cy="333.501" r="13.7147" stroke="#00E676" stroke-width="4"/>
<circle cx="506.035" cy="336.994" r="13.7147" stroke="#2196F3" stroke-width="4"/>
<circle cx="506.035" cy="228.737" r="13.7147" stroke="#E040FB" stroke-width="4"/>
<circle cx="86.976" cy="191.487" r="13.7147" stroke="#00E676" stroke-width="4"/>
<circle cx="86.976" cy="245.033" r="13.7147" stroke="#F50057" stroke-width="4"/>
<circle cx="338.412" cy="567.476" r="11.3866" stroke="#2196F3" stroke-width="4"/>
<circle cx="337.248" cy="603.562" r="7.89446" stroke="#00E676" stroke-width="4"/>
</svg>
