<svg width="581" height="581" viewBox="0 0 581 581" fill="none" xmlns="http://www.w3.org/2000/svg">
<line x1="207.059" y1="275.31" x2="207.059" y2="305.69" stroke="#0E2783" stroke-width="4"/>
<line x1="370.346" y1="275.31" x2="370.346" y2="305.69" stroke="#0E2783" stroke-width="4"/>
<mask id="mask0" mask-type="alpha" maskUnits="userSpaceOnUse" x="258" y="0" width="61" height="137">
<line x1="290.601" y1="72.1503" x2="290.601" y2="136.706" stroke="#F50057" stroke-width="4" stroke-dasharray="4 4"/>
<circle cx="288.601" cy="30.3791" r="28.3791" stroke="#F50057" stroke-width="4"/>
</mask>
<g mask="url(#mask0)">
<rect x="258" width="61" height="141" fill="url(#paint0_linear)"/>
</g>
<mask id="mask1" mask-type="alpha" maskUnits="userSpaceOnUse" x="60" y="66" width="122" height="119">
<line x1="134.672" y1="137.539" x2="180.319" y2="183.187" stroke="#E040FB" stroke-width="4" stroke-dasharray="4 4"/>
<circle cx="103.721" cy="109.417" r="28.3791" transform="rotate(-45 103.721 109.417)" stroke="#E040FB" stroke-width="4"/>
</mask>
<g mask="url(#mask1)">
<rect x="57.5408" y="110.795" width="64.8899" height="136.544" transform="rotate(-45 57.5408 110.795)" fill="url(#paint1_linear)"/>
</g>
<mask id="mask2" mask-type="alpha" maskUnits="userSpaceOnUse" x="393" y="60" width="119" height="122">
<line x1="440.687" y1="134.672" x2="395.039" y2="180.32" stroke="#F50057" stroke-width="4" stroke-dasharray="4 4"/>
<circle cx="468.809" cy="103.721" r="28.3791" transform="rotate(45 468.809 103.721)" stroke="#F50057" stroke-width="4"/>
</mask>
<g mask="url(#mask2)">
<rect x="468.091" y="55.9719" width="65.738" height="149.209" transform="rotate(45 468.091 55.9719)" fill="url(#paint2_linear)"/>
</g>
<mask id="mask3" mask-type="alpha" maskUnits="userSpaceOnUse" x="444" y="256" width="137" height="62">
<line x1="508.85" y1="288.703" x2="444.294" y2="288.703" stroke="#F50057" stroke-width="4" stroke-dasharray="4 4"/>
<circle cx="550.621" cy="286.703" r="28.3791" transform="rotate(90 550.621 286.703)" stroke="#F50057" stroke-width="4"/>
</mask>
<g mask="url(#mask3)">
<rect x="587.846" y="321.654" width="150.138" height="69.459" transform="rotate(180 587.846 321.654)" fill="url(#paint3_linear)"/>
</g>
<mask id="mask4" mask-type="alpha" maskUnits="userSpaceOnUse" x="0" y="260" width="137" height="61">
<line x1="72.1504" y1="288.5" x2="136.706" y2="288.5" stroke="#F50057" stroke-width="4" stroke-dasharray="4 4"/>
<circle cx="30.3791" cy="290.5" r="28.3791" transform="rotate(-90 30.3791 290.5)" stroke="#F50057" stroke-width="4"/>
</mask>
<g mask="url(#mask4)">
<rect x="-11" y="252" width="151" height="78" fill="url(#paint4_linear)"/>
</g>
<mask id="mask5" mask-type="alpha" maskUnits="userSpaceOnUse" x="66" y="396" width="119" height="122">
<line x1="137.539" y1="443.554" x2="183.187" y2="397.907" stroke="#F50057" stroke-width="4" stroke-dasharray="4 4"/>
<circle cx="109.417" cy="474.505" r="28.3791" transform="rotate(-135 109.417 474.505)" stroke="#F50057" stroke-width="4"/>
</mask>
<g mask="url(#mask5)">
<rect x="61.1383" y="473.449" width="150.138" height="69.459" transform="rotate(-45 61.1383 473.449)" fill="url(#paint5_linear)"/>
</g>
<mask id="mask6" mask-type="alpha" maskUnits="userSpaceOnUse" x="262" y="444" width="61" height="137">
<line x1="290.399" y1="508.85" x2="290.399" y2="444.294" stroke="#F50057" stroke-width="4" stroke-dasharray="4 4"/>
<circle cx="292.399" cy="550.621" r="28.3791" transform="rotate(180 292.399 550.621)" stroke="#F50057" stroke-width="4"/>
</mask>
<g mask="url(#mask6)">
<rect x="254" y="437" width="72" height="150" fill="url(#paint6_linear)"/>
</g>
<mask id="mask7" mask-type="alpha" maskUnits="userSpaceOnUse" x="392" y="395" width="122" height="119">
<line x1="439.757" y1="442.585" x2="394.109" y2="396.938" stroke="#F50057" stroke-width="4" stroke-dasharray="4 4"/>
<circle cx="470.708" cy="470.708" r="28.3791" transform="rotate(135 470.708 470.708)" stroke="#F50057" stroke-width="4"/>
</mask>
<g mask="url(#mask7)">
<rect x="514.002" y="473.996" width="61" height="141" transform="rotate(136.785 514.002 473.996)" fill="url(#paint7_linear)"/>
</g>
<rect x="144.402" y="216.552" width="288.399" height="56.7582" stroke="#F50057" stroke-width="4"/>
<rect x="180.376" y="237.337" width="60.7582" height="15.1895" fill="#E040FB"/>
<rect x="322.778" y="237.337" width="15.1895" height="15.1895" fill="#2196F3"/>
<rect x="356.954" y="237.337" width="15.1895" height="15.1895" fill="#00E676"/>
<rect x="391.131" y="237.337" width="15.1895" height="15.1895" fill="#FF6600"/>
<rect x="144.402" y="307.69" width="288.399" height="56.7582" stroke="#F50057" stroke-width="4"/>
<rect x="180.376" y="328.474" width="60.7582" height="15.1895" fill="#6A1B9A"/>
<rect x="322.778" y="328.474" width="15.1895" height="15.1895" fill="#00E676"/>
<rect x="356.954" y="328.474" width="15.1895" height="15.1895" fill="#FF6600"/>
<rect x="391.131" y="328.474" width="15.1895" height="15.1895" fill="#2196F3"/>
<defs>
<linearGradient id="paint0_linear" x1="289" y1="-5" x2="288.589" y2="141" gradientUnits="userSpaceOnUse">
<stop stop-color="#00E676"/>
<stop offset="1" stop-color="#004D40"/>
</linearGradient>
<linearGradient id="paint1_linear" x1="89.9857" y1="110.795" x2="90.2475" y2="248.443" gradientUnits="userSpaceOnUse">
<stop stop-color="#E040FB"/>
<stop offset="1" stop-color="#6A1B9A"/>
</linearGradient>
<linearGradient id="paint2_linear" x1="500.96" y1="55.9719" x2="500.96" y2="205.181" gradientUnits="userSpaceOnUse">
<stop stop-color="#2196F3"/>
<stop offset="1" stop-color="#283593"/>
</linearGradient>
<linearGradient id="paint3_linear" x1="586.652" y1="357.301" x2="730.548" y2="356.241" gradientUnits="userSpaceOnUse">
<stop stop-color="#FF1744"/>
<stop offset="1" stop-color="#880E4F"/>
</linearGradient>
<linearGradient id="paint4_linear" x1="-11" y1="291" x2="150.5" y2="291" gradientUnits="userSpaceOnUse">
<stop stop-color="#2196F3"/>
<stop offset="1" stop-color="#0E2783"/>
</linearGradient>
<linearGradient id="paint5_linear" x1="59.9439" y1="509.096" x2="203.84" y2="508.035" gradientUnits="userSpaceOnUse">
<stop stop-color="#FF1744"/>
<stop offset="1" stop-color="#880E4F"/>
</linearGradient>
<linearGradient id="paint6_linear" x1="290" y1="437" x2="290" y2="587" gradientUnits="userSpaceOnUse">
<stop stop-color="#6A1B9A"/>
<stop offset="1" stop-color="#E040FB"/>
</linearGradient>
<linearGradient id="paint7_linear" x1="545.002" y1="468.996" x2="544.591" y2="614.996" gradientUnits="userSpaceOnUse">
<stop stop-color="#00E676"/>
<stop offset="1" stop-color="#004D40"/>
</linearGradient>
</defs>
</svg>
