<svg width="230" height="230" viewBox="0 0 230 230" fill="none" xmlns="http://www.w3.org/2000/svg">
<line x1="82.4336" y1="108.858" x2="82.4336" y2="120.85" stroke="black" stroke-width="2"/>
<line x1="146.89" y1="108.858" x2="146.89" y2="120.85" stroke="black" stroke-width="2"/>
<line x1="115.411" y1="28.6626" x2="115.411" y2="54.1453" stroke="black" stroke-width="2" stroke-dasharray="4 4"/>
<circle cx="114.412" cy="12.1738" r="10.9919" stroke="black" stroke-width="2"/>
<line x1="53.7979" y1="54.3256" x2="71.8169" y2="72.3446" stroke="black" stroke-width="2" stroke-dasharray="4 4"/>
<circle cx="41.4308" cy="43.3733" r="10.9919" transform="rotate(-45 41.4308 43.3733)" stroke="black" stroke-width="2"/>
<line x1="174.595" y1="53.4913" x2="156.576" y2="71.5103" stroke="black" stroke-width="2" stroke-dasharray="4 4"/>
<circle cx="185.547" cy="41.1246" r="10.9919" transform="rotate(45 185.547 41.1246)" stroke="black" stroke-width="2"/>
<line x1="201.353" y1="114.355" x2="175.87" y2="114.355" stroke="black" stroke-width="2" stroke-dasharray="4 4"/>
<circle cx="217.841" cy="113.355" r="10.9919" transform="rotate(90 217.841 113.355)" stroke="black" stroke-width="2"/>
<line x1="28.9688" y1="113.854" x2="54.4515" y2="113.854" stroke="black" stroke-width="2" stroke-dasharray="4 4"/>
<circle cx="12.4802" cy="114.854" r="10.9919" transform="rotate(-90 12.4802 114.854)" stroke="black" stroke-width="2"/>
<line x1="54.6318" y1="175.122" x2="72.6508" y2="157.103" stroke="black" stroke-width="2" stroke-dasharray="4 4"/>
<circle cx="43.6797" cy="187.489" r="10.9919" transform="rotate(-135 43.6797 187.489)" stroke="black" stroke-width="2"/>
<line x1="114.909" y1="201.046" x2="114.909" y2="175.563" stroke="black" stroke-width="2" stroke-dasharray="4 4"/>
<circle cx="115.909" cy="217.534" r="10.9919" transform="rotate(180 115.909 217.534)" stroke="black" stroke-width="2"/>
<line x1="173.931" y1="175.037" x2="155.912" y2="157.018" stroke="black" stroke-width="2" stroke-dasharray="4 4"/>
<circle cx="186.297" cy="185.99" r="10.9919" transform="rotate(135 186.297 185.99)" stroke="black" stroke-width="2"/>
<rect x="57.7002" y="85.8745" width="113.422" height="21.9838" stroke="black" stroke-width="2"/>
<rect x="71.6904" y="93.8684" width="23.9838" height="5.99594" fill="black"/>
<rect x="127.902" y="93.8684" width="5.99594" height="5.99594" fill="black"/>
<rect x="141.393" y="93.8684" width="5.99594" height="5.99594" fill="black"/>
<rect x="154.884" y="93.8684" width="5.99594" height="5.99594" fill="black"/>
<rect x="57.7002" y="121.85" width="113.422" height="21.9838" stroke="black" stroke-width="2"/>
<rect x="71.6904" y="129.844" width="23.9838" height="5.99594" fill="black"/>
<rect x="127.902" y="129.844" width="5.99594" height="5.99594" fill="black"/>
<rect x="141.393" y="129.844" width="5.99594" height="5.99594" fill="black"/>
<rect x="154.884" y="129.844" width="5.99594" height="5.99594" fill="black"/>
</svg>
