<svg width="222" height="173" viewBox="0 0 222 173" fill="none" xmlns="http://www.w3.org/2000/svg">
<line x1="47.5571" y1="1.53516" x2="47.5571" y2="81.7655" stroke="white" stroke-width="2"/>
<line x1="8.77002" y1="1" x2="8.77002" y2="79.8819" stroke="white" stroke-width="2"/>
<line x1="1.53513" y1="1.54182" x2="1" y2="81.8116" stroke="white" stroke-width="2"/>
<line x1="17.5347" y1="1" x2="17.5347" y2="71.7915" stroke="white" stroke-width="2"/>
<line x1="26.9741" y1="1" x2="26.9741" y2="68.4205" stroke="white" stroke-width="2"/>
<line x1="36.4126" y1="1" x2="36.4126" y2="75.1625" stroke="white" stroke-width="2"/>
<line x1="0.990234" y1="1.97998" x2="48.5101" y2="1.97998" stroke="white" stroke-width="2"/>
<line x1="0.750976" y1="10.5679" x2="46.7608" y2="10.5679" stroke="white" stroke-width="2"/>
<line x1="0.750976" y1="18.41" x2="46.7608" y2="18.41" stroke="white" stroke-width="2"/>
<line x1="0.750976" y1="26.2526" x2="46.7608" y2="26.2526" stroke="white" stroke-width="2"/>
<line x1="0.750976" y1="34.0947" x2="46.7608" y2="34.0947" stroke="white" stroke-width="2"/>
<line x1="0.750976" y1="41.9369" x2="46.7608" y2="41.9369" stroke="white" stroke-width="2"/>
<line x1="0.750976" y1="49.7791" x2="46.7608" y2="49.779" stroke="white" stroke-width="2"/>
<line x1="0.750976" y1="57.621" x2="46.7608" y2="57.621" stroke="white" stroke-width="2"/>
<line x1="0.750976" y1="65.4635" x2="46.7608" y2="65.4635" stroke="white" stroke-width="2"/>
<line x1="1.06982" y1="73.3986" x2="16.0535" y2="73.3986" stroke="white" stroke-width="2"/>
<line x1="34.0645" y1="73.5719" x2="46.8743" y2="73.5719" stroke="white" stroke-width="2"/>
<line x1="1.06982" y1="80.8049" x2="7.13766" y2="80.8049" stroke="white" stroke-width="2"/>
<line x1="103.29" y1="28.2096" x2="103.29" y2="115.47" stroke="white" stroke-width="2"/>
<line x1="51.3027" y1="30.4324" x2="51.3027" y2="117.692" stroke="white" stroke-width="2"/>
<path d="M3.52734 84.5498L23.0759 66.8285L50.9073 84.5498L102.686 41.2983L129.658 58.7503L173.288 23.8463V25.0362" stroke="white" stroke-width="2"/>
<circle cx="153.853" cy="94.8443" r="15.6587" stroke="white" stroke-width="2"/>
<path d="M116.937 30.6407C117.887 32.1647 118.597 33.8534 119.016 35.6541L118.042 35.8804C118.307 37.0226 118.447 38.2136 118.447 39.4386C118.447 40.6623 118.315 41.8601 118.064 43.0152L119.041 43.2278C118.648 45.0334 117.98 46.7415 117.082 48.2935L116.216 47.7926C115.002 49.8901 113.344 51.6802 111.369 53.0044L111.926 53.835C110.431 54.8374 108.762 55.5916 106.967 56.0361L106.726 55.0654C105.597 55.345 104.412 55.494 103.185 55.494C101.947 55.494 100.735 55.3424 99.5656 55.0569L99.3284 56.0284C97.512 55.5849 95.7954 54.8383 94.2382 53.8483L94.7747 53.0044C92.7061 51.6893 90.9346 49.9178 89.6195 47.8491L88.7756 48.3856C87.7856 46.8285 87.039 45.1119 86.5955 43.2955L87.567 43.0583C87.2814 41.8888 87.1299 40.6764 87.1299 39.4386C87.1299 38.2136 87.2704 37.0226 87.5357 35.8804L86.5616 35.6541C86.9799 33.8534 87.6903 32.1647 88.64 30.6407L89.4887 31.1695C90.758 29.1325 92.4825 27.408 94.5195 26.1387L93.9906 25.29C95.5147 24.3403 97.2034 23.63 99.0041 23.2117L99.2304 24.1857C100.373 23.9204 101.564 23.7799 102.789 23.7799C104.014 23.7799 105.205 23.9204 106.347 24.1857L106.573 23.2117C108.374 23.63 110.063 24.3403 111.587 25.29L111.058 26.1387C113.095 27.408 114.819 29.1325 116.089 31.1695L116.937 30.6407Z" stroke="white" stroke-width="2" stroke-dasharray="7 5"/>
<path d="M81.9769 66.1248C82.1871 66.8063 82.332 67.516 82.4044 68.2467L81.4093 68.3453C81.4413 68.6687 81.4577 68.9969 81.4577 69.3292C81.4577 69.6624 81.4422 69.9926 81.4117 70.319L82.4074 70.4119C82.3394 71.1409 82.2034 71.8527 82.0055 72.5393L81.0446 72.2624C80.8602 72.9022 80.6171 73.5179 80.3211 74.1018L81.213 74.5539C80.8844 75.2022 80.4963 75.8148 80.0553 76.3832L79.2652 75.7702C78.8604 76.292 78.4074 76.772 77.9126 77.2024L78.5688 77.9569C78.0243 78.4305 77.433 78.8502 76.8019 79.207L76.3098 78.3365C75.7444 78.6561 75.1442 78.9197 74.5153 79.1196L74.8183 80.0726C74.1406 80.2881 73.432 80.437 72.6989 80.5112L72.5982 79.5163C72.2764 79.5489 71.9489 79.5656 71.6163 79.5656C71.2788 79.5656 70.9442 79.5484 70.6134 79.5147L70.5121 80.5096C69.7706 80.4341 69.0468 80.2838 68.3488 80.0668L68.6458 79.1119C68.0011 78.9114 67.3796 78.648 66.7891 78.3291L66.3138 79.2089C65.6636 78.8577 65.0488 78.4455 64.4782 77.9808L65.1097 77.2054C64.5855 76.7785 64.1021 76.3033 63.6675 75.7879L62.903 76.4325C62.4276 75.8687 62.0055 75.2606 61.6455 74.617L62.5182 74.1288C62.1906 73.543 61.92 72.9262 61.7139 72.2865L60.7621 72.5931C60.5377 71.8966 60.3822 71.1738 60.3042 70.4332L61.2986 70.3283C61.2639 69.9988 61.2461 69.6655 61.2461 69.3292C61.2461 68.9969 61.2625 68.6687 61.2946 68.3453L60.2994 68.2467C60.3718 67.516 60.5167 66.8063 60.7269 66.1248L61.6825 66.4195C61.8774 65.7875 62.1343 65.1819 62.4464 64.6094L61.5685 64.1307C61.9156 63.4941 62.3245 62.8952 62.7872 62.3419L63.5543 62.9834C63.9758 62.4794 64.4465 62.0168 64.9593 61.6029L64.3312 60.8248C64.8912 60.3728 65.4966 59.9737 66.1397 59.6353L66.6054 60.5203C67.1824 60.2166 67.7928 59.9667 68.4296 59.7772L68.1443 58.8187C68.8272 58.6155 69.5379 58.4754 70.2692 58.4055L70.3644 59.401C70.6891 59.3699 71.0185 59.354 71.3519 59.354C71.6854 59.354 72.0148 59.3699 72.3394 59.401L72.4346 58.4055C73.166 58.4754 73.8766 58.6155 74.5595 58.8187L74.2742 59.7772C74.9111 59.9667 75.5214 60.2166 76.0984 60.5203L76.5641 59.6353C77.2072 59.9737 77.8126 60.3728 78.3726 60.8248L77.7445 61.6029C78.2573 62.0168 78.7281 62.4794 79.1495 62.9834L79.9166 62.3419C80.3794 62.8952 80.7883 63.4941 81.1354 64.1307L80.2574 64.6094C80.5695 65.1819 80.8264 65.7875 81.0213 66.4195L81.9769 66.1248Z" stroke="white" stroke-width="2" stroke-dasharray="2 2"/>
<line x1="152.931" y1="95.3367" x2="142.04" y2="84.4455" stroke="white" stroke-width="2"/>
<line x1="179.2" y1="100.175" x2="179.2" y2="172.833" stroke="white" stroke-width="2"/>
<line x1="187.909" y1="150.127" x2="187.909" y2="172.833" stroke="white" stroke-width="2"/>
<line x1="187.909" y1="141.045" x2="187.909" y2="145.586" stroke="white" stroke-width="2"/>
<line x1="187.909" y1="131.963" x2="187.909" y2="136.504" stroke="white" stroke-width="2"/>
<line x1="205.325" y1="122.88" x2="205.325" y2="127.422" stroke="white" stroke-width="2"/>
<line x1="205.325" y1="109.257" x2="205.325" y2="113.798" stroke="white" stroke-width="2"/>
<line x1="187.909" y1="88.0646" x2="187.909" y2="124.394" stroke="white" stroke-width="2"/>
<line x1="196.617" y1="59.3041" x2="196.617" y2="172.833" stroke="white" stroke-width="2"/>
<line x1="205.325" y1="133.476" x2="205.325" y2="172.833" stroke="white" stroke-width="2"/>
<line x1="205.325" y1="72.9277" x2="205.325" y2="101.688" stroke="white" stroke-width="2"/>
<line x1="214.034" y1="39.6257" x2="214.034" y2="172.833" stroke="white" stroke-width="2"/>
<path d="M214.116 30.2388L207.865 20.7999H220L214.116 30.2388Z" stroke="white" stroke-width="2"/>
<rect x="14.5127" y="165.891" width="4.04523" height="6.35679" fill="white"/>
<rect x="9.11865" y="165.891" width="4.04523" height="6.35679" fill="white"/>
<rect x="3.7251" y="165.891" width="4.04523" height="6.35679" fill="white"/>
<rect x="14.5127" y="153.178" width="4.04523" height="6.35679" fill="white"/>
<rect x="9.11865" y="153.178" width="4.04523" height="6.35679" fill="white"/>
<rect x="3.7251" y="153.178" width="4.04523" height="6.35679" fill="white"/>
<rect x="14.5127" y="127.751" width="4.04523" height="6.35679" fill="white"/>
<rect x="9.11865" y="127.751" width="4.04523" height="6.35679" fill="white"/>
<rect x="3.72607" y="127.75" width="4.04523" height="6.35679" fill="white"/>
<rect x="14.5127" y="140.464" width="4.04523" height="6.35679" fill="white"/>
<rect x="9.11865" y="140.464" width="4.04523" height="6.35679" fill="white"/>
<rect x="3.7251" y="140.464" width="4.04523" height="6.35679" fill="white"/>
<rect x="39.457" y="165.891" width="4.04523" height="6.35679" fill="white"/>
<rect x="34.0635" y="165.891" width="4.04523" height="6.35679" fill="white"/>
<rect x="28.6699" y="165.891" width="4.04523" height="6.35679" fill="white"/>
<rect x="39.457" y="153.178" width="4.04523" height="6.35679" fill="white"/>
<rect x="34.0635" y="153.178" width="4.04523" height="6.35679" fill="white"/>
<rect x="28.6699" y="153.178" width="4.04523" height="6.35679" fill="white"/>
<rect x="39.457" y="127.751" width="4.04523" height="6.35679" fill="white"/>
<rect x="34.0635" y="127.751" width="4.04523" height="6.35679" fill="white"/>
<rect x="28.6704" y="127.75" width="4.04523" height="6.35679" fill="white"/>
<rect x="39.457" y="140.464" width="4.04523" height="6.35679" fill="white"/>
<rect x="34.0635" y="140.464" width="4.04523" height="6.35679" fill="white"/>
<rect x="28.6699" y="140.464" width="4.04523" height="6.35679" fill="white"/>
<rect x="64.4033" y="165.891" width="4.04523" height="6.35679" fill="white"/>
<rect x="59.0098" y="165.891" width="4.04523" height="6.35679" fill="white"/>
<rect x="53.6162" y="165.891" width="4.04523" height="6.35679" fill="white"/>
<rect x="64.4033" y="153.178" width="4.04523" height="6.35679" fill="white"/>
<rect x="59.0098" y="153.178" width="4.04523" height="6.35679" fill="white"/>
<rect x="53.6162" y="153.178" width="4.04523" height="6.35679" fill="white"/>
<rect x="64.4033" y="127.751" width="4.04523" height="6.35679" fill="white"/>
<rect x="59.0098" y="127.751" width="4.04523" height="6.35679" fill="white"/>
<rect x="53.6172" y="127.75" width="4.04523" height="6.35679" fill="white"/>
<rect x="64.4033" y="140.464" width="4.04523" height="6.35679" fill="white"/>
<rect x="59.0098" y="140.464" width="4.04523" height="6.35679" fill="white"/>
<rect x="53.6162" y="140.464" width="4.04523" height="6.35679" fill="white"/>
<rect x="89.3491" y="165.891" width="4.04523" height="6.35679" fill="white"/>
<rect x="83.9556" y="165.891" width="4.04523" height="6.35679" fill="white"/>
<rect x="78.5615" y="165.891" width="4.04523" height="6.35679" fill="white"/>
<rect x="89.3491" y="153.178" width="4.04523" height="6.35679" fill="white"/>
<rect x="83.9556" y="153.178" width="4.04523" height="6.35679" fill="white"/>
<rect x="78.5615" y="153.178" width="4.04523" height="6.35679" fill="white"/>
<rect x="89.3491" y="127.751" width="4.04523" height="6.35679" fill="white"/>
<rect x="83.9556" y="127.751" width="4.04523" height="6.35679" fill="white"/>
<rect x="78.5615" y="127.75" width="4.04523" height="6.35679" fill="white"/>
<rect x="89.3491" y="140.464" width="4.04523" height="6.35679" fill="white"/>
<rect x="83.9556" y="140.464" width="4.04523" height="6.35679" fill="white"/>
<rect x="78.5615" y="140.464" width="4.04523" height="6.35679" fill="white"/>
<rect x="114.294" y="165.891" width="4.04523" height="6.35679" fill="white"/>
<rect x="108.901" y="165.891" width="4.04523" height="6.35679" fill="white"/>
<rect x="103.507" y="165.891" width="4.04523" height="6.35679" fill="white"/>
<rect x="114.294" y="153.178" width="4.04523" height="6.35679" fill="white"/>
<rect x="108.901" y="153.178" width="4.04523" height="6.35679" fill="white"/>
<rect x="103.507" y="153.178" width="4.04523" height="6.35679" fill="white"/>
<rect x="114.294" y="127.751" width="4.04523" height="6.35679" fill="white"/>
<rect x="108.901" y="127.751" width="4.04523" height="6.35679" fill="white"/>
<rect x="103.509" y="127.75" width="4.04523" height="6.35679" fill="white"/>
<rect x="114.294" y="140.464" width="4.04523" height="6.35679" fill="white"/>
<rect x="108.901" y="140.464" width="4.04523" height="6.35679" fill="white"/>
<rect x="103.507" y="140.464" width="4.04523" height="6.35679" fill="white"/>
<rect x="139.24" y="165.891" width="4.04523" height="6.35679" fill="white"/>
<rect x="133.847" y="165.891" width="4.04523" height="6.35679" fill="white"/>
<rect x="128.453" y="165.891" width="4.04523" height="6.35679" fill="white"/>
<rect x="139.24" y="153.178" width="4.04523" height="6.35679" fill="white"/>
<rect x="133.847" y="153.178" width="4.04523" height="6.35679" fill="white"/>
<rect x="128.453" y="153.178" width="4.04523" height="6.35679" fill="white"/>
<rect x="139.24" y="127.751" width="4.04523" height="6.35679" fill="white"/>
<rect x="133.847" y="127.751" width="4.04523" height="6.35679" fill="white"/>
<rect x="128.454" y="127.75" width="4.04523" height="6.35679" fill="white"/>
<rect x="139.24" y="140.464" width="4.04523" height="6.35679" fill="white"/>
<rect x="133.847" y="140.464" width="4.04523" height="6.35679" fill="white"/>
<rect x="128.453" y="140.464" width="4.04523" height="6.35679" fill="white"/>
<rect x="164.186" y="165.891" width="4.04523" height="6.35679" fill="white"/>
<rect x="158.792" y="165.891" width="4.04523" height="6.35679" fill="white"/>
<rect x="153.398" y="165.891" width="4.04523" height="6.35679" fill="white"/>
<rect x="164.186" y="153.178" width="4.04523" height="6.35679" fill="white"/>
<rect x="158.792" y="153.178" width="4.04523" height="6.35679" fill="white"/>
<rect x="153.398" y="153.178" width="4.04523" height="6.35679" fill="white"/>
<rect x="164.186" y="127.751" width="4.04523" height="6.35679" fill="white"/>
<rect x="158.792" y="127.751" width="4.04523" height="6.35679" fill="white"/>
<rect x="153.398" y="127.75" width="4.04523" height="6.35679" fill="white"/>
<rect x="164.186" y="140.464" width="4.04523" height="6.35679" fill="white"/>
<rect x="158.792" y="140.464" width="4.04523" height="6.35679" fill="white"/>
<rect x="153.398" y="140.464" width="4.04523" height="6.35679" fill="white"/>
</svg>
