<svg width="462" height="322" viewBox="0 0 462 322" fill="none" xmlns="http://www.w3.org/2000/svg">
<line x1="88" y1="1" x2="88" y2="150.926" stroke="#00796B" stroke-width="2"/>
<line x1="15.5202" y1="4.93202e-08" x2="15.5202" y2="147.407" stroke="#00796B" stroke-width="2"/>
<line x1="1.99998" y1="1.00667" x2="0.999978" y2="151.007" stroke="#00796B" stroke-width="2"/>
<line x1="31.8987" y1="4.93202e-08" x2="31.8987" y2="132.288" stroke="#00796B" stroke-width="2"/>
<line x1="49.5372" y1="4.93202e-08" x2="49.5372" y2="125.989" stroke="#00796B" stroke-width="2"/>
<line x1="67.1756" y1="4.93202e-08" x2="67.1756" y2="138.587" stroke="#00796B" stroke-width="2"/>
<line x1="1" y1="1" x2="89" y2="1.00001" stroke="#00796B" stroke-width="2"/>
<line x1="1.40289" y1="17.2332" x2="87.3814" y2="17.2331" stroke="#00796B" stroke-width="2"/>
<line x1="1.40289" y1="32.057" x2="87.3814" y2="32.057" stroke="#00796B" stroke-width="2"/>
<line x1="1.40289" y1="46.8813" x2="87.3814" y2="46.8813" stroke="#00796B" stroke-width="2"/>
<line x1="1.40289" y1="61.7051" x2="87.3814" y2="61.7051" stroke="#00796B" stroke-width="2"/>
<line x1="1.40289" y1="76.529" x2="87.3814" y2="76.529" stroke="#00796B" stroke-width="2"/>
<line x1="1.40289" y1="91.3529" x2="87.3814" y2="91.3529" stroke="#00796B" stroke-width="2"/>
<line x1="1.40289" y1="106.176" x2="87.3814" y2="106.176" stroke="#00796B" stroke-width="2"/>
<line x1="1.40289" y1="121.001" x2="87.3814" y2="121.001" stroke="#00796B" stroke-width="2"/>
<line x1="2" y1="136" x2="30" y2="136" stroke="#00796B" stroke-width="2"/>
<line x1="63.656" y1="136.328" x2="87.5938" y2="136.328" stroke="#00796B" stroke-width="2"/>
<line x1="2" y1="150" x2="13.339" y2="150" stroke="#00796B" stroke-width="2"/>
<g filter="url(#filter0_d)">
<line x1="192.148" y1="50.8467" x2="192.148" y2="213.909" stroke="#6A1B9A" stroke-width="2"/>
</g>
<line x1="95" y1="55" x2="95" y2="218.063" stroke="#6A1B9A" stroke-width="2"/>
<path d="M6.591 156.129L43.1213 123.014L95.1298 156.129L191.89 75.3054L242.291 107.918L323.822 42.6929V44.9165" stroke="#F50057" stroke-width="4"/>
<circle cx="287.504" cy="175.367" r="29.1302" stroke="#E040FB" stroke-width="4"/>
<path d="M219.607 60.0837C220.067 61.6979 220.4 63.3657 220.595 65.0754L218.608 65.3016C218.732 66.3949 218.796 67.5072 218.796 68.6352C218.796 69.7644 218.736 70.8818 218.618 71.9834L220.606 72.1965C220.423 73.9039 220.11 75.5766 219.677 77.2016L217.745 76.6865C217.163 78.8691 216.35 80.9594 215.334 82.9223L217.11 83.8418C216.325 85.3585 215.425 86.8042 214.422 88.1647L212.812 86.9778C211.483 88.7803 209.962 90.4208 208.278 91.8624L209.579 93.3816C208.289 94.486 206.909 95.4824 205.45 96.3562L204.422 94.6401C202.534 95.7706 200.505 96.6795 198.365 97.3313L198.947 99.2446C197.343 99.7327 195.68 100.087 193.967 100.294L193.728 98.308C192.642 98.439 191.535 98.5066 190.407 98.5066C189.264 98.5066 188.133 98.4371 187.017 98.3021L186.777 100.288C185.042 100.078 183.344 99.7203 181.695 99.2286L182.267 97.312C180.081 96.66 177.984 95.7546 176.014 94.6304L175.023 96.3674C173.517 95.5079 172.082 94.5292 170.732 93.4455L171.984 91.8858C170.205 90.4585 168.584 88.8371 167.157 87.0589L165.597 88.3108C164.513 86.9607 163.535 85.5255 162.675 84.0193L164.412 83.028C163.288 81.058 162.382 78.9616 161.73 76.7754L159.814 77.3471C159.322 75.6983 158.965 74 158.755 72.2655L160.74 72.0254C160.605 70.9098 160.536 69.7784 160.536 68.6352C160.536 67.5072 160.6 66.3949 160.724 65.3017L158.737 65.0754C158.932 63.3657 159.265 61.6979 159.725 60.0837L161.649 60.632C162.265 58.4698 163.125 56.41 164.198 54.4839L162.45 53.5108C163.28 52.0219 164.227 50.6081 165.281 49.2823L166.847 50.5266C168.233 48.783 169.814 47.2017 171.557 45.8161L170.313 44.2503C171.639 43.1966 173.053 42.2488 174.542 41.4196L175.515 43.1669C177.441 42.0942 179.501 41.2341 181.663 40.6177L181.115 38.6943C182.729 38.2342 184.396 37.901 186.106 37.7064L186.332 39.6935C187.426 39.5691 188.538 39.5051 189.666 39.5051C190.794 39.5051 191.906 39.5691 193 39.6935L193.226 37.7064C194.936 37.901 196.603 38.2342 198.218 38.6943L197.669 40.6177C199.831 41.2341 201.891 42.0942 203.817 43.1669L204.79 41.4196C206.279 42.2488 207.693 43.1966 209.019 44.2503L207.775 45.816C209.518 47.2017 211.1 48.783 212.485 50.5266L214.051 49.2823C215.105 50.6081 216.052 52.0219 216.882 53.5108L215.134 54.4839C216.207 56.41 217.067 58.4698 217.684 60.632L219.607 60.0837Z" stroke="#00E676" stroke-width="4" stroke-dasharray="7 5"/>
<path d="M153.864 124.659C153.963 125.321 154.03 125.993 154.064 126.674L152.066 126.772C152.081 127.075 152.089 127.38 152.089 127.687C152.089 127.995 152.082 128.301 152.067 128.607L154.065 128.699C154.034 129.379 153.97 130.052 153.877 130.716L151.897 130.437C151.811 131.048 151.696 131.65 151.556 132.243L153.501 132.706C153.344 133.366 153.157 134.015 152.94 134.652L151.047 134.008C150.849 134.591 150.624 135.161 150.375 135.717L152.199 136.536C151.922 137.154 151.616 137.757 151.284 138.342L149.544 137.355C149.241 137.888 148.914 138.406 148.564 138.905L150.201 140.054C149.812 140.607 149.398 141.141 148.959 141.654L147.44 140.353C147.043 140.817 146.623 141.261 146.184 141.683L147.569 143.126C147.082 143.594 146.572 144.037 146.041 144.455L144.805 142.882C144.327 143.258 143.83 143.61 143.317 143.936L144.388 145.625C143.819 145.986 143.231 146.318 142.626 146.621L141.732 144.832C141.191 145.102 140.636 145.345 140.066 145.559L140.77 147.431C140.142 147.667 139.498 147.873 138.84 148.045L138.334 146.11C137.753 146.262 137.159 146.385 136.554 146.478L136.857 148.455C136.197 148.556 135.525 148.625 134.842 148.659L134.742 146.661C134.44 146.677 134.136 146.684 133.829 146.684C133.517 146.684 133.207 146.676 132.898 146.661L132.796 148.658C132.103 148.623 131.418 148.553 130.741 148.449L131.044 146.472C130.426 146.377 129.816 146.252 129.216 146.098L128.717 148.034C128.048 147.862 127.39 147.657 126.745 147.421L127.431 145.543C126.844 145.328 126.269 145.085 125.706 144.815L124.841 146.618C124.219 146.32 123.613 145.992 123.023 145.636L124.056 143.924C123.52 143.6 122.999 143.251 122.496 142.879L121.307 144.487C120.752 144.078 120.218 143.642 119.705 143.183L121.039 141.693C120.571 141.274 120.124 140.835 119.698 140.375L118.231 141.735C117.763 141.229 117.318 140.702 116.9 140.155L118.488 138.94C118.107 138.442 117.75 137.928 117.419 137.398L115.723 138.457C115.358 137.873 115.021 137.272 114.715 136.654L116.506 135.764C116.228 135.206 115.979 134.635 115.758 134.053L113.888 134.761C113.644 134.118 113.432 133.462 113.254 132.795L115.187 132.279C115.028 131.682 114.898 131.075 114.801 130.461L112.826 130.774C112.718 130.098 112.645 129.412 112.609 128.72L114.606 128.615C114.59 128.307 114.582 127.997 114.582 127.687C114.582 127.38 114.589 127.075 114.604 126.772L112.607 126.674C112.64 125.993 112.707 125.321 112.806 124.659L114.784 124.955C114.875 124.348 114.996 123.752 115.145 123.166L113.206 122.674C113.374 122.015 113.573 121.37 113.803 120.739L115.682 121.423C115.891 120.849 116.128 120.288 116.392 119.742L114.59 118.873C114.885 118.263 115.208 117.67 115.56 117.095L117.266 118.139C117.584 117.618 117.928 117.114 118.295 116.628L116.7 115.422C117.107 114.883 117.541 114.365 117.999 113.869L119.469 115.225C119.882 114.777 120.318 114.349 120.774 113.943L119.443 112.45C119.947 112.001 120.473 111.576 121.019 111.178L122.198 112.793C122.69 112.434 123.2 112.099 123.727 111.788L122.711 110.065C123.29 109.723 123.888 109.408 124.503 109.122L125.347 110.935C125.897 110.679 126.463 110.448 127.041 110.245L126.378 108.358C127.011 108.136 127.659 107.942 128.319 107.781L128.795 109.723C129.384 109.579 129.983 109.462 130.592 109.374L130.306 107.394C130.969 107.299 131.641 107.234 132.322 107.201L132.417 109.199C132.721 109.185 133.027 109.177 133.335 109.177C133.643 109.177 133.949 109.185 134.253 109.199L134.348 107.201C135.029 107.234 135.702 107.299 136.364 107.394L136.078 109.374C136.687 109.462 137.287 109.579 137.875 109.723L138.352 107.781C139.012 107.942 139.659 108.136 140.293 108.358L139.629 110.245C140.208 110.448 140.773 110.679 141.324 110.935L142.168 109.122C142.782 109.408 143.38 109.723 143.96 110.065L142.943 111.788C143.47 112.099 143.981 112.434 144.473 112.793L145.652 111.178C146.198 111.576 146.724 112.001 147.227 112.45L145.897 113.943C146.353 114.349 146.788 114.777 147.202 115.225L148.672 113.869C149.13 114.365 149.563 114.883 149.971 115.422L148.375 116.628C148.743 117.114 149.086 117.618 149.405 118.139L151.111 117.095C151.462 117.67 151.786 118.263 152.08 118.873L150.279 119.742C150.542 120.288 150.779 120.849 150.988 121.423L152.868 120.739C153.098 121.37 153.297 122.015 153.464 122.674L151.526 123.166C151.675 123.752 151.795 124.348 151.886 124.955L153.864 124.659Z" stroke="#2196F3" stroke-width="4" stroke-dasharray="2 2"/>
<line x1="286.749" y1="175.319" x2="266.396" y2="154.967" stroke="#E040FB"/>
<line x1="381.887" y1="186.124" x2="381.887" y2="321.901" stroke="#2196F3" stroke-width="4"/>
<line x1="398.161" y1="279.471" x2="398.161" y2="321.901" stroke="#6A1B9A" stroke-width="4"/>
<line x1="398.161" y1="262.499" x2="398.161" y2="270.985" stroke="#6A1B9A" stroke-width="4"/>
<line x1="398.161" y1="245.527" x2="398.161" y2="254.013" stroke="#E040FB" stroke-width="4"/>
<line x1="430.708" y1="228.554" x2="430.708" y2="237.04" stroke="#2196F3" stroke-width="4"/>
<line x1="430.708" y1="203.096" x2="430.708" y2="211.582" stroke="#2196F3" stroke-width="4"/>
<line x1="398.161" y1="163.494" x2="398.161" y2="231.382" stroke="#E040FB" stroke-width="4"/>
<line x1="414.434" y1="109.749" x2="414.434" y2="321.901" stroke="#00E676" stroke-width="4"/>
<line x1="430.708" y1="248.355" x2="430.708" y2="321.901" stroke="#0E2783" stroke-width="4"/>
<line x1="430.708" y1="135.208" x2="430.708" y2="188.953" stroke="#0E2783" stroke-width="4"/>
<line x1="446.981" y1="72.9762" x2="446.981" y2="321.901" stroke="#E040FB" stroke-width="4"/>
<path d="M447.005 55.435L435.322 37.7966H458L447.005 55.435Z" stroke="#6A1B9A" stroke-width="4"/>
<rect x="27.119" y="308.132" width="7.55931" height="11.8789" fill="#E040FB"/>
<rect x="17.0399" y="308.132" width="7.55931" height="11.8789" fill="#AA00FF"/>
<rect x="6.96088" y="308.132" width="7.55931" height="11.8789" fill="#6A1B9A"/>
<rect x="27.119" y="284.374" width="7.55931" height="11.8789" fill="#E040FB"/>
<rect x="17.0399" y="284.374" width="7.55931" height="11.8789" fill="#AA00FF"/>
<rect x="6.96088" y="284.374" width="7.55931" height="11.8789" fill="#6A1B9A"/>
<rect x="27.119" y="236.859" width="7.55931" height="11.8789" fill="#E040FB"/>
<rect x="17.0399" y="236.859" width="7.55931" height="11.8789" fill="#AA00FF"/>
<rect x="6.96094" y="236.859" width="7.55931" height="11.8789" fill="#6A1B9A"/>
<rect x="27.119" y="260.617" width="7.55931" height="11.8789" fill="#E040FB"/>
<rect x="17.0399" y="260.617" width="7.55931" height="11.8789" fill="#AA00FF"/>
<rect x="6.96088" y="260.617" width="7.55931" height="11.8789" fill="#6A1B9A"/>
<rect x="73.7349" y="308.132" width="7.55931" height="11.8789" fill="#2196F3"/>
<rect x="63.6557" y="308.132" width="7.55931" height="11.8789" fill="#1565C0"/>
<rect x="53.5767" y="308.132" width="7.55931" height="11.8789" fill="#283593"/>
<rect x="73.7349" y="284.374" width="7.55931" height="11.8789" fill="#2196F3"/>
<rect x="63.6557" y="284.374" width="7.55931" height="11.8789" fill="#1565C0"/>
<rect x="53.5767" y="284.374" width="7.55931" height="11.8789" fill="#283593"/>
<rect x="73.7349" y="236.859" width="7.55931" height="11.8789" fill="#2196F3"/>
<rect x="63.6557" y="236.859" width="7.55931" height="11.8789" fill="#1565C0"/>
<rect x="53.5768" y="236.859" width="7.55931" height="11.8789" fill="#283593"/>
<rect x="73.7349" y="260.617" width="7.55931" height="11.8789" fill="#2196F3"/>
<rect x="63.6557" y="260.617" width="7.55931" height="11.8789" fill="#1565C0"/>
<rect x="53.5767" y="260.617" width="7.55931" height="11.8789" fill="#283593"/>
<rect x="120.351" y="308.132" width="7.55931" height="11.8789" fill="#EC407A"/>
<rect x="110.272" y="308.132" width="7.55931" height="11.8789" fill="#F50057"/>
<rect x="100.193" y="308.132" width="7.55931" height="11.8789" fill="#AD1457"/>
<rect x="120.351" y="284.374" width="7.55931" height="11.8789" fill="#EC407A"/>
<rect x="110.272" y="284.374" width="7.55931" height="11.8789" fill="#F50057"/>
<rect x="100.193" y="284.374" width="7.55931" height="11.8789" fill="#AD1457"/>
<rect x="120.351" y="236.859" width="7.55931" height="11.8789" fill="#EC407A"/>
<rect x="110.272" y="236.859" width="7.55931" height="11.8789" fill="#F50057"/>
<rect x="100.193" y="236.859" width="7.55931" height="11.8789" fill="#AD1457"/>
<rect x="120.351" y="260.617" width="7.55931" height="11.8789" fill="#EC407A"/>
<rect x="110.272" y="260.617" width="7.55931" height="11.8789" fill="#F50057"/>
<rect x="100.193" y="260.617" width="7.55931" height="11.8789" fill="#AD1457"/>
<rect x="166.966" y="308.132" width="7.55931" height="11.8789" fill="#00E676"/>
<rect x="156.887" y="308.132" width="7.55931" height="11.8789" fill="#00C853"/>
<rect x="146.808" y="308.132" width="7.55931" height="11.8789" fill="#388E3C"/>
<rect x="166.966" y="284.374" width="7.55931" height="11.8789" fill="#00E676"/>
<rect x="156.887" y="284.374" width="7.55931" height="11.8789" fill="#00C853"/>
<rect x="146.808" y="284.374" width="7.55931" height="11.8789" fill="#388E3C"/>
<rect x="166.966" y="236.859" width="7.55931" height="11.8789" fill="#00E676"/>
<rect x="156.887" y="236.859" width="7.55931" height="11.8789" fill="#00C853"/>
<rect x="146.808" y="236.859" width="7.55931" height="11.8789" fill="#388E3C"/>
<rect x="166.966" y="260.617" width="7.55931" height="11.8789" fill="#00E676"/>
<rect x="156.887" y="260.617" width="7.55931" height="11.8789" fill="#00C853"/>
<rect x="146.808" y="260.617" width="7.55931" height="11.8789" fill="#388E3C"/>
<rect x="213.582" y="308.132" width="7.55931" height="11.8789" fill="#E040FB"/>
<rect x="203.503" y="308.132" width="7.55931" height="11.8789" fill="#AA00FF"/>
<rect x="193.424" y="308.132" width="7.55931" height="11.8789" fill="#6A1B9A"/>
<rect x="213.582" y="284.374" width="7.55931" height="11.8789" fill="#E040FB"/>
<rect x="203.503" y="284.374" width="7.55931" height="11.8789" fill="#AA00FF"/>
<rect x="193.424" y="284.374" width="7.55931" height="11.8789" fill="#6A1B9A"/>
<rect x="213.582" y="236.859" width="7.55931" height="11.8789" fill="#E040FB"/>
<rect x="203.503" y="236.859" width="7.55931" height="11.8789" fill="#AA00FF"/>
<rect x="193.425" y="236.859" width="7.55931" height="11.8789" fill="#6A1B9A"/>
<rect x="213.582" y="260.617" width="7.55931" height="11.8789" fill="#E040FB"/>
<rect x="203.503" y="260.617" width="7.55931" height="11.8789" fill="#AA00FF"/>
<rect x="193.424" y="260.617" width="7.55931" height="11.8789" fill="#6A1B9A"/>
<rect x="260.198" y="308.132" width="7.55931" height="11.8789" fill="#2196F3"/>
<rect x="250.119" y="308.132" width="7.55931" height="11.8789" fill="#1565C0"/>
<rect x="240.04" y="308.132" width="7.55931" height="11.8789" fill="#283593"/>
<rect x="260.198" y="284.374" width="7.55931" height="11.8789" fill="#2196F3"/>
<rect x="250.119" y="284.374" width="7.55931" height="11.8789" fill="#1565C0"/>
<rect x="240.04" y="284.374" width="7.55931" height="11.8789" fill="#283593"/>
<rect x="260.198" y="236.859" width="7.55931" height="11.8789" fill="#2196F3"/>
<rect x="250.119" y="236.859" width="7.55931" height="11.8789" fill="#1565C0"/>
<rect x="240.04" y="236.859" width="7.55931" height="11.8789" fill="#283593"/>
<rect x="260.198" y="260.617" width="7.55931" height="11.8789" fill="#2196F3"/>
<rect x="250.119" y="260.617" width="7.55931" height="11.8789" fill="#1565C0"/>
<rect x="240.04" y="260.617" width="7.55931" height="11.8789" fill="#283593"/>
<rect x="306.814" y="308.132" width="7.55931" height="11.8789" fill="#EC407A"/>
<rect x="296.735" y="308.132" width="7.55931" height="11.8789" fill="#F50057"/>
<rect x="286.656" y="308.132" width="7.55931" height="11.8789" fill="#AD1457"/>
<rect x="306.814" y="284.374" width="7.55931" height="11.8789" fill="#EC407A"/>
<rect x="296.735" y="284.374" width="7.55931" height="11.8789" fill="#F50057"/>
<rect x="286.656" y="284.374" width="7.55931" height="11.8789" fill="#AD1457"/>
<rect x="306.814" y="236.859" width="7.55931" height="11.8789" fill="#EC407A"/>
<rect x="296.735" y="236.859" width="7.55931" height="11.8789" fill="#F50057"/>
<rect x="286.656" y="236.859" width="7.55931" height="11.8789" fill="#AD1457"/>
<rect x="306.814" y="260.617" width="7.55931" height="11.8789" fill="#EC407A"/>
<rect x="296.735" y="260.617" width="7.55931" height="11.8789" fill="#F50057"/>
<rect x="286.656" y="260.617" width="7.55931" height="11.8789" fill="#AD1457"/>
<defs>
<filter id="filter0_d" x="187.148" y="50.8467" width="10" height="171.063" filterUnits="userSpaceOnUse" color-interpolation-filters="sRGB">
<feFlood flood-opacity="0" result="BackgroundImageFix"/>
<feColorMatrix in="SourceAlpha" type="matrix" values="0 0 0 0 0 0 0 0 0 0 0 0 0 0 0 0 0 0 127 0"/>
<feOffset dy="4"/>
<feGaussianBlur stdDeviation="2"/>
<feColorMatrix type="matrix" values="0 0 0 0 0 0 0 0 0 0 0 0 0 0 0 0 0 0 0.25 0"/>
<feBlend mode="normal" in2="BackgroundImageFix" result="effect1_dropShadow"/>
<feBlend mode="normal" in="SourceGraphic" in2="effect1_dropShadow" result="shape"/>
</filter>
</defs>
</svg>
