<svg width="199" height="173" viewBox="0 0 199 173" fill="none" xmlns="http://www.w3.org/2000/svg">
<line x1="105.601" y1="34.8298" x2="105.601" y2="123.381" stroke="black" stroke-width="2"/>
<line x1="53" y1="63" x2="53" y2="126" stroke="black" stroke-width="2"/>
<path d="M4 92L24.0367 74.776L52.5632 92L105.636 49.9622L133.28 66.9245L168.5 35" stroke="black" stroke-width="2"/>
<circle cx="143.905" cy="16.9053" r="15.9053" stroke="black" stroke-width="2"/>
<path d="M119.464 37.2971C120.428 38.8438 121.149 40.5575 121.574 42.3848L120.599 42.6111C120.869 43.7712 121.012 44.981 121.012 46.2253C121.012 47.4681 120.877 48.6848 120.622 49.8579L121.599 50.0706C121.2 51.9029 120.523 53.6362 119.611 55.2113L118.746 54.7103C117.512 56.8408 115.828 58.659 113.822 60.0042L114.379 60.8348C112.862 61.852 111.168 62.6173 109.346 63.0684L109.106 62.0977C107.959 62.3818 106.755 62.5331 105.509 62.5331C104.252 62.5331 103.02 62.3791 101.832 62.0891L101.595 63.0606C99.7517 62.6105 98.0097 61.8529 96.4295 60.8483L96.966 60.0044C94.8649 58.6686 93.0657 56.8694 91.7299 54.7682L90.886 55.3047C89.8814 53.7245 89.1238 51.9825 88.6737 50.1393L89.6452 49.9021C89.3551 48.7142 89.2012 47.4827 89.2012 46.2253C89.2012 44.981 89.3439 43.7712 89.6134 42.6111L88.6393 42.3848C89.0638 40.5574 89.7846 38.8438 90.7484 37.2971L91.5971 37.826C92.8864 35.757 94.6381 34.0053 96.7071 32.716L96.1783 31.8673C97.7249 30.9035 99.4386 30.1827 101.266 29.7582L101.492 30.7323C102.652 30.4628 103.862 30.3201 105.106 30.3201C106.351 30.3201 107.561 30.4628 108.721 30.7323L108.947 29.7582C110.774 30.1827 112.488 30.9035 114.035 31.8673L113.506 32.716C115.575 34.0053 117.326 35.757 118.616 37.826L119.464 37.2971Z" stroke="black" stroke-width="2" stroke-dasharray="7 5"/>
<path d="M83.987 73.3065C84.2003 73.9981 84.3473 74.7182 84.4208 75.4597L83.4257 75.5583C83.4582 75.887 83.4749 76.2205 83.4749 76.5582C83.4749 76.8969 83.4591 77.2325 83.4282 77.564L84.4238 77.657C84.3548 78.3968 84.2168 79.1191 84.016 79.8159L83.0551 79.539C82.8678 80.1891 82.6206 80.8148 82.3198 81.4082L83.2118 81.8603C82.8783 82.5182 82.4844 83.1399 82.037 83.7167L81.2469 83.1037C80.8355 83.6339 80.3751 84.1217 79.8722 84.5591L80.5285 85.3136C79.9759 85.7943 79.3759 86.2202 78.7354 86.5823L78.2432 85.7118C77.6686 86.0366 77.0587 86.3045 76.4195 86.5077L76.7225 87.4607C76.0347 87.6794 75.3157 87.8305 74.5717 87.9058L74.4709 86.9109C74.1439 86.944 73.8111 86.961 73.4731 86.961C73.13 86.961 72.79 86.9435 72.4538 86.9093L72.3526 87.9041C71.6001 87.8276 70.8655 87.675 70.1572 87.4547L70.4542 86.4998C69.799 86.2961 69.1674 86.0285 68.5673 85.7044L68.0921 86.5842C67.4322 86.2278 66.8084 85.8094 66.2293 85.3379L66.8608 84.5625C66.3281 84.1287 65.8369 83.6458 65.3953 83.1221L64.6308 83.7667C64.1484 83.1946 63.72 82.5775 63.3547 81.9243L64.2274 81.4361C63.8944 80.8408 63.6195 80.214 63.41 79.5639L62.4582 79.8705C62.2305 79.1637 62.0727 78.4302 61.9935 77.6786L62.988 77.5737C62.9527 77.2389 62.9346 76.9001 62.9346 76.5582C62.9346 76.2205 62.9513 75.887 62.9838 75.5583L61.9887 75.4597C62.0622 74.7182 62.2092 73.9981 62.4225 73.3065L63.3781 73.6012C63.5762 72.9589 63.8373 72.3433 64.1545 71.7616L63.2765 71.2829C63.6287 70.6368 64.0437 70.029 64.5133 69.4676L65.2804 70.1091C65.7087 69.5969 66.1871 69.1268 66.7083 68.7061L66.0801 67.928C66.6484 67.4693 67.2628 67.0643 67.9154 66.7209L68.3811 67.6059C68.9675 67.2973 69.5878 67.0433 70.2349 66.8507L69.9497 65.8922C70.6427 65.686 71.3638 65.5439 72.1061 65.4729L72.2012 66.4684C72.5311 66.4368 72.8659 66.4207 73.2047 66.4207C73.5436 66.4207 73.8783 66.4368 74.2083 66.4684L74.3034 65.4729C75.0456 65.5439 75.7668 65.686 76.4598 65.8922L76.1746 66.8507C76.8217 67.0433 77.442 67.2973 78.0284 67.6059L78.4941 66.7209C79.1467 67.0643 79.7611 67.4693 80.3293 67.928L79.7012 68.7061C80.2224 69.1268 80.7008 69.5969 81.1291 70.1091L81.8962 69.4676C82.3658 70.029 82.7807 70.6368 83.133 71.2829L82.255 71.7616C82.5722 72.3433 82.8333 72.9589 83.0314 73.6012L83.987 73.3065Z" stroke="black" stroke-width="2" stroke-dasharray="2 2"/>
<line x1="144.346" y1="17.7596" x2="133.293" y2="6.70715" stroke="black" stroke-width="2"/>
<line x1="155" y1="98.5491" x2="155" y2="172.283" stroke="black" stroke-width="2"/>
<line x1="163.838" y1="149.241" x2="163.838" y2="172.283" stroke="black" stroke-width="2"/>
<line x1="163.838" y1="140.025" x2="163.838" y2="144.633" stroke="black" stroke-width="2"/>
<line x1="163.838" y1="130.808" x2="163.838" y2="135.416" stroke="black" stroke-width="2"/>
<line x1="181.512" y1="121.591" x2="181.512" y2="126.2" stroke="black" stroke-width="2"/>
<line x1="181.512" y1="107.766" x2="181.512" y2="112.374" stroke="black" stroke-width="2"/>
<line x1="163.838" y1="86.26" x2="163.838" y2="123.127" stroke="black" stroke-width="2"/>
<line x1="172.675" y1="57.074" x2="172.675" y2="172.283" stroke="black" stroke-width="2"/>
<line x1="181.512" y1="132.344" x2="181.512" y2="172.283" stroke="black" stroke-width="2"/>
<line x1="181.512" y1="70.8994" x2="181.512" y2="100.086" stroke="black" stroke-width="2"/>
<line x1="190.35" y1="37.1042" x2="190.35" y2="172.283" stroke="black" stroke-width="2"/>
<path d="M190.449 27.5786L184.104 18H196.42L190.449 27.5786Z" stroke="black" stroke-width="2"/>
<rect x="13.3486" y="164.012" width="4.10509" height="6.45086" fill="black"/>
<rect x="7.875" y="164.012" width="4.10509" height="6.45086" fill="black"/>
<rect x="2.40137" y="164.012" width="4.10509" height="6.45086" fill="black"/>
<rect x="13.3486" y="151.11" width="4.10509" height="6.45086" fill="black"/>
<rect x="7.875" y="151.11" width="4.10509" height="6.45086" fill="black"/>
<rect x="2.40137" y="151.11" width="4.10509" height="6.45086" fill="black"/>
<rect x="13.3486" y="125.307" width="4.10509" height="6.45086" fill="black"/>
<rect x="7.875" y="125.307" width="4.10509" height="6.45086" fill="black"/>
<rect x="2.40234" y="125.307" width="4.10509" height="6.45086" fill="black"/>
<rect x="13.3486" y="138.208" width="4.10509" height="6.45086" fill="black"/>
<rect x="7.875" y="138.208" width="4.10509" height="6.45086" fill="black"/>
<rect x="2.40137" y="138.208" width="4.10509" height="6.45086" fill="black"/>
<rect x="38.6621" y="164.012" width="4.10509" height="6.45086" fill="black"/>
<rect x="33.1895" y="164.012" width="4.10509" height="6.45086" fill="black"/>
<rect x="27.7158" y="164.012" width="4.10509" height="6.45086" fill="black"/>
<rect x="38.6621" y="151.11" width="4.10509" height="6.45086" fill="black"/>
<rect x="33.1895" y="151.11" width="4.10509" height="6.45086" fill="black"/>
<rect x="27.7158" y="151.11" width="4.10509" height="6.45086" fill="black"/>
<rect x="38.6621" y="125.307" width="4.10509" height="6.45086" fill="black"/>
<rect x="33.1895" y="125.307" width="4.10509" height="6.45086" fill="black"/>
<rect x="27.7168" y="125.307" width="4.10509" height="6.45086" fill="black"/>
<rect x="38.6621" y="138.208" width="4.10509" height="6.45086" fill="black"/>
<rect x="33.1895" y="138.208" width="4.10509" height="6.45086" fill="black"/>
<rect x="27.7158" y="138.208" width="4.10509" height="6.45086" fill="black"/>
<rect x="63.9775" y="164.012" width="4.10509" height="6.45086" fill="black"/>
<rect x="58.5049" y="164.012" width="4.10509" height="6.45086" fill="black"/>
<rect x="53.0312" y="164.012" width="4.10509" height="6.45086" fill="black"/>
<rect x="63.9775" y="151.11" width="4.10509" height="6.45086" fill="black"/>
<rect x="58.5049" y="151.11" width="4.10509" height="6.45086" fill="black"/>
<rect x="53.0312" y="151.11" width="4.10509" height="6.45086" fill="black"/>
<rect x="63.9775" y="125.307" width="4.10509" height="6.45086" fill="black"/>
<rect x="58.5049" y="125.307" width="4.10509" height="6.45086" fill="black"/>
<rect x="53.0322" y="125.307" width="4.10509" height="6.45086" fill="black"/>
<rect x="63.9775" y="138.208" width="4.10509" height="6.45086" fill="black"/>
<rect x="58.5049" y="138.208" width="4.10509" height="6.45086" fill="black"/>
<rect x="53.0312" y="138.208" width="4.10509" height="6.45086" fill="black"/>
<rect x="89.293" y="164.012" width="4.10509" height="6.45086" fill="black"/>
<rect x="83.8193" y="164.012" width="4.10509" height="6.45086" fill="black"/>
<rect x="78.3457" y="164.012" width="4.10509" height="6.45086" fill="black"/>
<rect x="89.293" y="151.11" width="4.10509" height="6.45086" fill="black"/>
<rect x="83.8193" y="151.11" width="4.10509" height="6.45086" fill="black"/>
<rect x="78.3457" y="151.11" width="4.10509" height="6.45086" fill="black"/>
<rect x="89.293" y="125.307" width="4.10509" height="6.45086" fill="black"/>
<rect x="83.8193" y="125.307" width="4.10509" height="6.45086" fill="black"/>
<rect x="78.3457" y="125.307" width="4.10509" height="6.45086" fill="black"/>
<rect x="89.293" y="138.208" width="4.10509" height="6.45086" fill="black"/>
<rect x="83.8193" y="138.208" width="4.10509" height="6.45086" fill="black"/>
<rect x="78.3457" y="138.208" width="4.10509" height="6.45086" fill="black"/>
<rect x="114.606" y="164.012" width="4.10509" height="6.45086" fill="black"/>
<rect x="109.134" y="164.012" width="4.10509" height="6.45086" fill="black"/>
<rect x="103.66" y="164.012" width="4.10509" height="6.45086" fill="black"/>
<rect x="114.606" y="151.11" width="4.10509" height="6.45086" fill="black"/>
<rect x="109.134" y="151.11" width="4.10509" height="6.45086" fill="black"/>
<rect x="103.66" y="151.11" width="4.10509" height="6.45086" fill="black"/>
<rect x="114.606" y="125.307" width="4.10509" height="6.45086" fill="black"/>
<rect x="109.134" y="125.307" width="4.10509" height="6.45086" fill="black"/>
<rect x="103.661" y="125.307" width="4.10509" height="6.45086" fill="black"/>
<rect x="114.606" y="138.208" width="4.10509" height="6.45086" fill="black"/>
<rect x="109.134" y="138.208" width="4.10509" height="6.45086" fill="black"/>
<rect x="103.66" y="138.208" width="4.10509" height="6.45086" fill="black"/>
<rect x="139.922" y="164.012" width="4.10509" height="6.45086" fill="black"/>
<rect x="134.449" y="164.012" width="4.10509" height="6.45086" fill="black"/>
<rect x="128.976" y="164.012" width="4.10509" height="6.45086" fill="black"/>
<rect x="139.922" y="151.11" width="4.10509" height="6.45086" fill="black"/>
<rect x="134.449" y="151.11" width="4.10509" height="6.45086" fill="black"/>
<rect x="128.976" y="151.11" width="4.10509" height="6.45086" fill="black"/>
<rect x="139.922" y="125.307" width="4.10509" height="6.45086" fill="black"/>
<rect x="134.449" y="125.307" width="4.10509" height="6.45086" fill="black"/>
<rect x="128.976" y="125.307" width="4.10509" height="6.45086" fill="black"/>
<rect x="139.922" y="138.208" width="4.10509" height="6.45086" fill="black"/>
<rect x="134.449" y="138.208" width="4.10509" height="6.45086" fill="black"/>
<rect x="128.976" y="138.208" width="4.10509" height="6.45086" fill="black"/>
<path d="M2 1H36V13H2V1Z" stroke="black" stroke-width="2"/>
<path d="M42 1H76V13H42V1Z" stroke="black" stroke-width="2"/>
<path d="M42 18H76V30H42V18Z" stroke="black" stroke-width="2"/>
<path d="M2 50H36V62H2V50Z" stroke="black" stroke-width="2"/>
<path d="M2 17H36V29H2V17Z" stroke="black" stroke-width="2"/>
<path d="M2 33H36V45H2V33Z" stroke="black" stroke-width="2"/>
</svg>
