<svg width="523" height="593" viewBox="0 0 523 593" fill="none" xmlns="http://www.w3.org/2000/svg">
<circle cx="336.568" cy="130.887" r="19.3694" transform="rotate(90 336.568 130.887)" stroke="#E91E63" stroke-width="4"/>
<circle cx="181.64" cy="82.8064" r="19.3694" transform="rotate(90 181.64 82.8064)" stroke="#2196F3" stroke-width="4"/>
<circle cx="223.043" cy="21.3694" r="19.3694" transform="rotate(90 223.043 21.3694)" stroke="#00E676" stroke-width="4"/>
<path d="M332.561 299.36L249.755 267.306L235 273M332.561 299.36L249.755 331.414L166.948 299.36M332.561 299.36V331.414M166.948 299.36V331.414M166.948 299.36L208.351 283.333L223 277.5L223.043 42.7388M332.561 331.414L249.755 363.468L166.948 331.414M332.561 331.414V363.468M166.948 331.414V363.468M166.948 363.468L249.755 394.187L332.561 363.468M166.948 363.468V395.522M332.561 363.468V395.522M332.561 395.522V427.576L249.755 459.631L166.948 427.576V395.522M332.561 395.522L249.755 427.576L166.948 395.522" stroke="#6A1B9A" stroke-width="4"/>
<line x1="332.561" y1="347.923" x2="479.475" y2="347.923" stroke="#283593" stroke-width="4"/>
<circle cx="375.3" cy="571.631" r="19.3694" stroke="#E040FB" stroke-width="4"/>
<circle cx="500.845" cy="349.924" r="19.3694" stroke="#2196F3" stroke-width="4"/>
<circle cx="104.176" cy="518.207" r="19.3694" transform="rotate(90 104.176 518.207)" stroke="#00E676" stroke-width="4"/>
<circle cx="21.3694" cy="134.894" r="19.3694" transform="rotate(90 21.3694 134.894)" stroke="#E040FB" stroke-width="4"/>
<path d="M181.64 104.176V199.002H223.043" stroke="#283593" stroke-width="4"/>
<path d="M21.3694 152.257L21.3694 321.876H168.284" stroke="#283593" stroke-width="4"/>
<path d="M104.176 496.838V376.635H166.948" stroke="#283593" stroke-width="4"/>
<path d="M375.3 550.261V419.374H332.5" stroke="#283593" stroke-width="4"/>
<path d="M336.568 152.257V248.419H223.5" stroke="#283593" stroke-width="4"/>
</svg>
