<svg width="220" height="250" viewBox="0 0 220 250" fill="none" xmlns="http://www.w3.org/2000/svg">
<circle cx="141.79" cy="55.1407" r="8.00257" transform="rotate(90 141.79 55.1407)" stroke="white" stroke-width="2"/>
<circle cx="76.5219" cy="34.8849" r="8.00257" transform="rotate(90 76.5219 34.8849)" stroke="white" stroke-width="2"/>
<circle cx="93.9642" cy="9.00257" r="8.00257" transform="rotate(90 93.9642 9.00257)" stroke="white" stroke-width="2"/>
<path d="M140.102 126.116L105.217 112.612L99.0016 115.01M140.102 126.116L105.217 139.619L70.3325 126.116M140.102 126.116V139.619M70.3325 126.116V139.619M70.3325 126.116L87.775 119.364L93.9462 116.906L93.9642 18.0051M140.102 139.619L105.217 153.123L70.3325 139.619M140.102 139.619V153.123M70.3325 139.619V153.123M70.3325 153.123L105.217 166.064L140.102 153.123M70.3325 153.123V166.627M140.102 153.123V166.627M140.102 166.627V180.131L105.217 193.635L70.3325 180.131V166.627M140.102 166.627L105.217 180.131L70.3325 166.627" stroke="white" stroke-width="2"/>
<line x1="140.103" y1="146.417" x2="201.996" y2="146.417" stroke="white" stroke-width="2"/>
<circle cx="158.108" cy="240.819" r="8.00257" stroke="white" stroke-width="2"/>
<circle cx="210.997" cy="147.417" r="8.00257" stroke="white" stroke-width="2"/>
<circle cx="43.8876" cy="218.312" r="8.00257" transform="rotate(90 43.8876 218.312)" stroke="white" stroke-width="2"/>
<circle cx="9.00281" cy="56.8286" r="8.00257" transform="rotate(90 9.00281 56.8286)" stroke="white" stroke-width="2"/>
<path d="M76.5225 43.8876V83.8365H93.9649" stroke="white" stroke-width="2"/>
<path d="M9.00244 64.1433L9.00244 135.601H70.8951" stroke="white" stroke-width="2"/>
<path d="M43.8877 209.309V158.67H70.3327" stroke="white" stroke-width="2"/>
<path d="M158.108 231.816V176.675H140.077" stroke="white" stroke-width="2"/>
<path d="M141.791 64.1433V104.655H94.157" stroke="white" stroke-width="2"/>
</svg>
