<svg width="224" height="244" viewBox="0 0 224 244" fill="none" xmlns="http://www.w3.org/2000/svg">
<path d="M144.134 61.5592C139.601 61.5592 135.998 58.044 135.998 53.7941C135.998 49.5442 139.601 46.0291 144.134 46.0291C148.666 46.0291 152.27 49.5442 152.27 53.7941C152.27 58.044 148.666 61.5592 144.134 61.5592Z" stroke="black" stroke-width="2"/>
<path d="M77.8994 41.8375C73.3666 41.8375 69.7636 38.3223 69.7636 34.0724C69.7636 29.8226 73.3666 26.3074 77.8994 26.3074C82.4321 26.3074 86.0352 29.8226 86.0352 34.0724C86.0352 38.3223 82.4321 41.8375 77.8994 41.8375Z" stroke="black" stroke-width="2"/>
<path d="M95.5996 16.638C91.0668 16.638 87.4638 13.1229 87.4638 8.87298C87.4638 4.62309 91.0668 1.10791 95.5996 1.10791C100.132 1.10791 103.735 4.62309 103.735 8.87298C103.735 13.1229 100.132 16.638 95.5996 16.638Z" stroke="black" stroke-width="2"/>
<path d="M142.421 122.897L107.019 109.749L100.712 112.084M142.421 122.897L107.019 136.044L71.6182 122.897M142.421 122.897V136.044M71.6182 122.897V136.044M71.6182 122.897L89.3188 116.323L95.5813 113.93L95.5996 17.6382M142.421 136.044L107.019 149.192L71.6182 136.044M142.421 136.044V149.192M71.6182 136.044V149.192M71.6182 149.192L107.019 161.792L142.421 149.192M71.6182 149.192V162.339M142.421 149.192V162.339M142.421 162.339V175.487L107.019 188.635L71.6182 175.487V162.339M142.421 162.339L107.019 175.487L71.6182 162.339" stroke="black" stroke-width="2"/>
<line x1="144" y1="143" x2="206.809" y2="143" stroke="black" stroke-width="2"/>
<path d="M168.828 234.573C168.828 238.823 165.225 242.338 160.692 242.338C156.16 242.338 152.557 238.823 152.557 234.573C152.557 230.324 156.16 226.808 160.692 226.808C165.225 226.808 168.828 230.324 168.828 234.573Z" stroke="black" stroke-width="2"/>
<path d="M222.5 143.636C222.5 147.886 218.897 151.401 214.364 151.401C209.832 151.401 206.229 147.886 206.229 143.636C206.229 139.386 209.832 135.871 214.364 135.871C218.897 135.871 222.5 139.386 222.5 143.636Z" stroke="black" stroke-width="2"/>
<path d="M44.7822 220.426C40.2495 220.426 36.6464 216.911 36.6464 212.661C36.6464 208.411 40.2495 204.896 44.7822 204.896C49.3149 204.896 52.918 208.411 52.918 212.661C52.918 216.911 49.3149 220.426 44.7822 220.426Z" stroke="black" stroke-width="2"/>
<path d="M9.38081 63.2025C4.84808 63.2025 1.24501 59.6873 1.24501 55.4374C1.24501 51.1875 4.84808 47.6724 9.38081 47.6724C13.9135 47.6724 17.5166 51.1875 17.5166 55.4374C17.5166 59.6873 13.9135 63.2025 9.38081 63.2025Z" stroke="black" stroke-width="2"/>
<path d="M77.8994 42.8379V81.7329H95.6" stroke="black" stroke-width="2"/>
<path d="M9.38086 62.5591L9.38086 132.132H72.1895" stroke="black" stroke-width="2"/>
<path d="M44.7822 203.896V154.592H71.6186" stroke="black" stroke-width="2"/>
<path d="M160.692 225.808V172.122H142.395" stroke="black" stroke-width="2"/>
<path d="M144.133 62.5591V102.002H95.7943" stroke="black" stroke-width="2"/>
</svg>
