<svg width="602" height="521" viewBox="0 0 602 521" fill="none" xmlns="http://www.w3.org/2000/svg">
<path d="M152.028 377.492C152.028 389.459 118.601 399.161 77.3676 399.161C36.1341 399.161 2.00007 389.459 2.00007 377.492M152.028 377.492L152.021 359.746L152.028 337.768M152.028 377.492V405.661C152.028 417.628 118.601 427.33 77.3676 427.33C36.1341 427.33 2.00007 417.628 2.00007 405.661L2.00007 377.492M2.00007 377.492L2.00007 337.768M152.028 337.768C152.028 349.735 118.601 359.436 77.3676 359.436C36.1341 359.436 2.00007 349.735 2.00007 337.768M152.028 337.768V297.321M2.00007 337.768L2.00007 297.321M152.028 297.321C152.028 309.287 118.601 318.989 77.3676 318.989C36.1341 318.989 2.00007 309.287 2.00007 297.321M152.028 297.321L152 260M2.00007 297.321L2.00006 260M152 260C152 271.598 118.28 281 77.2651 281C36.2496 281 2.00006 271.598 2.00006 260M152 260L152 222M2.00006 260L2.00006 221.5M152 222C152 234.426 119.526 244 77 244C34.4741 244 2.00006 233.926 2.00006 221.5M152 222C152 209.574 119.526 199 77 199C34.4741 199 2.00006 209.074 2.00006 221.5" stroke="url(#paint0_radial)" stroke-width="4"/>
<path d="M252 191.81H600M252 113H600V427H252V113Z" stroke="url(#paint1_linear)" stroke-width="4"/>
<path d="M361.754 255.277L293.199 301.481L361.754 351.15M489.725 254.122L558.28 300.326L489.725 349.995M454.921 252.763L402.362 352.101" stroke="#00C853" stroke-width="4"/>
<ellipse cx="453.162" cy="157.093" rx="11.4259" ry="11.551" fill="#00E676"/>
<ellipse cx="505.721" cy="157.093" rx="11.4259" ry="11.551" fill="#FF6F00"/>
<ellipse cx="558.28" cy="157.093" rx="11.4259" ry="11.551" fill="#2196F3"/>
<path d="M233.3 25.2097C233.3 38.0486 223.01 48.4194 210.363 48.4194C197.716 48.4194 187.427 38.0486 187.427 25.2097C187.427 12.3707 197.716 2 210.363 2C223.01 2 233.3 12.3707 233.3 25.2097Z" stroke="#2196F3" stroke-width="4"/>
<path d="M95.1892 165.479C95.1892 175.819 86.9035 184.164 76.7283 184.164C66.5531 184.164 58.2675 175.819 58.2675 165.479C58.2675 155.139 66.5531 146.794 76.7283 146.794C86.9035 146.794 95.1892 155.139 95.1892 165.479Z" stroke="#2196F3" stroke-width="4"/>
<path d="M298.519 25.2097C298.519 38.0486 288.23 48.4194 275.582 48.4194C262.935 48.4194 252.646 38.0486 252.646 25.2097C252.646 12.3707 262.935 2 275.582 2C288.23 2 298.519 12.3707 298.519 25.2097Z" stroke="#2196F3" stroke-width="4"/>
<path d="M361.181 25.2097C361.181 38.0486 350.891 48.4194 338.244 48.4194C325.597 48.4194 315.307 38.0486 315.307 25.2097C315.307 12.3707 325.597 2 338.244 2C350.891 2 361.181 12.3707 361.181 25.2097Z" stroke="#2196F3" stroke-width="4"/>
<path d="M433.515 430.504V518.414H317.143M158.572 518.414H78.0071M207.166 518.414H235.3M244.252 518.414H267.27M285.173 518.414H304.355M166.245 519H198.215M360.623 25.856H428.4V112.474M112.535 25.856L140.668 25.856M299.24 25.856L314.586 25.856M235.3 25.856L250.646 25.856M154.735 25.856L185.427 25.856M76.7283 25.856H94.6315M76.7283 23.2703L76.7283 146.087M78.7283 427.918L78.7283 521" stroke="#0E2783" stroke-width="4"/>
<defs>
<radialGradient id="paint0_radial" cx="0" cy="0" r="1" gradientUnits="userSpaceOnUse" gradientTransform="translate(-11 291.501) rotate(-0.311956) scale(183.503 33929.9)">
<stop stop-color="#6A1B9A"/>
<stop offset="0.507001" stop-color="#E040FB"/>
<stop offset="0.96875" stop-color="#6A1B9A"/>
</radialGradient>
<linearGradient id="paint1_linear" x1="558.282" y1="104.305" x2="416.975" y2="426.19" gradientUnits="userSpaceOnUse">
<stop stop-color="#E91E63"/>
<stop offset="1" stop-color="#E91E63"/>
</linearGradient>
</defs>
</svg>
