<svg width="223" height="176" viewBox="0 0 223 176" fill="none" xmlns="http://www.w3.org/2000/svg">
<path d="M56.9163 127.007C56.9163 131.034 44.619 134.298 29.4494 134.298C14.2798 134.298 1.72217 131.034 1.72217 127.007M56.9163 127.007L56.9138 121.037L56.9163 113.642M56.9163 127.007V136.485C56.9163 140.511 44.619 143.775 29.4494 143.775C14.2798 143.775 1.72217 140.511 1.72217 136.485L1.72217 127.007M1.72217 127.007L1.72217 113.642M56.9163 113.642C56.9163 117.668 44.619 120.932 29.4494 120.932C14.2798 120.932 1.72217 117.668 1.72217 113.642M56.9163 113.642V100.034M1.72217 113.642L1.72217 100.034M56.9163 100.034C56.9163 104.06 44.619 107.324 29.4494 107.324C14.2798 107.324 1.72217 104.06 1.72217 100.034M56.9163 100.034L56.9062 87.4771M1.72217 100.034L1.72217 87.4771M56.9062 87.4771C56.9062 91.3792 44.501 94.5425 29.4117 94.5425C14.3224 94.5425 1.72217 91.3792 1.72217 87.4771M56.9062 87.4771L56.9062 74.692M1.72217 87.4771L1.72217 74.5237M56.9062 74.692C56.9062 78.8728 44.9592 82.0939 29.3142 82.0939C13.6692 82.0939 1.72217 78.7046 1.72217 74.5237M56.9062 74.692C56.9062 70.5111 44.9592 66.9536 29.3142 66.9536C13.6692 66.9536 1.72217 70.3429 1.72217 74.5237" stroke="white" stroke-width="2"/>
<path d="M93.6953 64.5344H221.722M93.6953 38.0188H221.722V143.664H93.6953V38.0188Z" stroke="white" stroke-width="2"/>
<path d="M134.074 85.8879L108.853 101.433L134.074 118.144M181.153 85.4993L206.374 101.045L181.153 117.756M168.349 85.0421L149.013 118.465" stroke="white" stroke-width="2"/>
<ellipse cx="167.701" cy="52.8541" rx="4.20352" ry="3.88633" fill="white"/>
<ellipse cx="187.038" cy="52.8541" rx="4.20352" ry="3.88633" fill="white"/>
<ellipse cx="206.374" cy="52.8541" rx="4.20352" ry="3.88633" fill="white"/>
<path d="M86.5517 8.4818C86.5517 12.5415 82.9674 15.9636 78.3777 15.9636C73.7879 15.9636 70.2036 12.5415 70.2036 8.4818C70.2036 4.42214 73.7879 1 78.3777 1C82.9674 1 86.5517 4.42214 86.5517 8.4818Z" stroke="white" stroke-width="2"/>
<path d="M35.7419 55.6752C35.7419 58.8941 32.8948 61.6347 29.2144 61.6347C25.5341 61.6347 22.687 58.8941 22.687 55.6752C22.687 52.4564 25.5341 49.7158 29.2144 49.7158C32.8948 49.7158 35.7419 52.4564 35.7419 55.6752Z" stroke="white" stroke-width="2"/>
<path d="M110.545 8.4818C110.545 12.5415 106.961 15.9636 102.371 15.9636C97.7811 15.9636 94.1968 12.5415 94.1968 8.4818C94.1968 4.42214 97.7811 1 102.371 1C106.961 1 110.545 4.42214 110.545 8.4818Z" stroke="white" stroke-width="2"/>
<path d="M133.598 8.4818C133.598 12.5415 130.014 15.9636 125.424 15.9636C120.834 15.9636 117.25 12.5415 117.25 8.4818C117.25 4.42214 120.834 1 125.424 1C130.014 1 133.598 4.42214 133.598 8.4818Z" stroke="white" stroke-width="2"/>
<path d="M160.474 144.843V174.421H117.662M59.3241 174.421H29.6848M77.2016 174.421H87.5519M90.8451 174.421H99.3135M105.9 174.421H112.957M62.1468 174.618H73.9084M133.657 8.6993H158.592V37.8419M42.3873 8.6993L52.7375 8.6993M111.075 8.6993L116.721 8.6993M87.5518 8.6993L93.1974 8.6993M57.9127 8.6993L69.2038 8.6993M29.2144 8.6993H35.8009M29.2144 7.82935L29.2144 49.1509M29.9501 143.973L29.9501 175.291" stroke="white" stroke-width="2"/>
</svg>
