<svg width="215" height="172" viewBox="0 0 215 172" fill="none" xmlns="http://www.w3.org/2000/svg">
<path d="M57.593 124.449C57.593 128.369 45.1137 131.546 29.7196 131.546C14.3256 131.546 1.58203 128.369 1.58203 124.449M57.593 124.449L57.5904 118.635L57.593 111.436M57.593 124.449V133.676C57.593 137.596 45.1137 140.774 29.7196 140.774C14.3256 140.774 1.58204 137.596 1.58204 133.676L1.58203 124.449M1.58203 124.449L1.58203 111.436M57.593 111.436C57.593 115.356 45.1137 118.534 29.7196 118.534C14.3256 118.534 1.58203 115.356 1.58203 111.436M57.593 111.436V98.1863M1.58203 111.436L1.58203 98.1863M57.593 98.1863C57.593 102.106 45.1137 105.284 29.7196 105.284C14.3256 105.284 1.58203 102.106 1.58203 98.1863M57.593 98.1863L57.5827 85.961M1.58203 98.1863L1.58203 85.961M57.5827 85.961C57.5827 89.7602 44.9939 92.8401 29.6813 92.8401C14.3687 92.8401 1.58203 89.7602 1.58203 85.961M57.5827 85.961L57.5827 73.5132M1.58203 85.961L1.58203 73.3494M57.5827 73.5132C57.5827 77.5838 45.4589 80.7198 29.5824 80.7198C13.7058 80.7198 1.58203 77.42 1.58203 73.3494M57.5827 73.5132C57.5827 69.4426 45.4589 65.979 29.5824 65.979C13.7058 65.979 1.58203 69.2789 1.58203 73.3494" stroke="black" stroke-width="2"/>
<path d="M108 63.8517H214M108 38H214V141H108V38Z" stroke="black" stroke-width="2"/>
<path d="M143.69 84.8098L123 99.6935L143.69 115.694M182.31 84.4377L203 99.3214L182.31 115.321M171.807 84L155.945 116" stroke="black" stroke-width="2"/>
<ellipse cx="177.266" cy="51.7838" rx="4.26573" ry="3.78381" fill="black"/>
<ellipse cx="191.266" cy="51.7838" rx="4.26573" ry="3.78381" fill="black"/>
<ellipse cx="205.266" cy="51.7838" rx="4.26573" ry="3.78381" fill="black"/>
<path d="M87.6821 9.04954C87.6821 12.9487 84.0778 16.3076 79.3723 16.3076C74.6669 16.3076 71.0625 12.9487 71.0625 9.04954C71.0625 5.15036 74.6669 1.7915 79.3723 1.7915C84.0778 1.7915 87.6821 5.15036 87.6821 9.04954Z" stroke="black" stroke-width="2"/>
<path d="M36.1204 54.998C36.1204 58.0786 33.2642 60.7738 29.4816 60.7738C25.699 60.7738 22.8428 58.0786 22.8428 54.998C22.8428 51.9174 25.699 49.2222 29.4816 49.2222C33.2642 49.2222 36.1204 51.9174 36.1204 54.998Z" stroke="black" stroke-width="2"/>
<path d="M112.03 9.04954C112.03 12.9487 108.425 16.3076 103.72 16.3076C99.0145 16.3076 95.4102 12.9487 95.4102 9.04954C95.4102 5.15036 99.0145 1.7915 103.72 1.7915C108.425 1.7915 112.03 5.15036 112.03 9.04954Z" stroke="black" stroke-width="2"/>
<path d="M135.424 9.04954C135.424 12.9487 131.82 16.3076 127.115 16.3076C122.409 16.3076 118.805 12.9487 118.805 9.04954C118.805 5.15036 122.409 1.7915 127.115 1.7915C131.82 1.7915 135.424 5.15036 135.424 9.04954Z" stroke="black" stroke-width="2"/>
<path d="M162.683 141.813V170.611H119.238M60.0367 170.611H29.9589M78.1789 170.611H88.6823M92.0243 170.611H100.618M107.302 170.611H114.463M62.9013 170.803H74.837M135.47 9.26131H160.774V37.6351M42.8494 9.26131L53.3528 9.26131M112.554 9.26131L118.283 9.26131M88.6823 9.26131L94.4114 9.26131M58.6045 9.26131L70.0627 9.26131M29.4814 9.26131H36.1654M29.4814 8.41431L29.4814 48.6458M30.2281 140.966L30.2281 171.458" stroke="black" stroke-width="2"/>
</svg>
